<svg width="62" height="62" viewBox="0 0 62 62" fill="none" xmlns="http://www.w3.org/2000/svg">
<path d="M14.2078 25.448L27.0579 25.7325L30.8243 13.7251L34.5182 25.754L47.3699 25.5433L36.8027 32.693L40.9791 44.5703L30.7543 36.9602L20.4838 44.5114L24.7317 32.6583L14.2078 25.448Z" fill="#898989"/>
<path d="M14.2078 25.448L27.0579 25.7325L30.8243 13.7251L34.5182 25.754L47.3699 25.5433L36.8027 32.693L40.9791 44.5703L30.7543 36.9602L20.4838 44.5114L24.7317 32.6583L14.2078 25.448Z" fill="#898989"/>
<path fill-rule="evenodd" clip-rule="evenodd" d="M13.6664 26.3584C13.2886 27.7639 13.0874 29.2394 13.0874 30.7607C13.0874 36.1187 15.583 40.9072 19.5004 44.077L20.892 39.9489C18.5276 37.5499 17.0874 34.3001 17.0874 30.7607C17.0874 30.1278 17.1335 29.5041 17.2226 28.8928L13.6664 26.3584ZM28.3709 17.6821C24.1832 18.3987 20.6905 20.9552 18.7468 24.4233L14.3215 24.406C16.7958 18.2953 22.7328 13.8922 29.7683 13.5066L28.3709 17.6821ZM42.8411 24.4926C40.9147 21.0065 37.4285 18.429 33.2407 17.6928L31.8692 13.5116C38.9023 13.9312 44.8249 18.3665 47.2658 24.5006L42.8411 24.4926ZM40.5902 40.0166C42.9944 37.6112 44.462 34.3336 44.462 30.7607C44.462 30.1512 44.4192 29.5503 44.3365 28.9608L47.9067 26.4477C48.2692 27.8264 48.462 29.2715 48.462 30.7607C48.462 36.1608 45.9271 40.9823 41.9565 44.1514L40.5902 40.0166ZM24.8229 42.7275C26.6156 43.5687 28.6321 44.0424 30.7747 44.0424C32.8848 44.0424 34.8725 43.583 36.6447 42.7655L40.257 45.3516C37.5165 47.0554 34.2636 48.0424 30.7747 48.0424C27.2451 48.0424 23.9569 47.0322 21.1966 45.2916L24.8229 42.7275Z" fill="#898989"/>
<mask id="path-4-inside-1_1_61" fill="white">
<path fill-rule="evenodd" clip-rule="evenodd" d="M31.2192 61.5488C48.2154 61.5488 61.9936 47.7706 61.9936 30.7744C61.9936 13.7782 48.2154 0 31.2192 0C14.223 0 0.444824 13.7782 0.444824 30.7744C0.444824 47.7706 14.223 61.5488 31.2192 61.5488ZM31.2186 52.5259C43.2317 52.5259 52.9702 42.7874 52.9702 30.7743C52.9702 18.7613 43.2317 9.02275 31.2186 9.02275C19.2056 9.02275 9.46708 18.7613 9.46708 30.7743C9.46708 42.7874 19.2056 52.5259 31.2186 52.5259Z"/>
</mask>
<path fill-rule="evenodd" clip-rule="evenodd" d="M31.2192 61.5488C48.2154 61.5488 61.9936 47.7706 61.9936 30.7744C61.9936 13.7782 48.2154 0 31.2192 0C14.223 0 0.444824 13.7782 0.444824 30.7744C0.444824 47.7706 14.223 61.5488 31.2192 61.5488ZM31.2186 52.5259C43.2317 52.5259 52.9702 42.7874 52.9702 30.7743C52.9702 18.7613 43.2317 9.02275 31.2186 9.02275C19.2056 9.02275 9.46708 18.7613 9.46708 30.7743C9.46708 42.7874 19.2056 52.5259 31.2186 52.5259Z" fill="#898989"/>
<path d="M60.9936 30.7744C60.9936 47.2183 47.6631 60.5488 31.2192 60.5488V62.5488C48.7677 62.5488 62.9936 48.3229 62.9936 30.7744H60.9936ZM31.2192 1C47.6631 1 60.9936 14.3304 60.9936 30.7744H62.9936C62.9936 13.2259 48.7677 -1 31.2192 -1V1ZM1.44482 30.7744C1.44482 14.3304 14.7753 1 31.2192 1V-1C13.6707 -1 -0.555176 13.2259 -0.555176 30.7744H1.44482ZM31.2192 60.5488C14.7753 60.5488 1.44482 47.2183 1.44482 30.7744H-0.555176C-0.555176 48.3229 13.6707 62.5488 31.2192 62.5488V60.5488ZM51.9702 30.7743C51.9702 42.2351 42.6794 51.5259 31.2186 51.5259V53.5259C43.784 53.5259 53.9702 43.3397 53.9702 30.7743H51.9702ZM31.2186 10.0227C42.6794 10.0227 51.9702 19.3135 51.9702 30.7743H53.9702C53.9702 18.209 43.784 8.02275 31.2186 8.02275V10.0227ZM10.4671 30.7743C10.4671 19.3135 19.7579 10.0227 31.2186 10.0227V8.02275C18.6533 8.02275 8.46708 18.209 8.46708 30.7743H10.4671ZM31.2186 51.5259C19.7579 51.5259 10.4671 42.2351 10.4671 30.7743H8.46708C8.46708 43.3397 18.6533 53.5259 31.2186 53.5259V51.5259Z" fill="#D6D6D6" mask="url(#path-4-inside-1_1_61)"/>
</svg>
