<svg width="64" height="43" viewBox="0 0 64 43" fill="none" xmlns="http://www.w3.org/2000/svg">
<path d="M45.9167 28.9223C45.907 28.5012 45.7873 28.1597 45.6248 27.7917C45.5081 27.5274 45.2736 27.6486 45.315 27.8622C45.4353 28.4828 44.6797 28.2262 44.9211 28.9092C44.7833 28.9184 44.8029 29.002 44.6921 29.0762C44.7123 29.0553 44.7183 28.957 44.7017 28.9302C44.6486 29.0624 44.551 29.1989 44.5096 29.3124C44.3976 29.3752 44.3848 29.346 44.2523 29.5424C43.3949 29.2994 43.2435 30.1387 43.2641 30.9701C43.2891 31.9792 42.8605 32.5484 43.0473 33.536C43.1261 33.9524 43.003 34.4 43.4642 34.581C43.8205 34.7208 44.4895 34.6329 44.6271 34.1303C45.0169 32.707 45.8527 30.7508 45.7219 29.3111C46.032 29.7205 46.0605 29.3108 45.9167 28.9223Z" fill="#FCCA3E"/>
<path d="M47 16.7373C46.7203 16.6742 47.1338 16.1196 46.8708 16.0462C46.6837 15.9941 45.9037 16.2718 45.6643 16.3313C45.187 16.4499 44.7679 16.5284 44.2929 16.5889C44.0096 16.625 43.8655 16.9061 43.5597 16.6876C43.2506 16.4668 43.1822 16.1728 42.7812 16.2019C43.9286 15.9198 41.7489 14.5792 41.5217 14.2522C41.4574 14.3032 41.517 14.3659 41.4699 14.417C41.1412 13.934 40.9642 13.2587 40.6845 12.7902C40.3922 12.3006 40.0855 11.9159 40.2583 11.3746C40.1082 10.8888 39.1693 10.2386 39.5522 9.84122C39.1827 9.51358 37.8362 7.11889 38.01 6.57103C38.2003 7.00338 38.4712 7.88316 38.8985 7.57547C39.3532 7.24809 38.9407 6.25404 38.7923 5.8585C38.4601 5.99058 38.1495 6.0254 37.8424 5.87372C37.7884 5.88302 37.8251 5.9664 37.6292 5.87432C37.6508 5.86123 37.6918 5.80163 37.6872 5.77422C37.6919 5.77198 37.774 5.85337 37.8041 5.84875C37.5357 5.7598 37.3472 5.7197 37.0502 5.80875C37.055 5.80502 37.2004 5.73846 37.223 5.7298C36.2966 6.00456 36.0599 5.98296 35.0341 5.74035C34.5128 5.61707 33.9469 5.39406 33.4673 5.24283C33.0007 5.09567 32.4197 4.84495 32.0049 5.4457C31.789 5.75841 32.2519 6.03122 31.8064 6.3204C31.4481 6.55287 31.4244 6.22519 31.1361 6.15887C30.8846 6.10097 30.2748 5.98809 30.0733 5.87168C29.7207 5.66792 29.7725 5.35903 29.3621 5.22069C28.8149 5.03622 28.2976 5.0796 27.7722 4.83519C27.2684 4.60089 27.2844 4.46294 27.6344 3.87751C27.8991 3.43466 27.1874 3.23831 27.7268 2.74337C27.4625 2.8658 27.2 2.77367 27.1145 2.66611C26.9791 2.57791 25.9429 2.74665 25.725 2.76944C25.2514 2.81894 24.7182 2.72954 24.2251 2.82317C23.6076 2.94032 23.0468 3.03146 22.4685 3.28213C22.0445 3.4659 21.3806 4.07471 20.9792 3.63435C20.6028 3.8117 19.9799 3.84687 19.8743 3.35765C19.435 3.43367 19.4791 3.73663 19.289 4.12252C19.0924 4.52164 18.8084 4.55323 18.4494 4.7753C17.6587 5.26427 17.9984 5.83686 17.7892 6.42412C17.6041 6.94373 17.1536 7.23167 16.7253 7.52901C16.3125 7.81556 16.3351 7.76203 15.9909 8.12722C15.448 8.70324 15.2962 9.4102 14.7452 9.98419C14.7738 9.95359 14.8024 9.92305 14.831 9.89241C14.6342 10.3667 14.1367 10.9651 14.2337 11.4967C14.249 11.4511 14.2645 11.4056 14.2799 11.36C14.5717 11.56 14.6531 11.9356 14.5896 12.1701C14.5582 12.7728 14.904 14.2038 14 14.6042C14.1552 14.691 14.3084 14.898 14.4397 14.9647C14.4165 15.2929 14.6511 15.3537 15.0103 15.2526C14.734 15.2434 14.6091 15.3078 14.3755 15.2744C14.3951 15.4036 14.3499 15.558 14.3845 15.6933C14.4859 15.7211 14.4058 15.5937 14.5203 15.698C14.4995 15.7272 14.4025 15.6786 14.3665 15.7532C14.5795 16.0029 14.7989 16.1598 15.1776 16.0039C15.1304 16.0421 15.0258 16.0818 14.9754 16.0991C15.0083 16.2048 15.1662 16.1212 15.1803 16.1892C15.1245 16.2366 15.0473 16.2116 14.9853 16.2827C15.0447 16.3486 15.1628 16.3957 15.189 16.4165C15.203 16.4421 15.1677 16.5479 15.1961 16.5823C15.478 16.5811 15.9179 17.2166 16.1451 17.5386C16.09 17.6225 16.0714 17.5543 16.0807 17.6738C16.0732 17.6953 16.2219 17.6508 16.2196 17.6498C16.1262 17.7289 16.1625 17.7278 16.054 17.7425C16.3444 18.2023 16.6573 18.3641 17.1739 18.7218C17.5886 19.0089 17.9995 19.5612 18.5034 19.6789C19.0183 19.7992 19.4409 19.4517 19.9777 19.3857C19.9228 19.3719 19.888 19.384 19.8312 19.3758C20.0292 19.371 20.2555 19.344 20.4688 19.3369C20.3735 19.3222 20.2888 19.3419 20.1948 19.3341C20.466 19.3299 20.6848 19.3479 20.8933 19.2789C20.8819 19.3455 20.899 19.3602 20.9567 19.3857C20.9507 19.3696 20.8648 19.3855 20.8477 19.3939C21.5251 19.753 23.4823 18.9244 24.2014 18.6718C24.1534 18.6975 24.1053 18.7232 24.0572 18.7489C24.4487 18.7126 24.8125 18.9913 25.0185 19.1496C24.9778 19.1715 24.9343 19.1609 24.8951 19.188C24.9711 19.2627 24.9715 19.2082 25.0631 19.2171C24.8271 19.6197 25.4176 19.8607 25.6912 19.7571C25.6701 19.7014 25.6435 19.6491 25.6467 19.5848C25.6873 19.6228 25.7066 19.7042 25.7429 19.747C25.7927 19.687 25.7748 19.6199 25.7948 19.589C26.0985 19.6962 26.1946 19.7072 26.3584 19.4871C26.6489 19.6384 26.679 19.896 27.0466 19.9125C27.0464 19.9397 27.0093 19.9983 27.071 20.0121C27.1092 20.3319 27.0359 21.3389 26.8837 21.6156C27.0026 21.6975 27.0245 21.7565 27.1965 21.8013C27.0698 21.7661 27.0537 21.8323 26.8866 21.7286C26.7958 22.1323 26.839 22.0636 26.5743 22.1855C26.7712 22.4458 26.7633 22.5458 26.9674 22.6779C26.8438 22.6336 26.8484 22.6351 26.734 22.5363C26.798 22.6806 26.8664 22.7461 26.948 22.8558C26.9337 22.8349 26.8669 22.8407 26.8598 22.8268C26.9994 22.9755 27.0536 23.0369 27.2255 23.1432C27.157 23.1503 27.1257 23.1051 27.0625 23.1029C27.4801 23.4686 28.2494 24.8728 28.6661 24.7679C27.8002 24.8959 29.1715 25.93 28.6779 26.2637C28.6537 26.7787 29.1435 27.1831 28.9967 27.7606C28.8576 28.308 28.3857 28.717 28.2238 29.3724C27.8043 31.0701 28.9489 31.838 29.3502 33.4103C29.4751 33.8994 29.4626 34.7384 29.6328 35.3388C29.8057 35.9485 30.183 36.2053 30.4438 36.7326C30.7547 37.3612 31.0042 38.0316 31.1342 38.6443C31.131 38.6292 31.2551 39.3226 31.2508 39.5658C31.3663 39.4692 31.8864 39.6716 32.2415 39.6367C32.9295 39.5691 33.6525 39.508 34.3046 39.4299C35.9643 39.2311 38.1661 37.0036 38.1964 35.1091C38.173 35.1045 38.1326 35.1969 38.1456 35.2096C37.8948 34.5614 39.0215 34.5701 39.3541 34.1491C39.4923 33.9741 39.4588 33.2806 39.4052 32.9948C39.3816 33.0337 39.3874 33.1385 39.36 33.1631C39.3015 32.654 39.0508 32.1992 39.0084 31.7209C39.5706 31.7187 40.2251 30.7516 40.7361 30.4292C41.3652 30.0323 41.8178 29.9025 41.949 29.0637C41.9496 29.0596 41.8541 28.348 41.8448 28.1476C41.8322 27.8777 41.8603 27.3791 41.8057 27.1891C41.773 27.0752 41.4794 26.9157 41.4408 26.8092C41.2463 26.2719 41.2788 25.6399 41.2509 25.2451C41.2232 24.8539 41.0257 24.8758 41.1731 24.2966C41.2375 24.043 41.5114 23.5423 41.6623 23.3239C42.6383 21.9112 44.7472 20.8015 45.7563 19.1252C46.1333 18.4989 46.579 17.0391 47 16.7373Z" fill="#FCCA3E"/>
<path d="M0 0H64V42.6667H0V0Z" fill="#3F724A"/>
<path fill-rule="evenodd" clip-rule="evenodd" d="M32.1249 39.5482C42.3639 39.5482 50.6643 31.2479 50.6643 21.0089C50.6643 10.7699 42.3639 2.46956 32.1249 2.46956C21.886 2.46956 13.5856 10.7699 13.5856 21.0089C13.5856 31.2479 21.886 39.5482 32.1249 39.5482ZM32.1249 38.5065C41.7886 38.5065 49.6226 30.6726 49.6226 21.0089C49.6226 11.3452 41.7886 3.51123 32.1249 3.51123C22.4613 3.51123 14.6273 11.3452 14.6273 21.0089C14.6273 30.6726 22.4613 38.5065 32.1249 38.5065Z" fill="#FFCC00"/>
<path d="M32 4.5278L32.7375 9.0381L34.0033 4.64668L34.2021 9.21255L35.9784 5.00166L35.6358 9.55901L37.8977 5.58776L37.0185 10.0726L39.7342 6.39673L38.3307 10.7461L41.4621 7.41724L39.5541 11.5701L43.0572 8.63495L40.6714 12.533L44.4971 10.0328L41.667 13.6213L45.7615 11.5911L42.5269 14.8197L46.8328 13.288L43.239 16.1114L47.6958 15.0997L43.7933 17.4782L48.3385 17.0008L44.1821 18.9011L48.7519 18.9645L44.3999 20.3599L48.9301 20.9634L44.4436 21.8342L48.8706 22.9693L44.3126 23.3034L48.5743 24.9541L44.0088 24.7467L48.0453 26.8899L43.5364 26.144L47.2911 28.7495L42.9021 27.4756L46.3223 30.5069L42.1147 28.7229L45.1524 32.1374L41.1853 29.8682L43.7978 33.6181L40.127 30.8956L42.2777 34.9281L38.9546 31.7906L40.6132 36.0492L37.6846 32.5407L38.8279 36.9656L36.3348 33.1353L36.9467 37.6643L34.9241 33.5661L34.9961 38.1357L33.4724 33.827L33.0034 38.3731L32 33.9144L30.9966 38.3731L30.5276 33.827L29.0039 38.1357L29.0759 33.5661L27.0533 37.6643L27.6652 33.1353L25.1721 36.9656L26.3154 32.5407L23.3868 36.0492L25.0454 31.7906L21.7223 34.9281L23.873 30.8956L20.2022 33.6181L22.8147 29.8682L18.8476 32.1374L21.8853 28.7229L17.6777 30.5069L21.0979 27.4756L16.7089 28.7495L20.4636 26.144L15.9547 26.8899L19.9912 24.7467L15.4257 24.9541L19.6874 23.3034L15.1294 22.9693L19.5564 21.8342L15.0699 20.9634L19.6001 20.3599L15.2481 18.9645L19.8179 18.9011L15.6615 17.0008L20.2067 17.4782L16.3042 15.0997L20.761 16.1114L17.1672 13.288L21.4731 14.8197L18.2385 11.5911L22.333 13.6213L19.5029 10.0328L23.3286 12.533L20.9428 8.63495L24.4459 11.5701L22.5379 7.41724L25.6693 10.7461L24.2658 6.39673L26.9815 10.0726L26.1023 5.58776L28.3642 9.55901L28.0216 5.00166L29.7979 9.21255L29.9967 4.64668L31.2625 9.0381L32 4.5278Z" fill="#043910"/>
<path d="M22.6039 9.75989L24.0938 7.59377L25.8249 7.25469L27.6468 6.58772L30.3472 6.44131L31.6485 7.25469C32.1691 7.25469 31.4533 8.46877 31.6485 8.46877C31.8438 8.46877 32.3319 8.71877 32.8524 8.71877C33.2689 8.71877 33.8176 8.21447 33.9912 8.21447L36.0246 8.99532L37.4399 8.84891C38.1339 8.84891 39.6848 9.34344 39.6848 9.75989C39.6848 10.2805 39.4408 10.8661 39.4408 11.3866C39.4408 11.8031 39.7282 12.2163 40.0752 12.7368L40.8235 14.7215L42.9058 17.064L45.6062 16.5922L45.6875 18.2841C45.6875 18.6311 45.1669 19.413 45.1669 19.8295C45.1669 20.2459 44.603 21.3641 44.256 21.5376C44.0824 21.8846 43.4523 22.2111 43.0359 22.6275C42.6194 23.0439 41.9297 23.7988 41.702 24.3844L41.8809 25.9461L41.9948 28.3211L40.8235 29.8177L40.3029 30.3383L39.9939 30.7938V32.4856C39.4733 33.0062 38.725 33.3543 38.725 33.7708C38.725 34.1872 37.2244 36.1479 36.7038 36.3214L35.7318 36.7802L34.6256 36.8941L33.0151 37.1056L32.1204 36.3214L31.2582 33.5755C30.7376 32.0139 30.5359 29.9967 30.1195 29.9967C29.5989 29.9967 30.5779 27.4196 30.4936 26.9059C30.1195 24.625 29.1283 23.8956 28.7812 23.375L28.9482 22.0313L28.4114 21.6514L27.6468 21.3261L26.4375 21.7491L24.9375 21.6514L23.8728 21.7491L22.6039 21.3261L21.0422 19.8295L19.5781 17.487L20.0011 15.2908L19.7896 13.4852L21.0422 11.0776L22.6039 9.75989Z" fill="white"/>
<path d="M33.5322 35.6948C33.5182 35.6932 33.5044 35.6897 33.4912 35.6845C33.4874 35.6829 33.4833 35.6821 33.4791 35.6821H33.4466C33.4361 35.6807 33.426 35.6769 33.4171 35.6711C33.3963 35.6462 33.3697 35.6268 33.3396 35.6146C33.3452 35.6068 33.3485 35.5976 33.3494 35.588C33.3502 35.5782 33.3468 35.5686 33.3399 35.5617L33.3334 35.5552C33.3299 35.5517 33.3256 35.549 33.3209 35.5473C33.3048 35.5417 33.2884 35.537 33.2717 35.5332C33.2539 35.5304 33.236 35.5282 33.218 35.5267C33.2051 35.5258 33.1924 35.5242 33.1797 35.5218C33.185 35.5085 33.1875 35.4942 33.187 35.4798C33.187 35.4398 33.1625 35.4155 33.1215 35.4155H33.1085C33.0998 35.4154 33.0914 35.4188 33.0852 35.425L33.0787 35.4315C33.0725 35.4377 33.069 35.4461 33.069 35.455V35.4743C33.069 35.482 33.0704 35.4911 33.0722 35.5013C33.0736 35.5088 33.0755 35.5176 33.0755 35.5261C33.0521 35.5164 33.037 35.4935 33.0374 35.4682C33.0401 35.448 33.0502 35.4205 33.0591 35.3963C33.0687 35.3701 33.0764 35.3493 33.0764 35.3313V35.3183C33.0719 35.2743 33.0565 35.2321 33.0315 35.1956C33.0042 35.1594 32.979 35.1217 32.956 35.0827C32.955 35.0802 32.954 35.0778 32.9527 35.0755V35.0648C32.9528 35.0561 32.9493 35.0477 32.9431 35.0415C32.9359 35.0252 32.9169 35.0252 32.9069 35.0252C32.9012 35.0252 32.8972 35.0232 32.8949 35.0197C32.8949 35.0197 32.8937 35.0141 32.8942 35.0092C32.898 34.9801 32.9056 34.9516 32.9166 34.9245C32.9328 34.9358 32.9521 34.9417 32.9718 34.9416C33.0117 34.9416 33.0265 34.9187 33.0403 34.891C33.0414 34.889 33.0422 34.8869 33.0428 34.8847C33.0513 34.8524 33.0562 34.8192 33.0568 34.7859V34.7722C33.0543 34.6456 33.0165 34.5222 32.9475 34.4159C32.8391 34.246 32.7529 34.0629 32.6911 33.8711C32.6828 33.8421 32.6748 33.8112 32.667 33.7803C32.6512 33.7183 32.6348 33.6544 32.6125 33.5962C32.601 33.5646 32.5811 33.5332 32.56 33.4999C32.5308 33.4541 32.5008 33.4067 32.4905 33.3546C32.4875 33.3399 32.4751 33.329 32.4601 33.3281C32.4466 33.3273 32.4342 33.3204 32.4265 33.3093C32.4025 33.2793 32.3758 33.2528 32.3476 33.2248C32.3097 33.1872 32.2706 33.1485 32.2381 33.1016C32.1931 33.0323 32.1527 32.96 32.1173 32.8853C32.0999 32.8484 32.0899 32.8084 32.0878 32.7676C32.0832 32.7425 32.0741 32.7267 32.0653 32.7117C32.0546 32.6949 32.0465 32.6765 32.0413 32.6572C32.0372 32.6433 32.0354 32.6289 32.036 32.6145V32.5807C32.0387 32.5453 32.0255 32.5105 32.0001 32.4857C31.9939 32.4747 31.9906 32.4624 31.9905 32.4498V32.4051C31.9905 32.3763 31.984 32.3492 31.9773 32.3206C31.9715 32.298 31.9672 32.275 31.9642 32.2518C31.9614 32.2338 31.9593 32.2156 31.958 32.1973C31.9566 32.1776 31.9542 32.158 31.9507 32.1386C31.9462 32.1268 31.9441 32.1142 31.9447 32.1016C31.9448 32.0835 31.9466 32.0675 31.9482 32.0525C31.95 32.0378 31.9511 32.0231 31.9513 32.0085V31.989C31.9513 31.9863 31.951 31.9837 31.9505 31.9812C31.9283 31.8895 31.8971 31.8002 31.8572 31.7147C31.8468 31.6767 31.8413 31.6376 31.8408 31.5982V31.4426C31.8336 31.3885 31.8292 31.3338 31.8278 31.2792V31.2476C31.8301 31.2387 31.8321 31.2299 31.834 31.221C31.8403 31.192 31.8494 31.1508 31.8535 31.1222L31.8538 31.0785C31.8491 30.9851 31.8146 30.8957 31.7553 30.8235C31.7473 30.8113 31.7367 30.7967 31.7257 30.7816C31.7078 30.7569 31.6894 30.7316 31.6738 30.7045C31.6635 30.6853 31.6548 30.6653 31.6481 30.6446C31.6401 30.6222 31.6324 30.6012 31.6196 30.584C31.5371 30.4777 31.4929 30.3596 31.4503 30.2452C31.4243 30.1756 31.3974 30.1036 31.3624 30.0358C31.3319 29.9771 31.3083 29.9121 31.2856 29.8492C31.2409 29.7262 31.1947 29.599 31.0946 29.5123C30.9811 29.4143 30.9303 29.2796 30.9303 29.0756C30.9303 29.0604 30.9319 29.0452 30.9334 29.0301C30.9352 29.0128 30.9369 28.9953 30.9369 28.9781V28.9521C30.9369 28.8912 30.9434 28.8288 30.9499 28.7686C30.9563 28.709 30.9629 28.6473 30.9629 28.5879C30.9626 28.5735 30.9615 28.5591 30.9594 28.5448C30.9579 28.5332 30.9564 28.5214 30.9564 28.5098C30.9564 28.5057 30.9556 28.5016 30.9541 28.4978C30.948 28.4822 30.9443 28.4658 30.9433 28.4491L30.9456 28.4416C30.9577 28.4203 30.9736 28.4037 30.9876 28.389C31.0026 28.3731 31.0144 28.3606 31.0197 28.3447C31.0244 28.3307 31.0263 28.3138 31.0282 28.2961C31.0294 28.2836 31.0311 28.2698 31.0338 28.2561C31.0344 28.2422 31.0391 28.2288 31.0472 28.2176L31.0634 28.1864C31.0682 28.177 31.068 28.1658 31.0631 28.1564C31.0608 28.152 31.0598 28.147 31.0603 28.1421C31.0603 28.1012 31.0818 28.0446 31.0991 27.9989C31.1114 27.9659 31.1221 27.9373 31.1252 27.9162C31.1295 27.8904 31.1304 27.8626 31.1313 27.8358C31.1333 27.7792 31.1351 27.7258 31.1662 27.6752C31.1847 27.6431 31.1929 27.6073 31.1904 27.5712C31.1849 27.5427 31.1935 27.5134 31.2136 27.4924C31.2593 27.4511 31.2983 27.4028 31.3292 27.3493C31.3446 27.3092 31.3559 27.2729 31.3651 27.2368C31.3789 27.2032 31.4104 27.1802 31.4466 27.1771C31.4877 27.1771 31.5048 27.1639 31.5231 27.1364C31.5371 27.1058 31.5497 27.0806 31.5635 27.0564C31.6253 26.9414 31.656 26.8122 31.6522 26.6816C31.6529 26.6242 31.646 26.5671 31.6317 26.5116C31.6148 26.4419 31.5842 26.3763 31.5418 26.3184C31.5131 26.26 31.4909 26.1985 31.4757 26.1351C31.471 26.1197 31.4637 26.1052 31.4542 26.0922C31.4446 26.0774 31.4347 26.0622 31.4313 26.0438C31.434 26.0035 31.429 25.963 31.4166 25.9246L31.3951 25.8809C31.3929 25.8766 31.3898 25.8727 31.386 25.8697L31.3853 25.8651C31.385 25.8625 31.3843 25.86 31.3833 25.8576C31.3772 25.8421 31.3736 25.8258 31.3726 25.8092C31.3748 25.786 31.3896 25.766 31.4111 25.757C31.4149 25.7553 31.4185 25.7529 31.4214 25.75L31.4409 25.7305C31.4477 25.7257 31.4572 25.7192 31.4675 25.713C31.4857 25.7092 31.4962 25.6955 31.4962 25.6746V25.6291C31.495 25.5589 31.4754 25.4903 31.4395 25.4301C31.3946 25.3477 31.3587 25.2609 31.3322 25.171C31.3222 25.1442 31.3197 25.121 31.3172 25.0983C31.316 25.0778 31.312 25.0575 31.3052 25.0381C31.2965 25.0021 31.27 24.9711 31.242 24.9382C31.227 24.9207 31.2113 24.9026 31.198 24.8825C31.1622 24.8305 31.1395 24.7707 31.1317 24.7081C31.1305 24.6944 31.136 24.6811 31.1465 24.6722C31.1603 24.6605 31.162 24.6397 31.1502 24.6259C31.1484 24.6237 31.1462 24.6217 31.1438 24.6201C31.1225 24.6053 31.106 24.5845 31.0963 24.5605C31.0986 24.5506 31.0972 24.5402 31.0898 24.5328L31.0833 24.5263C31.0766 24.5186 31.073 24.5087 31.0733 24.4985C31.0753 24.4757 31.0793 24.4513 31.0855 24.4277C31.0875 24.4198 31.0865 24.4114 31.0827 24.4042C31.0811 24.4012 31.08 24.398 31.0795 24.3947C31.0799 24.3841 31.0722 24.3701 31.0632 24.3538C31.0528 24.3348 31.041 24.3132 31.041 24.2895C31.041 24.273 31.0288 24.2525 31.0123 24.2503C31.0061 24.2494 31.0006 24.2458 30.9975 24.2403C30.9956 24.2366 30.9927 24.2292 30.9898 24.222C30.9871 24.2149 30.9842 24.208 30.9811 24.2011C30.9759 24.1749 30.9693 24.149 30.9613 24.1236C30.9363 24.0291 30.8429 23.9443 30.7607 23.8696L30.7312 23.8426C30.6687 23.7943 30.6212 23.717 30.5793 23.6488C30.567 23.6284 30.5543 23.6083 30.5412 23.5883C30.4568 23.477 30.3612 23.3746 30.2558 23.2827L30.2476 23.2745V23.2722C30.2467 23.2626 30.2417 23.2538 30.2338 23.2482C30.2069 23.2291 30.186 23.2026 30.1738 23.1718C30.162 23.1506 30.1503 23.1293 30.1388 23.1078C30.1284 23.0877 30.1173 23.068 30.1055 23.0487L30.0892 23.027C30.0907 23.0231 30.0916 23.0191 30.0916 23.015V22.9695C30.0916 22.9646 30.0905 22.9597 30.0885 22.9553C30.0719 22.9203 30.0531 22.8864 30.0321 22.8538C30.0404 22.8437 30.0419 22.8297 30.0361 22.8181L29.9775 22.7011C29.9732 22.6929 29.9686 22.6849 29.9637 22.6771C29.9639 22.6703 29.9617 22.6636 29.9575 22.6583C29.9432 22.6418 29.9354 22.6207 29.9355 22.599C29.9357 22.5963 29.9361 22.5936 29.9367 22.591C29.9416 22.6037 29.9538 22.6122 29.9676 22.6122C29.9835 22.6122 30.0017 22.601 30.0061 22.586C30.0192 22.596 30.0377 22.5947 30.0493 22.5831C30.0565 22.5761 30.06 22.569 30.0621 22.5647C30.0908 22.532 30.1117 22.4931 30.123 22.451C30.1237 22.4482 30.1241 22.4454 30.1241 22.4426V22.4297C30.1241 22.4178 30.1228 22.4021 30.1213 22.3841C30.1191 22.3603 30.1179 22.3365 30.1176 22.3127C30.1136 22.2806 30.1245 22.2484 30.1471 22.2252L30.1598 22.2123C30.1727 22.1994 30.1727 22.1786 30.1598 22.1657L30.134 22.1397L30.1262 22.1325C30.1175 22.1246 30.1175 22.1246 30.1175 22.1175C30.1202 22.1162 30.1242 22.1113 30.1262 22.1093C30.1292 22.1065 30.1332 22.105 30.1373 22.105H30.1585C30.1662 22.105 30.17 22.106 30.1735 22.1077C30.1895 22.1162 30.2094 22.1101 30.2179 22.094C30.222 22.0864 30.2228 22.0775 30.2203 22.0692C30.2131 22.0445 30.2092 22.0189 30.2086 21.9932C30.2078 21.9846 30.209 21.976 30.2123 21.9681C30.2141 21.9639 30.2151 21.9595 30.2151 21.955C30.2152 21.9445 30.2112 21.9345 30.204 21.927C30.1975 21.9213 30.189 21.9157 30.1805 21.9157H30.177C30.1523 21.9157 30.1355 21.9051 30.1271 21.8882L30.1238 21.8807C30.1272 21.8513 30.1403 21.8235 30.1606 21.802C30.1711 21.7885 30.1803 21.7777 30.1887 21.7678C30.2021 21.7523 30.2127 21.7401 30.2181 21.7291C30.2198 21.7257 30.2209 21.7221 30.2213 21.7183C30.2233 21.7021 30.2286 21.6864 30.2367 21.6722C30.2446 21.6622 30.2541 21.648 30.2626 21.6335C30.2811 21.611 30.2818 21.5741 30.2827 21.5315C30.2835 21.5017 30.2841 21.4682 30.2921 21.4362C30.2936 21.4303 30.2934 21.424 30.2916 21.4182C30.2875 21.4053 30.2858 21.3917 30.2866 21.3782C30.2881 21.3495 30.2921 21.3207 30.2989 21.2927C30.3139 21.2487 30.3231 21.1997 30.3256 21.1502C30.3256 21.1173 30.3176 21.0847 30.3025 21.0553C30.2954 21.0369 30.2841 21.0204 30.2695 21.0072C30.2599 20.9981 30.2543 20.9855 30.2541 20.9722C30.2538 20.96 30.2469 20.949 30.236 20.9435C30.2309 20.941 30.2258 20.9388 30.2205 20.937C30.218 20.9343 30.213 20.932 30.2096 20.9303C30.201 20.9262 30.1956 20.9175 30.1956 20.908C30.1986 20.9011 30.2028 20.8948 30.2081 20.8895C30.2196 20.8831 30.23 20.875 30.2388 20.8653C30.2512 20.8519 30.2504 20.8311 30.237 20.8187C30.2309 20.8131 30.2229 20.81 30.2146 20.81H30.1821C30.1696 20.81 30.1582 20.8171 30.1526 20.8282L30.1459 20.8423C30.1348 20.8413 30.1249 20.8352 30.1191 20.8257C30.1131 20.816 30.1025 20.81 30.0911 20.81C30.0726 20.8096 30.0548 20.8031 30.0405 20.7915C30.0271 20.7827 30.017 20.7697 30.0119 20.7546C30.0051 20.7042 29.9943 20.6545 29.9796 20.6058C29.9745 20.5884 29.9562 20.5785 29.9388 20.5836C29.935 20.5847 29.9315 20.5865 29.9284 20.5888C29.913 20.5889 29.899 20.5999 29.8962 20.615H29.8829C29.8719 20.6153 29.8613 20.6114 29.8532 20.6041C29.8478 20.5978 29.8448 20.5898 29.8445 20.5815V20.5698C29.8445 20.5611 29.841 20.5528 29.8349 20.5466L29.8153 20.5271C29.8026 20.5142 29.7818 20.5141 29.7689 20.5268C29.7626 20.533 29.7591 20.5415 29.7591 20.5503C29.7591 20.5599 29.7536 20.5685 29.7451 20.5727C29.72 20.5793 29.6946 20.5848 29.6691 20.5893C29.6376 20.5976 29.6053 20.6018 29.5727 20.6018H29.5319C29.5267 20.6018 29.5217 20.603 29.5171 20.6053L29.4911 20.6185C29.4871 20.6203 29.4836 20.6223 29.4804 20.6243C29.4761 20.6224 29.4715 20.6215 29.4669 20.6215C29.4554 20.6218 29.4446 20.6264 29.4365 20.6345H29.4344C29.4292 20.6345 29.4242 20.6357 29.4196 20.638L29.4049 20.6452C29.3991 20.6345 29.388 20.6279 29.3759 20.6278H29.3696C29.3638 20.6236 29.3569 20.6214 29.3497 20.6215H29.3367C29.3186 20.6215 29.3039 20.6363 29.3039 20.6545L29.3024 20.658L29.3016 20.6571C29.2888 20.6442 29.268 20.6442 29.2551 20.657C29.2489 20.6627 29.2432 20.6694 29.2387 20.6766L29.23 20.6701C29.2172 20.6573 29.1965 20.6571 29.1836 20.6698L29.1769 20.6766L29.1704 20.6838C29.1655 20.6812 29.1601 20.6799 29.1546 20.68H29.083C29.0763 20.6758 29.0685 20.6738 29.0606 20.674C29.0503 20.674 29.0399 20.677 29.0338 20.6831L29.0265 20.6907C29.0185 20.6995 29.0186 20.6995 29.0116 20.6995C29.0061 20.6905 28.9975 20.6839 28.9874 20.681C28.9777 20.6784 28.9685 20.6738 28.9606 20.6676C28.9588 20.6662 28.9568 20.6649 28.9548 20.6638C28.9498 20.6613 28.946 20.6588 28.9422 20.6562C28.9358 20.6518 28.9292 20.6479 28.9223 20.6443C28.8807 20.6183 28.8475 20.5808 28.8268 20.5363C28.8023 20.5039 28.7875 20.465 28.7843 20.4245C28.7872 20.4177 28.7892 20.4105 28.7903 20.4032L28.794 20.396C28.8021 20.3796 28.7954 20.3598 28.779 20.3518C28.7738 20.3492 28.7679 20.348 28.762 20.3485L28.761 20.3463C28.7588 20.342 28.7578 20.337 28.7583 20.3321C28.7578 20.3247 28.759 20.3174 28.7619 20.3106C28.7696 20.2941 28.7625 20.2746 28.746 20.2669C28.7426 20.2653 28.7389 20.2643 28.7352 20.264C28.7263 20.2631 28.7177 20.2602 28.71 20.2556C28.7025 20.2518 28.7 20.2481 28.6999 20.2437C28.717 20.2486 28.7347 20.2386 28.7396 20.2216C28.7444 20.2045 28.7345 20.1867 28.7174 20.1819C28.7078 20.1792 28.6974 20.1811 28.6894 20.1871C28.6813 20.1846 28.6749 20.1783 28.6724 20.1701L28.6509 20.126C28.6009 20.0174 28.5108 19.9324 28.3994 19.8888C28.3524 19.8744 28.3035 19.8671 28.2543 19.8671H28.2248C28.2153 19.8671 28.203 19.8683 28.1892 19.87C28.1742 19.8716 28.1572 19.8736 28.1402 19.8736H28.1142L28.0753 19.8807C28.056 19.8848 28.0364 19.8869 28.0167 19.887L27.9517 19.8866C27.9381 19.8868 27.9246 19.888 27.9112 19.8902C27.9013 19.8915 27.8914 19.8931 27.8801 19.8931C27.873 19.8931 27.8661 19.8954 27.8604 19.8996H27.8476L27.8262 19.9036C27.8221 19.9013 27.8176 19.9 27.8129 19.8998L27.8097 19.9001C27.7909 19.903 27.7721 19.9058 27.7533 19.9082C27.7254 19.912 27.6975 19.9158 27.6785 19.9197L27.6504 19.925C27.5907 19.9358 27.5343 19.9462 27.4739 19.9517L27.4147 19.9583C27.3797 19.9681 27.3514 19.98 27.3244 19.9946C27.3128 20.0005 27.3023 20.0082 27.2932 20.0175C27.2798 20.0264 27.2685 20.0382 27.26 20.052C27.2583 20.055 27.257 20.0582 27.2562 20.0616C27.2473 20.0988 27.2148 20.1256 27.1765 20.1272H27.1648C27.1648 20.1272 27.1573 20.1222 27.1533 20.116C27.1441 20.102 27.1259 20.0972 27.1109 20.1047L27.0979 20.1112C27.0803 20.1191 27.0617 20.1246 27.0426 20.1275C26.9308 20.1436 26.852 20.1961 26.7688 20.2517C26.7443 20.268 26.7192 20.2846 26.6923 20.3011C26.6523 20.3265 26.6088 20.3366 26.5667 20.3462C26.5381 20.352 26.5101 20.36 26.4828 20.3701C26.4381 20.3827 26.3952 20.401 26.3549 20.4242C26.352 20.4259 26.3494 20.428 26.3472 20.4305C26.3209 20.4587 26.2905 20.4828 26.2572 20.5022C26.2452 20.5071 26.2325 20.5101 26.2196 20.511C26.2022 20.5093 26.186 20.5013 26.1742 20.4885C26.1368 20.455 26.0902 20.4336 26.0404 20.427C26.0289 20.4237 26.0172 20.4213 26.0054 20.4197C25.9967 20.4185 25.987 20.417 25.9762 20.4143C25.9603 20.4129 25.9456 20.4053 25.9353 20.3931C25.9264 20.3821 25.9114 20.378 25.8982 20.383L25.8944 20.3842C25.8793 20.3722 25.8654 20.3587 25.8532 20.3437L25.8482 20.334C25.84 20.3177 25.8202 20.3111 25.8039 20.3193C25.7975 20.3224 25.7924 20.3276 25.7892 20.334L25.7826 20.347C25.7722 20.36 25.7565 20.3676 25.7399 20.3678H25.7319C25.707 20.3685 25.6824 20.3615 25.6617 20.3476C25.6505 20.3399 25.6358 20.3399 25.6246 20.3475L25.6179 20.3483C25.6075 20.3481 25.5973 20.3451 25.5883 20.3398C25.5832 20.3368 25.5774 20.3352 25.5715 20.3352H25.5455C25.4559 20.3393 25.3667 20.3505 25.2788 20.3685C25.2663 20.3716 25.2551 20.3735 25.2438 20.3745H25.2425C25.235 20.3747 25.2274 20.3734 25.2204 20.3705C25.2092 20.3656 25.1962 20.3674 25.1867 20.3751C25.0825 20.3801 24.9792 20.3977 24.8792 20.4276C24.8439 20.4412 24.8124 20.4595 24.779 20.4788C24.7249 20.5101 24.669 20.5426 24.6053 20.5501C24.5312 20.5653 24.4623 20.5994 24.4053 20.6491C24.3944 20.6632 24.3781 20.6721 24.3603 20.6735C24.3528 20.6695 24.3444 20.6672 24.3359 20.6668H24.3099C24.2724 20.6648 24.2359 20.6532 24.2042 20.6331C24.1782 20.6181 24.1507 20.6061 24.122 20.5971C24.0884 20.5852 24.0538 20.573 24.0245 20.5503C23.985 20.5191 23.9404 20.4948 23.8973 20.4715C23.8375 20.439 23.776 20.4052 23.722 20.3515C23.6778 20.3072 23.6365 20.2577 23.5968 20.2096C23.5515 20.1551 23.5049 20.0988 23.453 20.0498C23.4448 20.037 23.4265 20.0283 23.3986 20.015L23.3688 20.0006C23.3315 19.9836 23.2961 19.9629 23.263 19.9386C23.2496 19.9296 23.2402 19.9157 23.2368 19.8998C23.2345 19.8886 23.2264 19.8793 23.2155 19.8755C23.2006 19.8701 23.1869 19.8616 23.1755 19.8505C23.1627 19.8412 23.1547 19.8346 23.1472 19.8285C23.1355 19.819 23.1255 19.8107 23.1152 19.8055C23.0884 19.7953 23.0657 19.7768 23.0504 19.7526C23.0352 19.7255 23.0156 19.7012 22.9924 19.6805C22.9899 19.6781 22.987 19.6762 22.9838 19.6748C22.8778 19.6276 22.7757 19.5722 22.6782 19.5093C22.6779 19.4914 22.6633 19.4769 22.6453 19.4768H22.6323C22.5995 19.4706 22.5673 19.4618 22.5358 19.4506C22.5395 19.4452 22.5416 19.4388 22.5417 19.4322H22.5477C22.5659 19.4321 22.5805 19.4172 22.5804 19.3989C22.5802 19.3864 22.5731 19.3751 22.5619 19.3696C22.5577 19.3676 22.5538 19.365 22.5503 19.3618C22.5446 19.3567 22.5374 19.3537 22.5298 19.3533C22.5274 19.3532 22.5252 19.3519 22.5239 19.3498C22.5227 19.3477 22.5212 19.3458 22.5195 19.344C22.5173 19.3416 22.5157 19.3387 22.5152 19.3355C22.5113 19.3222 22.51 19.3142 22.5087 19.3061C22.507 19.2945 22.5044 19.283 22.5009 19.2718C22.4949 19.2511 22.4911 19.2299 22.4895 19.2083C22.4883 19.1911 22.474 19.1777 22.4567 19.1777C22.4405 19.178 22.4237 19.1732 22.4103 19.1641C22.3958 19.1527 22.3867 19.1357 22.3854 19.1173C22.3871 19.1075 22.3903 19.0981 22.3949 19.0892L22.4017 19.076C22.4061 19.0671 22.4063 19.0566 22.4022 19.0476C22.3964 19.0348 22.393 19.021 22.392 19.007C22.392 18.9967 22.3984 18.9851 22.4089 18.9787C22.4111 18.9774 22.4131 18.9758 22.4149 18.974L22.4214 18.9673C22.4343 18.9544 22.4342 18.9335 22.4212 18.9207C22.4183 18.9178 22.4149 18.9155 22.4111 18.9138C22.4022 18.91 22.3938 18.9049 22.3861 18.8988C22.3825 18.8959 22.3782 18.8938 22.3736 18.8926L22.3724 18.8816L22.3725 18.8596C22.3725 18.8569 22.3722 18.8543 22.3715 18.8517L22.366 18.8295V18.7945C22.366 18.7763 22.3513 18.7617 22.3331 18.7616L22.327 18.7617C22.3265 18.7475 22.3203 18.7342 22.3098 18.7246C22.3047 18.72 22.3006 18.7145 22.2975 18.7084C22.2933 18.6998 22.2855 18.6935 22.2763 18.6911C22.2733 18.6883 22.2704 18.6853 22.2675 18.6824L22.2658 18.6774C22.2626 18.67 22.2613 18.662 22.2619 18.654V18.632C22.2619 18.6138 22.2472 18.599 22.229 18.599H22.2159C22.2186 18.5841 22.2109 18.5693 22.1971 18.563C22.1831 18.5566 22.1696 18.5489 22.1569 18.54C22.1405 18.5316 22.1326 18.5197 22.1319 18.5065C22.1309 18.4907 22.1189 18.4777 22.1031 18.4757L22.071 18.4717C22.0609 18.4571 22.0479 18.4448 22.0328 18.4355C22.0057 18.4228 21.9799 18.4077 21.9555 18.3905C21.9442 18.384 21.9371 18.372 21.9369 18.359C21.937 18.3408 21.9222 18.3259 21.904 18.3259C21.9079 18.3161 21.9113 18.3082 21.9146 18.3004C21.9198 18.2889 21.9245 18.2772 21.9286 18.2654C21.9345 18.2481 21.9251 18.2294 21.9079 18.2236C21.9045 18.2224 21.901 18.2219 21.8974 18.2219C21.8886 18.2219 21.8738 18.2254 21.8676 18.2315L21.8609 18.2382C21.8558 18.2295 21.847 18.2235 21.837 18.2221L21.7915 18.2157C21.7783 18.2123 21.7687 18.2008 21.7678 18.1871L21.7611 18.1592C21.7593 18.1275 21.7479 18.0972 21.7284 18.0721C21.7239 18.0663 21.7176 18.0621 21.7105 18.0602C21.7105 18.0602 21.7076 18.0575 21.7061 18.056C21.6941 18.0438 21.6746 18.0429 21.6615 18.054C21.6576 18.0507 21.6535 18.0477 21.649 18.0452L21.6466 18.0432L21.6538 18.029C21.6587 18.0191 21.6584 18.0073 21.6529 17.9977C21.6514 17.9951 21.6507 17.9922 21.6508 17.9892C21.6518 17.9782 21.6549 17.9675 21.66 17.9577C21.6625 17.9531 21.6638 17.9479 21.6638 17.9427C21.6638 17.9346 21.6621 17.9265 21.6589 17.919C21.6471 17.8995 21.6399 17.8775 21.6377 17.8548C21.6419 17.848 21.6442 17.8401 21.6443 17.8321C21.6442 17.8139 21.6293 17.7992 21.6111 17.7993C21.6025 17.7993 21.5942 17.8028 21.588 17.8088L21.578 17.8188C21.5485 17.8357 21.5151 17.8447 21.4811 17.8447C21.4779 17.8295 21.4641 17.8187 21.4486 17.8187C21.4386 17.8187 21.4292 17.814 21.4231 17.806C21.4203 17.8022 21.4167 17.7991 21.4126 17.7968L21.4066 17.7848C21.3996 17.7709 21.3838 17.7638 21.3687 17.7677L21.3572 17.741C21.3578 17.7389 21.3581 17.7368 21.3581 17.7347V17.7216C21.362 17.7134 21.3642 17.7046 21.3646 17.6956C21.3646 17.6788 21.3519 17.6646 21.3351 17.6629C21.3181 17.661 21.3024 17.6531 21.2907 17.6406C21.2881 17.6377 21.2849 17.6353 21.2814 17.6335C21.2752 17.6304 21.2696 17.6263 21.2649 17.6212C21.258 17.6138 21.2482 17.6099 21.2381 17.6106C21.2367 17.6074 21.2348 17.6044 21.2325 17.6018C21.2294 17.5984 21.2268 17.5946 21.2249 17.5905C21.2188 17.5807 21.2153 17.5696 21.2149 17.5581C21.2153 17.5546 21.2169 17.5513 21.2194 17.5487C21.225 17.5427 21.2281 17.5347 21.2281 17.5265C21.2281 17.5178 21.2261 17.5093 21.2224 17.5015C21.2223 17.4973 21.2219 17.4932 21.2211 17.4891C21.2205 17.4855 21.2213 17.4817 21.2232 17.4786C21.2311 17.4656 21.2291 17.449 21.2184 17.4382L21.2117 17.4316C21.209 17.4285 21.2077 17.4243 21.2082 17.4201C21.2102 17.3901 21.2161 17.3626 21.2259 17.3365C21.2273 17.3328 21.228 17.3288 21.228 17.3248C21.228 17.3179 21.2269 17.3111 21.2249 17.3045C21.2154 17.2842 21.21 17.2623 21.2087 17.24C21.2265 17.2361 21.2377 17.2186 21.2338 17.2008C21.2331 17.1977 21.232 17.1947 21.2305 17.192C21.2331 17.1901 21.2356 17.188 21.2379 17.1857L21.2435 17.1821C21.26 17.1821 21.2841 17.1701 21.2862 17.1536C21.2871 17.1474 21.2908 17.142 21.2962 17.1388C21.312 17.1297 21.3173 17.1094 21.3081 17.0937C21.3065 17.091 21.3046 17.0886 21.3024 17.0865C21.2928 17.0773 21.2803 17.0718 21.2671 17.0708C21.2669 17.053 21.2525 17.0386 21.2346 17.0383C21.2344 17.0274 21.2288 17.0172 21.2196 17.0112C21.213 16.9512 21.1974 16.8925 21.1732 16.8371C21.1522 16.7738 21.1071 16.7212 21.0476 16.6908C21.0413 16.6876 21.034 16.6864 21.027 16.6876C21.0175 16.6892 21.0084 16.6924 21 16.6971C21.0025 16.693 21.0055 16.6892 21.0091 16.686C21.021 16.6746 21.0338 16.6656 21.0476 16.6585C21.0649 16.6481 21.0804 16.6403 21.0927 16.6342C21.1106 16.6253 21.1203 16.6205 21.1274 16.6133C21.1955 16.5396 21.2507 16.4548 21.2904 16.3626C21.2921 16.3584 21.293 16.354 21.293 16.3495C21.3059 16.3094 21.3184 16.2692 21.3305 16.2288C21.3335 16.2243 21.3357 16.2153 21.3376 16.2078C21.3385 16.2035 21.3399 16.1992 21.3416 16.1951C21.3438 16.1908 21.345 16.1861 21.3451 16.1813C21.3484 16.0576 21.3924 15.9455 21.4351 15.837C21.4724 15.7418 21.5111 15.6435 21.5206 15.5396C21.526 15.5102 21.5282 15.4773 21.5271 15.4443C21.5246 15.3451 21.5159 15.2461 21.5009 15.148C21.5014 15.0985 21.4889 15.0498 21.4645 15.0068C21.456 14.9955 21.4464 14.9851 21.4357 14.9758C21.4132 14.9551 21.3879 14.9317 21.384 14.897C21.391 14.8939 21.3968 14.8885 21.4002 14.8816L21.4196 14.8426C21.4278 14.8264 21.4214 14.8066 21.4052 14.7984L21.4035 14.7976V14.793C21.4053 14.7658 21.4178 14.7405 21.4381 14.7225L21.4719 14.6885C21.4912 14.6706 21.5019 14.6452 21.5011 14.6188C21.4909 14.5581 21.4695 14.4997 21.438 14.4467C21.4287 14.431 21.4085 14.4258 21.3928 14.4351C21.3892 14.4373 21.386 14.44 21.3835 14.4433L21.3824 14.4427C21.3528 14.4155 21.3327 14.3796 21.3249 14.3402C21.3241 14.3363 21.3226 14.3325 21.3205 14.3291C21.3108 14.3135 21.3034 14.2967 21.2984 14.2791C21.2945 14.2653 21.2821 14.2556 21.2677 14.2551H21.2665C21.2527 14.2551 21.2404 14.2638 21.2356 14.2767C21.2281 14.2973 21.2216 14.3183 21.216 14.3397H21.2146C21.2122 14.3397 21.2098 14.3399 21.2074 14.3403C21.2036 14.3256 21.2018 14.3103 21.202 14.2951C21.2114 14.2076 21.2306 14.118 21.2589 14.0317C21.2596 14.0294 21.2601 14.027 21.2604 14.0246C21.2667 13.9605 21.2874 13.8986 21.3209 13.8435C21.3431 13.8167 21.3699 13.7942 21.4001 13.7768C21.4337 13.7545 21.4581 13.7247 21.4726 13.6893C21.4784 13.671 21.4833 13.6525 21.4872 13.6337L21.4936 13.6067C21.4979 13.5828 21.5117 13.5617 21.5319 13.5482C21.5411 13.5421 21.5466 13.5318 21.5466 13.5207V13.5012C21.55 13.4875 21.5559 13.4677 21.5637 13.4487C21.5684 13.4438 21.5725 13.4386 21.5762 13.433C21.5917 13.4121 21.6129 13.3838 21.6314 13.3517C21.6509 13.3305 21.666 13.305 21.6751 13.2775C21.68 13.2626 21.6738 13.2462 21.6601 13.2385L21.6419 13.228C21.6839 13.1541 21.7552 13.0926 21.8246 13.033C21.8569 13.0053 21.8872 12.9792 21.9142 12.9522C21.9905 12.876 22.0079 12.7935 22.0261 12.706C22.0369 12.6551 22.0479 12.6025 22.0711 12.5445L22.0869 12.5003C22.1265 12.3885 22.1675 12.2728 22.2779 12.2097C22.4226 12.127 22.492 12.0685 22.5461 11.9192C22.5602 11.8782 22.5771 11.8381 22.5966 11.7992L22.6161 11.7601C22.6207 11.751 22.6208 11.7403 22.6164 11.7311L22.6239 11.7223C22.6267 11.721 22.6293 11.7193 22.6317 11.7173C22.6337 11.7165 22.6357 11.7155 22.6375 11.7143C22.6538 11.7035 22.667 11.6846 22.6797 11.6665C22.687 11.6562 22.6939 11.6458 22.701 11.6387C22.7073 11.6313 22.7146 11.625 22.7229 11.62C22.7662 11.6087 22.8078 11.6017 22.8482 11.595C22.8717 11.5912 22.8949 11.5873 22.9183 11.5827C23.0439 11.5669 23.1621 11.5146 23.2583 11.4323C23.314 11.3807 23.3722 11.3338 23.4283 11.2886C23.4654 11.2586 23.5023 11.2288 23.538 11.1982C23.6244 11.115 23.7025 11.0237 23.7713 10.9255C23.8244 10.8595 23.8599 10.7811 23.8743 10.6976C23.8781 10.6647 23.8652 10.6321 23.84 10.6106C23.8295 10.5962 23.8151 10.585 23.7987 10.5781C23.7934 10.574 23.7904 10.5678 23.7903 10.5612C23.7907 10.5513 23.7936 10.5417 23.7987 10.5332C23.8188 10.4815 23.827 10.426 23.8227 10.3707C23.8288 10.2358 23.883 10.1632 23.9713 10.0561C24.0008 10.0168 24.0063 9.97897 24.0122 9.93872C24.0159 9.91359 24.0198 9.88747 24.0294 9.85622C24.0489 9.80659 24.081 9.76272 24.1227 9.72922C24.1469 9.70697 24.1685 9.68409 24.1907 9.66059C24.2432 9.60484 24.2975 9.54709 24.3754 9.51259C24.4108 9.49684 24.4467 9.48172 24.4824 9.46672C24.5642 9.43234 24.6487 9.39672 24.7228 9.35509C24.9259 9.23722 25.0314 8.96009 25.1162 8.73747L25.1277 8.70747C25.135 8.668 25.1495 8.63021 25.1704 8.59597C25.1751 8.58975 25.1824 8.58591 25.1902 8.58547H25.2009C25.2359 8.58375 25.2701 8.57468 25.3013 8.55884C25.3085 8.55784 25.3144 8.55597 25.3185 8.55459L25.3222 8.55445C25.3347 8.55445 25.3422 8.56057 25.3452 8.5692C25.3545 8.58757 25.3602 8.6007 25.3645 8.6142C25.3837 8.67357 25.4233 8.72395 25.4763 8.7562C25.5278 8.79282 25.5905 8.81307 25.656 8.81307C25.7082 8.81132 25.7595 8.80682 25.8102 8.7997L25.8382 8.80005C25.8609 8.80005 25.8838 8.80168 25.9057 8.80343C25.9277 8.80493 25.9487 8.80655 25.9682 8.80655C26.0159 8.8008 26.0658 8.79455 26.1007 8.74643L26.1062 8.74768C26.1087 8.76518 26.1132 8.78231 26.1197 8.79868C26.1235 8.80868 26.1322 8.81618 26.1425 8.81868C26.16 8.83993 26.1863 8.85218 26.2138 8.85206H26.215C26.2309 8.85282 26.2466 8.84853 26.2599 8.83981C26.2599 8.83981 26.2678 8.8388 26.274 8.8388C26.2895 8.84055 26.3028 8.84555 26.314 8.85305C26.3201 8.85713 26.3274 8.85908 26.3348 8.85855C26.4166 8.85233 26.4959 8.82708 26.5663 8.7848C26.5853 8.7798 26.6036 8.7728 26.6208 8.7638C26.636 8.75432 26.6491 8.74166 26.659 8.72667C26.6753 8.69086 26.7013 8.66032 26.734 8.63855C26.7549 8.62105 26.7765 8.61042 26.7993 8.6058C26.8052 8.60763 26.8108 8.61015 26.8161 8.6133C26.8249 8.61843 26.8354 8.61942 26.8449 8.6158C26.8695 8.6063 26.8911 8.5908 26.9079 8.5703C26.9167 8.56466 26.9266 8.56103 26.9369 8.55968C26.9644 8.56318 26.9918 8.56918 27.0183 8.57743C27.0215 8.57844 27.0249 8.57895 27.0283 8.57893C27.0548 8.57893 27.0701 8.5618 27.0889 8.53043C27.1719 8.37105 27.4408 8.32018 27.5526 8.30555C27.5903 8.30293 27.6301 8.29655 27.6685 8.2903C27.7204 8.28193 27.774 8.2733 27.828 8.2733H27.867C27.9013 8.2698 27.9311 8.25893 27.957 8.24168C27.9772 8.22216 28.0035 8.21031 28.0315 8.20818C28.0353 8.20892 28.044 8.21193 28.0515 8.21643C28.0645 8.22437 28.0812 8.22235 28.0919 8.21155L28.0956 8.2083H28.1466C28.1722 8.20736 28.1976 8.20511 28.2229 8.20155C28.2252 8.2012 28.2276 8.20056 28.2298 8.19967C28.2837 8.17938 28.3408 8.16901 28.3984 8.16905L28.5499 8.16933C28.6071 8.16933 28.6614 8.19133 28.7024 8.23146C28.715 8.24821 28.7385 8.25983 28.7638 8.26033C28.7848 8.26033 28.8 8.24908 28.815 8.23821C28.819 8.23521 28.8234 8.23196 28.8281 8.22871C28.8499 8.21196 28.8735 8.20083 28.8981 8.19533C28.925 8.19533 28.9519 8.19296 28.9784 8.18834C29.0034 8.18409 29.0278 8.17684 29.0509 8.16646C29.0628 8.16118 29.0705 8.14938 29.0705 8.13634V8.12334C29.0701 8.11536 29.0733 8.10761 29.0791 8.10221C29.082 8.0992 29.086 8.09749 29.0901 8.09746C29.1263 8.09834 29.1561 8.10771 29.1819 8.12471C29.2149 8.14846 29.255 8.16184 29.2969 8.16284C29.3263 8.1622 29.3528 8.15321 29.3754 8.13709C29.3865 8.12774 29.395 8.11568 29.4001 8.10209C29.4023 8.09459 29.4068 8.09109 29.4119 8.09109L29.4205 8.09284C29.4255 8.09446 29.4326 8.09684 29.4418 8.09759C29.4584 8.10259 29.4734 8.10984 29.4879 8.11671C29.5094 8.12709 29.5296 8.13671 29.5513 8.13671H29.5533C29.5463 8.15354 29.5542 8.17286 29.5711 8.17986C29.5745 8.18129 29.5782 8.18213 29.5819 8.18234L29.5923 8.18262C29.6105 8.18262 29.6285 8.17975 29.6458 8.17437C29.6733 8.16612 29.7025 8.16612 29.7309 8.16612C29.762 8.16612 29.7914 8.16612 29.8189 8.15587C29.8236 8.15559 29.8282 8.15454 29.8326 8.15287L29.8386 8.14975H29.8439C29.8496 8.14979 29.8553 8.14832 29.8603 8.1455C29.8627 8.14405 29.8655 8.14327 29.8684 8.14325C29.8776 8.14327 29.8865 8.13984 29.8933 8.13362C29.9005 8.13057 29.9072 8.12616 29.9128 8.12063C29.9567 8.07241 30.0146 8.03918 30.0784 8.02562C30.1085 8.01275 30.1404 8.00413 30.1729 8C30.1773 8.00028 30.1829 8.00125 30.1876 8.00375C30.192 8.0057 30.1966 8.00673 30.2014 8.00675C30.2066 8.01587 30.2159 8.0225 30.2261 8.02525C30.2391 8.0285 30.2506 8.03038 30.2614 8.032C30.271 8.0335 30.2799 8.03462 30.2886 8.03749C30.3036 8.04512 30.3149 8.05849 30.3196 8.07462C30.3205 8.07748 30.3218 8.08022 30.3234 8.08274C30.3199 8.08929 30.3181 8.09659 30.3181 8.10399C30.3181 8.11524 30.3241 8.12587 30.3339 8.13187C30.3444 8.1384 30.3507 8.1499 30.3506 8.16224C30.3471 8.17199 30.3441 8.17912 30.3441 8.18837C30.3441 8.20662 30.3589 8.22137 30.3771 8.22137C30.3824 8.22137 30.3941 8.22012 30.3988 8.21762C30.4325 8.20012 30.4638 8.17825 30.4918 8.1525C30.5044 8.14674 30.516 8.135 30.5305 8.12062C30.5384 8.11062 30.5468 8.10562 30.5553 8.1045C30.5598 8.10679 30.5645 8.10856 30.5694 8.10974C30.5869 8.11849 30.5979 8.13637 30.5978 8.15599C30.5983 8.17245 30.5935 8.18863 30.584 8.20212C30.5543 8.24324 30.5193 8.28024 30.4799 8.31237C30.4219 8.36212 30.3961 8.39987 30.3961 8.43549C30.3933 8.50724 30.4265 8.57087 30.4831 8.60649C30.5123 8.62199 30.5368 8.64049 30.5579 8.66274C30.5716 8.69087 30.5809 8.72087 30.585 8.75199C30.5905 8.77062 30.5921 8.78399 30.5913 8.79762C30.5913 8.88774 30.5325 8.99012 30.4339 9.07362C30.4149 9.08949 30.3933 9.10237 30.3723 9.11487C30.3532 9.1257 30.3349 9.13781 30.3175 9.15112C30.2835 9.17824 30.2531 9.20612 30.2531 9.24837C30.2554 9.28262 30.2665 9.31337 30.2855 9.33937C30.3055 9.36762 30.3311 9.39149 30.3611 9.40987C30.3689 9.42437 30.3869 9.42437 30.3966 9.42437C30.4054 9.42437 30.413 9.42274 30.4204 9.42125C30.4285 9.41963 30.4369 9.41787 30.4488 9.41787C30.467 9.41787 30.4818 9.40309 30.4818 9.38487V9.36537C30.4818 9.35387 30.485 9.34537 30.4868 9.34362C30.4891 9.34305 30.4912 9.34205 30.4931 9.34075C30.5006 9.33563 30.5095 9.33288 30.5185 9.33287L30.5293 9.33323L30.5369 9.33287C30.5475 9.33293 30.5581 9.3347 30.5681 9.33812C30.5681 9.33812 30.5711 9.34399 30.572 9.35024C30.5724 9.35927 30.5688 9.36801 30.5623 9.37424C30.5492 9.38697 30.549 9.40786 30.5617 9.42091C30.5679 9.42727 30.5764 9.43086 30.5853 9.43087C30.5915 9.43212 30.5978 9.44049 30.5978 9.45012V9.47599C30.5978 9.48512 30.6017 9.49399 30.6084 9.50024C30.6135 9.50487 30.6177 9.51043 30.6208 9.51662C30.6233 9.52175 30.6272 9.52612 30.632 9.52924C30.6353 9.53151 30.6371 9.53531 30.6368 9.53924C30.6358 9.55744 30.6498 9.57298 30.668 9.57395L30.6698 9.57399H30.6858C30.697 9.57399 30.703 9.57524 30.7088 9.57774C30.7128 9.57948 30.7172 9.58037 30.7216 9.58037L30.7229 9.58137L30.731 9.59024L30.7375 9.59687C30.7728 9.62375 30.8108 9.63987 30.8508 9.65687C30.8808 9.66975 30.9117 9.68287 30.9389 9.69937C30.9874 9.73239 31.0447 9.74995 31.1033 9.74975L31.151 9.7496C31.1546 9.74957 31.1581 9.74896 31.1614 9.74785C31.2115 9.73131 31.2628 9.71886 31.3149 9.7106C31.3303 9.71186 31.3455 9.71548 31.3599 9.72123C31.3929 9.73435 31.4274 9.74148 31.4608 9.74823C31.4975 9.75573 31.5353 9.76335 31.574 9.77948C31.5997 9.79235 31.6253 9.8091 31.6503 9.82523C31.6822 9.84598 31.7123 9.8656 31.7442 9.87748C31.7642 9.88423 31.7867 9.88473 31.8104 9.88523C31.8462 9.8861 31.8869 9.88698 31.9209 9.90735C31.9634 9.94585 31.9924 10.0062 31.9961 10.0696C32.0048 10.1495 32.0438 10.223 32.1052 10.275C32.1869 10.3412 32.2798 10.3497 32.378 10.3587C32.4169 10.3622 32.457 10.3659 32.4977 10.3732C32.6539 10.401 32.8025 10.4613 32.9338 10.5502C32.9521 10.5661 32.9721 10.5852 32.9918 10.6041C33.0602 10.6696 33.1249 10.7314 33.2124 10.7314H33.2254C33.385 10.7139 33.5183 10.6018 33.5627 10.4475C33.5635 10.4445 33.5639 10.4414 33.5639 10.4384V10.4189C33.5639 10.4164 33.5636 10.4137 33.5631 10.4114C33.5508 10.3593 33.5325 10.3088 33.5086 10.261C33.4952 10.2169 33.4876 10.1712 33.4861 10.1251C33.4871 10.1039 33.4911 10.0802 33.4977 10.0576C33.5321 9.98338 33.586 9.91987 33.6537 9.87385C33.7168 9.81843 33.7955 9.78401 33.8791 9.77535C33.9083 9.77535 33.9356 9.7611 33.9614 9.74723C33.9868 9.73373 34.013 9.71973 34.0476 9.71685C34.068 9.71257 34.0888 9.71035 34.1097 9.71023L34.1214 9.71051C34.1307 9.71023 34.1369 9.71001 34.1432 9.71001C34.1753 9.71001 34.2071 9.71414 34.2379 9.72251C34.3057 9.74439 34.3742 9.77226 34.4398 9.80464C34.4636 9.81326 34.4816 9.82401 34.4973 9.83839C34.5041 9.84418 34.5075 9.85303 34.5063 9.86189L34.506 9.91164C34.506 9.94501 34.5338 9.95889 34.563 9.97364C34.565 9.97462 34.5671 9.97542 34.5693 9.97601C34.5971 9.98351 34.6255 9.98826 34.6539 9.99014C34.7239 10.0027 34.7922 10.0236 34.8573 10.0524C34.885 10.0594 34.9076 10.062 34.9301 10.062L34.9441 10.0617C34.9599 10.0617 34.977 10.06 34.9941 10.0583C35.0094 10.0568 35.0245 10.0552 35.0396 10.0552L35.0493 10.0549C35.0628 10.0549 35.0763 10.0567 35.0893 10.0604C35.1126 10.0673 35.1328 10.082 35.1465 10.1021C35.1508 10.1132 35.1561 10.1221 35.161 10.1302C35.1653 10.1374 35.1689 10.1434 35.171 10.1496C35.1721 10.1529 35.1737 10.156 35.1758 10.1589V10.1914C35.1758 10.2097 35.1774 10.2195 35.192 10.2341C35.2081 10.2504 35.2258 10.2504 35.2413 10.2504C35.2723 10.2519 35.3031 10.2466 35.3319 10.2347C35.3529 10.2297 35.3794 10.2257 35.4056 10.2241C35.4606 10.229 35.5206 10.2376 35.5794 10.2496C35.6784 10.2624 35.7754 10.2816 35.8699 10.3076C35.8862 10.3114 35.9007 10.3209 35.9106 10.3344C35.924 10.3501 35.9381 10.3614 35.9541 10.3699C35.9692 10.3768 35.9856 10.3805 36.0023 10.3806L36.0119 10.3803C36.0213 10.3803 36.0311 10.3784 36.041 10.3765C36.0473 10.3753 36.0533 10.3738 36.0606 10.3738C36.0771 10.3738 36.0869 10.3786 36.0928 10.3866C36.096 10.391 36.1003 10.3944 36.105 10.3966C36.1093 10.3986 36.1132 10.4012 36.1166 10.4044C36.1227 10.4098 36.1305 10.4129 36.1386 10.4129C36.1496 10.4129 36.1608 10.4141 36.1724 10.4155C36.188 10.4174 36.2046 10.4193 36.2233 10.4193C36.2764 10.4259 36.3206 10.4459 36.3633 10.4654C36.3991 10.4816 36.433 10.497 36.4714 10.5034L36.5029 10.5039C36.5826 10.4948 36.6571 10.4594 36.7145 10.4034C36.7451 10.3783 36.7765 10.3491 36.8058 10.3186C36.8092 10.321 36.8128 10.3231 36.8165 10.3249C36.8283 10.3364 36.8465 10.338 36.8601 10.3286C36.8853 10.3107 36.9048 10.286 36.9164 10.2574C36.9244 10.2613 36.9331 10.2634 36.9421 10.2634C36.9421 10.2634 36.9484 10.264 36.9513 10.264C36.9688 10.264 36.9853 10.2568 37.0025 10.249C37.0219 10.2404 37.0438 10.2308 37.0686 10.2308H37.088C37.1015 10.2308 37.113 10.2226 37.1183 10.211H37.1208C37.1538 10.2135 37.1823 10.223 37.207 10.2386C37.2303 10.2541 37.2565 10.2645 37.284 10.2693L37.2963 10.2698C37.3073 10.2698 37.3163 10.2653 37.3288 10.259C37.3356 10.2556 37.3439 10.2514 37.3521 10.2486C37.3544 10.2479 37.3565 10.2469 37.3585 10.2456C37.3674 10.2404 37.3775 10.2375 37.3879 10.2373C37.3942 10.2403 37.401 10.2424 37.408 10.2435C37.423 10.2473 37.4355 10.2573 37.4423 10.271C37.4551 10.2906 37.4675 10.3055 37.4813 10.3189C37.4858 10.3234 37.4915 10.3264 37.4978 10.3276C37.5308 10.3344 37.5613 10.3498 37.5865 10.372C37.6128 10.3968 37.648 10.4115 37.6851 10.4128H37.6994C37.7043 10.4128 37.7091 10.4118 37.7135 10.4096C37.7228 10.4053 37.7324 10.4014 37.7421 10.3983C37.7579 10.392 37.7726 10.3885 37.7875 10.3871C37.7928 10.3886 37.7978 10.3907 37.8026 10.3933L37.8061 10.3966C37.8149 10.4055 37.828 10.4086 37.8399 10.4046C37.8675 10.3954 37.8949 10.3946 37.9214 10.3939C37.9454 10.3933 37.9701 10.3926 37.9946 10.3855C38.0499 10.3714 38.1017 10.3457 38.1464 10.3103L38.4154 11.0158C38.3759 11.0658 38.3651 11.137 38.3539 11.2123C38.3458 11.2663 38.3373 11.322 38.3189 11.3694C38.3012 11.4108 38.2938 11.456 38.2973 11.5009V11.5309C38.2931 11.5545 38.284 11.577 38.2704 11.5968C38.2543 11.6155 38.2438 11.6383 38.2399 11.6626L38.2254 11.6729C38.2137 11.666 38.2018 11.6593 38.1898 11.6529C38.1715 11.643 38.1519 11.6325 38.1339 11.6205C38.0907 11.5882 38.0543 11.5476 38.0269 11.5011C38.0015 11.4703 37.9722 11.4429 37.9398 11.4195C37.8026 11.3348 37.502 11.0868 37.8894 11.5203C37.9226 11.5484 37.9514 11.5749 37.9781 11.6025C37.9819 11.6091 37.9868 11.6158 37.9916 11.6223C37.9953 11.627 37.9991 11.6318 38.0015 11.6366C38.0026 11.6389 38.004 11.6409 38.0055 11.6429C38.013 11.6519 38.0171 11.6631 38.0175 11.6749C38.0105 11.6839 38.009 11.696 38.0138 11.7064C38.0169 11.7139 38.0183 11.7219 38.0178 11.7299L38.0175 11.7519C38.0175 11.7675 38.0175 11.7851 38.0337 11.8014C38.0756 11.8471 38.1084 11.9005 38.1302 11.9586C38.1416 11.9908 38.159 12.0205 38.1816 12.0468L38.1801 12.0531C38.1805 12.0589 38.1786 12.0645 38.1749 12.0689C38.1666 12.0773 38.1616 12.0884 38.1607 12.1001C38.1599 12.1099 38.1634 12.1195 38.1702 12.1264C38.1749 12.1374 38.1834 12.146 38.1894 12.1521C38.2019 12.1629 38.21 12.1741 38.2149 12.1868C38.2292 12.2158 38.2441 12.2423 38.2591 12.2688C38.2735 12.2944 38.2879 12.32 38.3006 12.3454C38.3901 12.5116 38.482 12.6823 38.567 12.8588C38.6054 12.9231 38.6472 12.9828 38.6926 13.0384C38.7091 13.0686 38.7361 13.0875 38.7624 13.1059C38.7851 13.1216 38.8085 13.1379 38.8274 13.1628L38.8199 13.1629C38.8045 13.1629 38.7889 13.1609 38.7738 13.1571C38.7563 13.1526 38.7385 13.1631 38.7339 13.1807C38.7277 13.205 38.7251 13.2306 38.7264 13.2558C38.7211 13.3203 38.7364 13.3848 38.7701 13.4401C38.7714 13.4424 38.773 13.4446 38.7751 13.4465L38.7814 13.453L38.7857 13.4565L38.7922 13.4833C38.819 13.5696 38.8707 13.6004 38.9362 13.6393L38.9697 13.6594C39.012 13.6855 39.0446 13.7236 39.0762 13.7606C39.1042 13.7933 39.1306 13.8241 39.163 13.8469C39.198 13.8664 39.2201 13.8969 39.227 13.9326C39.2254 13.9744 39.2302 14.0159 39.2412 14.0561C39.2634 14.1029 39.2892 14.1406 39.3204 14.174C39.346 14.1981 39.3634 14.2276 39.3716 14.2595L39.3535 14.2619C39.3354 14.2641 39.3226 14.2806 39.3248 14.2987C39.3256 14.3049 39.3281 14.3107 39.332 14.3155C39.3326 14.3178 39.3334 14.3199 39.3344 14.322C39.3561 14.3666 39.3681 14.4153 39.3701 14.4649V14.4924C39.365 14.5154 39.3628 14.5389 39.3636 14.5624C39.3636 14.617 39.3715 14.6713 39.3799 14.7286C39.3865 14.7736 39.3934 14.8203 39.3961 14.8688C39.3992 14.933 39.4106 14.997 39.4301 15.0588C39.4408 15.1169 39.4817 15.1695 39.5389 15.1959C39.5801 15.214 39.6163 15.2421 39.6438 15.2771C39.6728 15.3089 39.7025 15.3364 39.7339 15.3609C39.7414 15.3669 39.7513 15.3693 39.7606 15.3674C39.7628 15.3869 39.7751 15.3951 39.7944 15.408C39.7968 15.4097 39.7995 15.411 39.8024 15.4119C39.8199 15.4178 39.8361 15.4266 39.8502 15.4384C39.8522 15.4401 39.8544 15.4415 39.8567 15.4426C39.8654 15.4468 39.8709 15.4556 39.8709 15.4651C39.8709 15.4701 39.872 15.4751 39.8743 15.4798C39.9699 15.6722 40.0432 15.875 40.0929 16.084C40.0987 16.1313 40.1103 16.1814 40.1261 16.2298C40.1268 16.232 40.1278 16.2341 40.129 16.236C40.1562 16.2833 40.1766 16.334 40.1897 16.3872C40.1916 16.4044 40.2032 16.4159 40.2186 16.4314C40.2224 16.4352 40.2269 16.4389 40.2319 16.4429C40.2446 16.4533 40.2526 16.4603 40.2551 16.473C40.2586 16.4909 40.276 16.5025 40.2939 16.499C40.3093 16.496 40.3204 16.4826 40.3205 16.4669C40.3237 16.4634 40.328 16.4609 40.3327 16.4599L40.3395 16.4605C40.3573 16.4611 40.3738 16.4702 40.3837 16.485C40.3964 16.4972 40.4037 16.5139 40.4041 16.5314C40.4085 16.5814 40.4319 16.6252 40.4682 16.6548C40.4741 16.6595 40.4815 16.6622 40.4891 16.6622H40.5021C40.5141 16.6622 40.524 16.6575 40.5335 16.6532C40.5458 16.6464 40.5595 16.6428 40.5735 16.6425C40.5893 16.645 40.6037 16.6528 40.6145 16.6647C40.6296 16.6798 40.6397 16.6922 40.6481 16.7022C40.6552 16.7107 40.6614 16.7179 40.6674 16.724C40.6849 16.744 40.7112 16.7572 40.7399 16.7595C40.8099 16.7689 40.8441 16.8223 40.8774 16.8739L40.8907 16.8945C40.929 16.956 40.9774 17.0113 41.0339 17.0578C41.036 17.0595 41.0383 17.061 41.0407 17.0621C41.0614 17.0718 41.0802 17.085 41.0967 17.1013L41.166 17.1504C41.197 17.1745 41.2035 17.2117 41.2095 17.2444C41.212 17.2592 41.2145 17.2731 41.2194 17.2853C41.2209 17.2889 41.223 17.2923 41.2256 17.2953C41.2344 17.3048 41.2456 17.3123 41.2579 17.3168C41.2607 17.3178 41.2636 17.3185 41.2666 17.3188C41.2782 17.3197 41.2891 17.325 41.2967 17.3338C41.303 17.34 41.3096 17.3505 41.3167 17.3617C41.3237 17.3725 41.3315 17.3847 41.3406 17.3967C41.3551 17.4198 41.3749 17.4422 41.3981 17.461C41.4122 17.4726 41.433 17.4704 41.4446 17.4563C41.4471 17.4532 41.4491 17.4495 41.4504 17.4457C41.4679 17.4559 41.4802 17.4733 41.4841 17.4933L41.4836 17.5005C41.4836 17.507 41.4855 17.5134 41.4891 17.5189C41.4939 17.5259 41.5002 17.5347 41.5074 17.5444C41.5197 17.5613 41.5345 17.5817 41.5467 17.602C41.5746 17.638 41.5902 17.677 41.5942 17.7183C41.5934 17.7327 41.5891 17.7466 41.5817 17.759C41.5317 17.8042 41.4728 17.8384 41.4087 17.8594C41.4065 17.8601 41.4043 17.8611 41.4022 17.8623C41.3814 17.8746 41.364 17.892 41.3516 17.9129C41.3423 17.9285 41.3474 17.9487 41.363 17.958C41.3714 17.963 41.3815 17.964 41.3907 17.9608C41.4176 17.9515 41.4456 17.9455 41.4739 17.943H41.4749C41.4795 17.9428 41.484 17.9438 41.4881 17.9459C41.4987 17.9507 41.5079 17.9581 41.5149 17.9674C41.5186 17.9714 41.5221 17.9755 41.5256 17.979C41.5278 17.9812 41.5303 17.9831 41.533 17.9845C41.6046 18.0243 41.653 18.1005 41.7 18.1743C41.7237 18.2115 41.7462 18.2468 41.771 18.2761C41.8312 18.3537 41.924 18.3988 42.0221 18.3984C42.066 18.3984 42.1096 18.3911 42.1514 18.3771C42.2139 18.347 42.2702 18.3132 42.3227 18.275C42.3536 18.2453 42.3896 18.2303 42.4277 18.2293C42.4561 18.231 42.4872 18.2353 42.5177 18.2416C42.5598 18.2534 42.6031 18.2601 42.6467 18.2616C42.6905 18.2606 42.733 18.2476 42.7699 18.2241C42.8016 18.1955 42.8309 18.1725 42.8614 18.1521C42.8951 18.1223 42.9321 18.1051 42.9719 18.0996C42.9797 18.1021 42.9856 18.104 42.9911 18.105C43.0225 18.1169 43.0554 18.1236 43.0886 18.1253C43.123 18.1245 43.1569 18.1169 43.1882 18.1028C43.2301 18.0813 43.2741 18.0646 43.3196 18.0528C43.3273 18.0492 43.3356 18.0472 43.344 18.0469C43.3705 18.0473 43.3879 18.0519 43.4062 18.0569C43.4237 18.0619 43.4416 18.0668 43.461 18.0668H43.4739C43.5469 18.0553 43.617 18.0292 43.6799 17.9903C43.7116 17.9786 43.7504 17.9739 43.7877 17.9694C43.8315 17.964 43.8727 17.9589 43.9112 17.9396C43.9401 17.9189 43.9633 17.8912 43.9785 17.859C43.9916 17.8335 44.0124 17.8109 44.0377 17.795C44.0446 17.7896 44.053 17.7865 44.0617 17.7863L44.073 17.7871C44.1081 17.7866 44.143 17.7944 44.1746 17.8096C44.2074 17.8296 44.2277 17.8465 44.2277 17.8711V17.8853C44.2087 17.9434 44.1977 18.0038 44.1952 18.0649C44.1944 18.0921 44.1969 18.119 44.2025 18.1449C44.21 18.181 44.214 18.2184 44.2147 18.2555C44.2147 18.2581 44.2146 18.2607 44.2144 18.2633C44.2109 18.2653 44.2077 18.2677 44.2049 18.2705C44.1881 18.2844 44.1824 18.2994 44.1824 18.3264V18.4369C44.1854 18.4999 44.1792 18.5629 44.1638 18.624C44.1341 18.6988 44.0944 18.7692 44.0459 18.8333C44.0188 18.8704 44.0078 18.9151 43.9959 18.9626C43.9825 19.0168 43.9686 19.0726 43.93 19.1178C43.9148 19.1329 43.9016 19.1433 43.8908 19.152C43.8757 19.1631 43.8623 19.1763 43.8508 19.191C43.8343 19.2128 43.8343 19.2381 43.8343 19.2628C43.8343 19.2823 43.8343 19.3024 43.8268 19.3228C43.7824 19.4128 43.7314 19.4996 43.6743 19.5823C43.638 19.6505 43.6213 19.7191 43.6034 19.7919C43.59 19.8469 43.5761 19.9036 43.5538 19.9594C43.4946 20.0793 43.4262 20.1944 43.3494 20.3038C43.3173 20.3504 43.2903 20.402 43.2641 20.4519C43.2304 20.5165 43.1954 20.5834 43.1491 20.6401C43.0595 20.7554 42.9686 20.8658 42.8809 20.9726L42.8763 20.9781C42.7009 21.1955 42.4927 21.3841 42.2593 21.5373C42.1543 21.5986 42.0568 21.6719 41.9685 21.7555C41.9405 21.7835 41.912 21.811 41.8833 21.8386C41.8104 21.9089 41.7349 21.9815 41.673 22.0576C41.6306 22.1098 41.5868 22.1619 41.5428 22.2139C41.499 22.266 41.4551 22.318 41.4129 22.3699C41.3865 22.4006 41.3596 22.4379 41.3336 22.474C41.3208 22.4919 41.3079 22.5098 41.2949 22.527C41.2724 22.558 41.2474 22.5873 41.2203 22.6143C41.2145 22.621 41.2098 22.6239 41.2048 22.6249C41.1916 22.6274 41.1812 22.6376 41.1785 22.6508C41.1597 22.7446 41.1153 22.8313 41.0501 22.9014C41.048 22.9037 41.0463 22.9063 41.0449 22.9092L41.0254 22.9481C40.9963 22.9911 40.9476 23.0232 40.8929 23.0334C40.8844 23.0301 40.8754 23.0281 40.8663 23.0275C40.8481 23.0275 40.8333 23.0422 40.8333 23.0604C40.8332 23.0672 40.8342 23.0739 40.8361 23.0804C40.8419 23.0933 40.8454 23.1072 40.8464 23.1213C40.8464 23.1343 40.842 23.1469 40.8339 23.157L40.8198 23.171C40.8063 23.1687 40.7927 23.1749 40.7858 23.1868C40.7667 23.2192 40.7328 23.24 40.6953 23.2422C40.6326 23.2446 40.5837 23.2975 40.5862 23.3602L40.5863 23.3615C40.5853 23.3787 40.5883 23.3958 40.5953 23.4115C40.5963 23.4139 40.5975 23.4161 40.599 23.4181C40.597 23.444 40.588 23.4687 40.5729 23.4898C40.5615 23.5149 40.5453 23.5375 40.5252 23.5564C40.5235 23.558 40.522 23.5598 40.5206 23.5616C40.5001 23.5906 40.4853 23.6229 40.4766 23.6573C40.4659 23.6976 40.4514 23.7369 40.4334 23.7745C40.4283 23.7879 40.42 23.7998 40.4091 23.8091C40.4018 23.8154 40.3976 23.8245 40.3975 23.8341C40.3944 23.8866 40.3705 23.9263 40.3475 23.9645C40.3298 23.994 40.3129 24.0219 40.3078 24.0515C40.3035 24.0495 40.2988 24.0484 40.294 24.0484C40.2738 24.0484 40.2603 24.0621 40.2511 24.0711C40.245 24.0773 40.2415 24.0857 40.2415 24.0944V24.1074C40.2272 24.2016 40.1998 24.2933 40.1599 24.3798C40.1393 24.4232 40.1214 24.4678 40.1065 24.5135C40.099 24.5323 40.094 24.5537 40.0924 24.5755C40.0878 24.5924 40.0949 24.6083 40.1006 24.6214C40.1069 24.6334 40.1106 24.6466 40.1114 24.6602V24.6862C40.1122 24.706 40.1201 24.7248 40.1336 24.7393C40.1454 24.7532 40.1662 24.7549 40.1801 24.7431C40.1867 24.7376 40.1908 24.7298 40.1916 24.7213C40.1927 24.7069 40.1984 24.6933 40.2078 24.6824C40.2153 24.6716 40.2199 24.6657 40.2238 24.6607C40.2294 24.6533 40.2344 24.6467 40.2378 24.6399C40.258 24.6774 40.2684 24.7202 40.2675 24.7637C40.2673 24.7784 40.2769 24.7915 40.291 24.7958C40.2993 24.7983 40.3061 24.8042 40.3101 24.8118C40.3128 24.821 40.3138 24.8306 40.3131 24.8402C40.3144 24.8548 40.3127 24.8696 40.3081 24.8837C40.3036 24.8971 40.3081 24.9118 40.3194 24.9204L40.3236 24.9242C40.3286 24.9382 40.3318 24.9529 40.3326 24.9679C40.3325 24.9977 40.3231 25.0267 40.3059 25.051C40.2816 25.0873 40.2684 25.1297 40.2675 25.1732C40.2681 25.1963 40.2663 25.2177 40.2618 25.2385C40.258 25.2564 40.2693 25.2739 40.2871 25.2777L40.293 25.2784C40.2905 25.2789 40.2927 25.2839 40.2943 25.2872C40.2993 25.3009 40.3009 25.3144 40.3 25.328C40.2997 25.3493 40.2959 25.3705 40.2888 25.3907C40.2678 25.4344 40.256 25.4819 40.2545 25.5304V25.551C40.2565 25.5798 40.265 25.6053 40.2793 25.6274C40.2919 25.6449 40.2988 25.6637 40.3 25.6834V25.6874C40.2926 25.6974 40.2914 25.7108 40.297 25.7219C40.3 25.7277 40.3033 25.7334 40.307 25.7388C40.3075 25.7417 40.3083 25.7443 40.3095 25.747C40.312 25.7524 40.3133 25.7582 40.313 25.7642C40.3124 25.7825 40.3267 25.7979 40.3449 25.7985L40.3505 25.7982C40.3603 25.7991 40.3661 25.807 40.3655 25.8132C40.3645 25.8364 40.3591 25.856 40.3496 25.8734C40.347 25.8782 40.3455 25.8837 40.3455 25.8892C40.3455 25.9117 40.3494 25.9262 40.3683 25.9451C40.3761 25.9559 40.3845 25.9705 40.391 25.9864V25.9932C40.3916 26.0024 40.3901 26.0115 40.3869 26.0201C40.3854 26.024 40.3846 26.0281 40.3846 26.0322C40.3846 26.0405 40.3876 26.0549 40.3931 26.061C40.4004 26.0689 40.4044 26.0792 40.4041 26.09V26.1037C40.4041 26.1166 40.4116 26.1284 40.4234 26.1337C40.4336 26.1384 40.4425 26.1457 40.4489 26.155L40.453 26.1607C40.4551 26.165 40.4588 26.172 40.4658 26.1791C40.472 26.1854 40.4803 26.1887 40.489 26.1887H40.502C40.5275 26.1891 40.5518 26.1996 40.5695 26.2179C40.595 26.2392 40.6094 26.266 40.6124 26.2957C40.6124 26.3119 40.6239 26.3287 40.6399 26.3314C40.6582 26.3343 40.6714 26.3504 40.6708 26.369C40.6697 26.3772 40.6669 26.3851 40.6625 26.3922C40.6542 26.4056 40.6567 26.423 40.6683 26.4336C40.6577 26.4541 40.6519 26.4767 40.6513 26.4997C40.6525 26.524 40.6488 26.546 40.6406 26.566C40.6367 26.5767 40.6303 26.5864 40.6219 26.5941C40.6064 26.6036 40.5991 26.6156 40.5991 26.6305C40.5991 26.6377 40.6015 26.6446 40.6059 26.6505C40.6226 26.6726 40.6319 26.7001 40.6318 26.728C40.6366 26.763 40.6386 26.7941 40.6381 26.8251C40.6381 26.8279 40.6384 26.8306 40.6391 26.8332C40.6441 26.8536 40.6459 26.8745 40.6447 26.8952V26.9296C40.6437 26.9389 40.6423 26.9481 40.6401 26.9571L40.6351 26.967C40.6323 26.9727 40.6312 26.979 40.6319 26.9854C40.6328 26.9936 40.6349 27.0016 40.6381 27.009V27.0272C40.639 27.0361 40.6377 27.045 40.6344 27.0532C40.6326 27.0573 40.6317 27.0618 40.6318 27.0662C40.6318 27.09 40.6368 27.098 40.648 27.1091C40.6529 27.116 40.657 27.1234 40.6604 27.1312C40.6635 27.1387 40.6649 27.1468 40.6643 27.1549C40.6642 27.18 40.6586 27.2048 40.648 27.2276C40.6419 27.2401 40.6445 27.2551 40.6544 27.2651L40.6674 27.2781C40.6703 27.284 40.6715 27.2907 40.6709 27.2972C40.6671 27.3259 40.661 27.3542 40.6526 27.3819C40.646 27.4027 40.6412 27.4241 40.6384 27.4457C40.6371 27.4556 40.6404 27.4654 40.6473 27.4726C40.6555 27.4814 40.6623 27.4914 40.667 27.5022C40.6698 27.5135 40.6716 27.5295 40.6708 27.5457C40.6708 27.5734 40.6671 27.6034 40.6638 27.6324C40.6604 27.6559 40.6584 27.6797 40.6576 27.7035C40.6576 27.7217 40.6725 27.7365 40.6906 27.7365C40.6898 27.7518 40.6862 27.7669 40.6801 27.781C40.6726 27.7975 40.6799 27.817 40.6965 27.8245L40.7004 27.826C40.7141 27.8304 40.7234 27.8435 40.7229 27.8581L40.7227 27.8752C40.72 27.888 40.7179 27.901 40.7165 27.914C40.7149 27.9256 40.7136 27.9374 40.7106 27.949C40.7087 27.9659 40.7034 27.9767 40.6945 27.9847C40.6855 27.9928 40.6817 28.0051 40.6845 28.0169L40.6795 28.0294C40.6779 28.0332 40.6771 28.0374 40.6771 28.0416V28.0546C40.677 28.0585 40.6755 28.0621 40.6729 28.065L40.6609 28.0769C40.6496 28.088 40.6479 28.1056 40.6569 28.1187C40.6503 28.1523 40.6387 28.1847 40.6225 28.2149C40.601 28.2546 40.5724 28.2841 40.5446 28.3126C40.5167 28.3414 40.4904 28.3685 40.4726 28.4041C40.4487 28.4429 40.422 28.4797 40.3925 28.5145C40.3897 28.5177 40.3876 28.5214 40.3862 28.5254C40.3831 28.5354 40.3807 28.5457 40.379 28.5561C40.3782 28.5619 40.3769 28.5676 40.375 28.5731L40.3741 28.5756L40.3686 28.5746L40.3655 28.5745C40.3561 28.5744 40.3472 28.5784 40.341 28.5853C40.3116 28.6181 40.2756 28.6441 40.2352 28.6617C40.1915 28.684 40.1512 28.7123 40.1153 28.7458L40.1081 28.7531C40.1019 28.7593 40.0985 28.7676 40.0985 28.7763C40.0985 28.7837 40.097 28.786 40.0948 28.7871C40.0926 28.7885 40.0905 28.7902 40.0886 28.7921C40.0817 28.793 40.0752 28.7955 40.0695 28.7993C40.0527 28.8057 40.0357 28.8113 40.0185 28.8162C39.9841 28.8253 39.9504 28.8366 39.9175 28.85C39.8865 28.8676 39.8542 28.8827 39.8208 28.8951C39.8128 28.8972 39.803 28.8988 39.7926 28.8993C39.7903 28.8988 39.7879 28.8986 39.7855 28.8986C39.7705 28.8986 39.7588 28.9073 39.744 28.9223C39.6882 28.9656 39.6264 29.0003 39.5605 29.0253C39.5561 29.027 39.5521 29.0295 39.5488 29.0328C39.5441 29.0375 39.5356 29.045 39.5252 29.0541C39.5076 29.07 39.4847 29.0903 39.4643 29.1107C39.4391 29.1369 39.4079 29.1565 39.3733 29.1678C39.356 29.1736 39.3466 29.1924 39.3523 29.2097C39.3533 29.2126 39.3546 29.2153 39.3563 29.2178L39.357 29.2252C39.357 29.2665 39.321 29.2962 39.2829 29.3278L39.2646 29.3431C39.2069 29.3926 39.1685 29.4346 39.1685 29.4788V29.4918L39.1705 29.5022L39.1674 29.5063C39.1588 29.5033 39.1493 29.5038 39.1411 29.5078L39.1152 29.5208C39.1114 29.5228 39.108 29.5254 39.1052 29.5286L39.0981 29.5303C39.0915 29.5222 39.0816 29.5174 39.0711 29.5175C39.0645 29.5175 39.0581 29.5195 39.0527 29.5232C38.9989 29.5605 38.9491 29.6035 38.9044 29.6513C38.8624 29.7117 38.8148 29.7679 38.7622 29.8193C38.7606 29.8209 38.7591 29.8227 38.7579 29.8246C38.7465 29.8416 38.7319 29.8562 38.7149 29.8676C38.696 29.8861 38.6715 29.8979 38.6452 29.9012L38.6357 29.9009C38.6175 29.901 38.6028 29.9158 38.6028 29.934C38.6028 29.9385 38.6037 29.9428 38.6055 29.9469C38.6086 29.9544 38.61 29.9624 38.6094 29.9704C38.6092 29.9842 38.6059 29.9978 38.5997 30.0102C38.5967 30.0164 38.5925 30.022 38.5874 30.0267C38.5763 30.0368 38.5735 30.0532 38.5805 30.0664C38.5828 30.0707 38.5838 30.0757 38.5834 30.0805L38.5832 30.129C38.5832 30.1559 38.5871 30.1687 38.5991 30.1822C38.6057 30.1947 38.6156 30.2032 38.6272 30.2129C38.6378 30.2219 38.6498 30.232 38.662 30.2472C38.6895 30.2812 38.703 30.3241 38.7004 30.3677V30.3762L38.6989 30.3877C38.6961 30.4075 38.6943 30.4275 38.6938 30.4477C38.6938 30.4552 38.6963 30.4623 38.7011 30.4682C38.7 30.4753 38.6998 30.4825 38.7003 30.4897C38.7003 30.5178 38.711 30.5515 38.7222 30.5872C38.7325 30.6194 38.743 30.6527 38.746 30.6847C38.7457 30.6943 38.7476 30.7079 38.7497 30.7219C38.7512 30.7312 38.7565 30.7393 38.7643 30.7444C38.7633 30.7552 38.7615 30.7658 38.759 30.7763C38.7583 30.7792 38.7581 30.7822 38.7582 30.7852L38.7587 30.7924C38.7594 30.8105 38.7741 30.8248 38.7922 30.8249C38.7989 30.825 38.8054 30.823 38.8108 30.8192V30.8443C38.8108 30.8533 38.8143 30.8613 38.8201 30.8673C38.8176 30.8835 38.8143 30.9 38.8113 30.9163C38.8063 30.943 38.8013 30.9697 38.7981 30.9963C38.7979 30.9998 38.7977 31.0033 38.7977 31.0068C38.7977 31.0268 38.8042 31.045 38.8105 31.0627C38.817 31.0812 38.8239 31.1005 38.8239 31.1239V31.1369C38.8172 31.1775 38.7994 31.225 38.7819 31.271C38.7689 31.3057 38.7555 31.3414 38.7469 31.376C38.7446 31.3847 38.746 31.3939 38.7507 31.4015L38.7832 31.4535C38.7925 31.4679 38.7975 31.4846 38.7977 31.5017C38.7977 31.58 38.7241 31.6659 38.6887 31.7072C38.5995 31.7941 38.4887 31.8556 38.3677 31.8853C38.2322 31.9265 38.1025 31.9847 37.9814 32.058C37.9251 32.0808 37.8747 32.1237 37.8404 32.1795C37.8298 32.2066 37.8168 32.2327 37.8014 32.2573C37.797 32.2662 37.79 32.2736 37.7814 32.2784C37.7653 32.2867 37.759 32.3065 37.7673 32.3225C37.7689 32.3257 37.771 32.3285 37.7735 32.3309L37.8321 32.3893C37.8444 32.4016 37.8641 32.4023 37.8771 32.3908L37.8809 32.392C37.8809 32.407 37.8822 32.4258 37.8837 32.447C37.8855 32.472 37.8875 32.5003 37.8875 32.5285C37.8867 32.5564 37.8827 32.5841 37.8755 32.611C37.8692 32.6296 37.8607 32.639 37.858 32.6404C37.8477 32.6447 37.8398 32.6533 37.8363 32.6638C37.8098 32.7739 37.7807 32.8741 37.7498 32.98C37.7356 33.0292 37.7211 33.079 37.7065 33.1311C37.6931 33.1852 37.6742 33.2378 37.6501 33.2881C37.6321 33.3334 37.5941 33.3679 37.5472 33.3813C37.5333 33.3852 37.5235 33.3978 37.5232 33.4123C37.5181 33.4173 37.515 33.4188 37.5116 33.4196C37.4993 33.4234 37.4864 33.4254 37.4735 33.4256C37.4369 33.4256 37.3929 33.4803 37.3802 33.4972C37.3065 33.5773 37.2478 33.6702 37.207 33.7712C37.1828 33.8219 37.1519 33.8692 37.1151 33.9117C37.1136 33.9135 37.1122 33.9154 37.111 33.9174C37.0666 33.9934 37.0209 34.072 36.9696 34.1489C36.8784 34.2706 36.7714 34.3795 36.6515 34.4729C36.6002 34.5139 36.5612 34.5642 36.5197 34.6172C36.4794 34.6687 36.4377 34.722 36.3844 34.7662C36.2539 34.8769 36.1231 34.9879 35.9886 35.0905L35.9577 35.1138C35.862 35.1865 35.7534 35.269 35.6271 35.2855L35.6054 35.2853C35.58 35.2853 35.5576 35.2819 35.536 35.2785C35.5155 35.2753 35.496 35.2723 35.4752 35.2723C35.4614 35.2721 35.4474 35.2745 35.4345 35.2795C35.4128 35.2824 35.393 35.2932 35.3788 35.3099C35.377 35.3119 35.3755 35.3141 35.3744 35.3165L35.3614 35.3425C35.355 35.3552 35.3575 35.3706 35.3676 35.3806L35.3794 35.3925C35.3747 35.3949 35.3695 35.3961 35.3643 35.3961C35.3376 35.3924 35.3116 35.3855 35.2866 35.3755C35.2595 35.366 35.2338 35.3568 35.2086 35.3568H35.2069C35.1909 35.3563 35.175 35.3598 35.1608 35.3671C35.1433 35.3771 35.1265 35.388 35.1104 35.3999C35.0808 35.4209 35.0613 35.4349 35.0266 35.4349C34.9971 35.4335 34.9681 35.4276 34.9404 35.4174C34.8752 35.3912 34.8065 35.3752 34.7365 35.3699C34.7058 35.3702 34.6753 35.3751 34.646 35.3844C34.6331 35.3889 34.6215 35.3965 34.6123 35.4065C34.6106 35.4083 34.6091 35.4103 34.6079 35.4124C34.6046 35.4141 34.601 35.4151 34.5974 35.4153C34.5864 35.4132 34.5756 35.4098 34.5654 35.4053C34.5411 35.3963 34.5152 35.3932 34.4895 35.3961C34.4792 35.3964 34.4689 35.3948 34.4591 35.3914C34.4555 35.3901 34.4517 35.3894 34.4479 35.3894H34.4023C34.3019 35.3894 34.2112 35.4315 34.1495 35.5051C34.1309 35.5344 34.0969 35.5502 34.0625 35.5456C34.0264 35.5449 33.9903 35.5424 33.9544 35.5381C33.9281 35.535 33.9019 35.5331 33.8756 35.5324C33.8618 35.534 33.8481 35.5365 33.8346 35.54C33.8325 35.5406 33.8304 35.5414 33.8284 35.5424C33.8038 35.5546 33.7829 35.5561 33.7628 35.5575C33.7456 35.5588 33.7279 35.56 33.7113 35.5684C33.6616 35.593 33.6159 35.6248 33.5756 35.6628C33.5627 35.6711 33.5508 35.6808 33.54 35.6918C33.5377 35.6935 33.5351 35.6946 33.5322 35.6948Z" fill="#3F724A"/>
<path d="M20.7524 18.3496H20.6874L20.6809 18.3758L20.6549 18.3626C20.6483 18.3758 20.6483 18.3821 20.6419 18.3951L20.6354 18.4213L20.6613 18.4341C20.671 18.4401 20.6825 18.4424 20.6937 18.4408C20.7264 18.4408 20.7459 18.4083 20.7524 18.3821L20.7524 18.3496ZM20.7914 18.4276C20.7622 18.4402 20.7422 18.4676 20.7392 18.4993V18.5123L20.7654 18.5056L20.7849 18.5253C20.8074 18.5068 20.8232 18.4818 20.8304 18.4538L20.8434 18.4016L20.7914 18.4278V18.4276Z" fill="white"/>
<path d="M39.7091 25.725C39.7028 25.7381 39.6896 25.7445 39.6766 25.7641C39.6528 25.7802 39.6382 25.8069 39.6376 25.8356V25.8551L39.6636 25.8485L39.6831 25.8681C39.6961 25.8551 39.7156 25.8486 39.7286 25.8291C39.7526 25.8131 39.7672 25.7863 39.7678 25.7575C39.7688 25.7463 39.7665 25.735 39.7613 25.725L39.7353 25.66L39.7091 25.725ZM39.6961 24.5773L39.6636 24.5643L39.6571 24.6033V24.6358H39.6831L39.6571 24.6423C39.6563 24.6565 39.661 24.6705 39.6703 24.6814V24.6878L39.5921 24.6944L39.6636 24.7399C39.6564 24.7517 39.652 24.7651 39.6506 24.7789C39.6495 24.8056 39.6695 24.8285 39.6961 24.8309C39.7228 24.8283 39.7455 24.8106 39.7546 24.7854C39.7674 24.7566 39.774 24.7258 39.7743 24.6944C39.7822 24.6411 39.7484 24.5904 39.6961 24.5773Z" fill="#3F724A"/>
<path d="M39.7156 16.817C39.7413 16.824 39.7674 16.8283 39.7938 16.83H39.8783L39.8588 16.791C39.8511 16.7736 39.8372 16.7597 39.8198 16.752C39.8028 16.747 39.7852 16.7448 39.7676 16.7455C39.7546 16.7455 39.7613 16.7455 39.7546 16.739C39.7507 16.7264 39.7485 16.7133 39.7483 16.7C39.7466 16.6903 39.7421 16.6812 39.7353 16.674C39.7255 16.6624 39.7113 16.6554 39.6961 16.6545C39.6831 16.6545 39.6766 16.661 39.6701 16.661L39.6831 16.687H39.6571V16.7065L39.6051 16.6675L39.6506 16.7585C39.6616 16.7874 39.6858 16.8092 39.7156 16.817Z" fill="#3F724A" stroke="white" stroke-width="0.52756" stroke-miterlimit="10" stroke-linecap="round" stroke-linejoin="round"/>
</svg>
