<svg width="64" height="43" viewBox="0 0 64 43" fill="none" xmlns="http://www.w3.org/2000/svg">
<rect x="7.62939e-06" y="0.133682" width="64" height="42" fill="#FFCC00"/>
<circle cx="31.5069" cy="20.345" r="18.457" fill="white"/>
<path d="M15.1875 11.125L14.875 5.87498L15.8125 4.87498L16.3125 3.68748L19.1875 2.81248H22.375L25.0625 1.56248L28.5625 2.06248L31.6875 2.81248L36.8125 3.68748L39.8125 3.12498L43.75 3.68748L57.125 5.56248L57.625 8.56248L54.5 9.06248L52.4375 10.625L53.25 12.75L50.875 14.3125L48.625 12.4375H48L50 15.0625L51.375 17.3125V21.1875L47 23.75L45.5 22.375V23.75L43.75 26.8125L41.0625 28.3125L42.0625 28.75V31.4375L39.8125 32.9375L41.4375 33.5L43.75 31.0625L43.0625 28.75L44.5625 26.8125H46.6875L48.625 31.9375L49 33.9375L47 35.625L48 37.5L46.1875 41.1875H42.4375L38.125 40.4375L34.4375 33.9375L35.0625 32.9375L34.4375 30.4375L33.375 29.9375L32.4375 28L30.4375 29.9375L30.8125 33.5L29.375 34.5L27.75 35.125L24.0625 28L22.375 27.625L21.8125 28.75L14.5625 32.625L13.625 31.9375L8.0625 23.0625L8.625 21.1875L6.5625 20.625L5.625 16.9375L10.875 15.75L11.875 15.0625L14.875 15.75L13.125 13.0625L15.1875 12.4375V11.125Z" fill="#071D46"/>
<path d="M54.9384 6.91619L50.4678 5.88441C50.4309 5.87992 50.3943 5.87607 50.3579 5.87206H46.4557C46.4364 5.8711 46.4167 5.86965 46.3976 5.86853L37.9263 4.85457C37.874 4.85649 37.8223 4.85906 37.77 4.86098L35.3863 5.34873C35.2603 5.37439 35.1286 5.34969 35.0213 5.27928L33.9136 4.55688C33.8392 4.5086 33.7531 4.48102 33.6644 4.47749L29.1889 4.31389C29.0219 4.30796 28.9114 4.13794 28.9737 3.98285L28.982 3.9612C29.0372 3.82278 28.9554 3.66801 28.8101 3.63545L25.9612 3.00223C25.8721 2.9825 25.7794 2.98796 25.6937 3.01795L21.0704 4.63594C21.0162 4.64524 20.963 4.65422 20.9088 4.66352H18.4279C18.1254 4.66352 17.8957 4.93506 17.9449 5.23306L18.037 5.78687C18.07 5.98399 17.9794 6.18158 17.8089 6.28504L16.9571 6.80342C16.8004 6.89853 16.7103 7.07335 16.7236 7.25618L16.999 11.1092C17.003 11.161 17.0147 11.2122 17.0349 11.26L17.1407 11.5142C17.2354 11.7408 17.4851 11.8601 17.7207 11.7905L17.9414 11.7254C18.1675 11.6588 18.4084 11.7658 18.5109 11.9782L18.8258 12.6314C18.9701 12.9315 18.7789 13.2853 18.4484 13.3286L16.1543 13.6297C15.81 13.6751 15.6212 14.0544 15.7922 14.3564L17.6496 17.632C17.7014 17.7231 17.7226 17.8281 17.7098 17.9321L17.5757 19.0378C17.5338 19.3842 17.1529 19.5764 16.8494 19.4049L16.3814 19.1403C16.2105 19.0437 16.1154 18.8525 16.141 18.658L16.1701 18.4407C16.1986 18.2248 16.0789 18.016 15.8773 17.9327L13.3881 16.8995C13.1722 16.8099 12.923 16.8857 12.7934 17.0798L12.489 17.5366C12.3713 17.713 12.1535 17.7938 11.9494 17.7361L10.4803 17.3241C10.4009 17.3019 10.3172 17.2998 10.2368 17.3186L8.2674 17.7768C7.99297 17.8403 7.82888 18.1222 7.90925 18.3922L8.1625 19.2466C8.21319 19.4181 8.35417 19.5486 8.52915 19.5862L10.8189 20.077C11.183 20.1547 11.3299 20.5948 11.0859 20.8757L10.2922 21.7917C10.1523 21.9534 10.1331 22.1864 10.2448 22.3681L14.8049 29.7851C14.9502 30.0217 15.2631 30.0901 15.4942 29.9354L20.5758 26.5306C20.8452 26.3504 20.8675 25.9621 20.6207 25.7516L19.6486 24.9234C19.5421 24.8328 19.4027 24.7923 19.2643 24.8111L17.9704 24.9895C17.8187 25.0101 17.666 24.959 17.5575 24.8506L16.2228 23.5158C16.0765 23.3695 16.0399 23.1458 16.1326 22.9606L16.175 22.8764C16.2977 22.6305 16.6011 22.5373 16.8406 22.6719L19.351 24.0775C19.4007 24.0958 19.45 24.1134 19.4999 24.1317L23.209 24.827C23.2587 24.8453 23.3075 24.8624 23.3574 24.8807L25.7208 26.2002C25.8267 26.2594 25.9065 26.3555 25.9455 26.4702L27.7464 31.7697C27.8631 32.1131 28.2992 32.2146 28.5553 31.9585L28.9377 31.5761C29.0328 31.481 29.0845 31.3514 29.0806 31.217L29.0309 29.3758C29.028 29.2576 29.0673 29.1422 29.1427 29.0511L31.2289 26.526C31.2895 26.4525 31.3703 26.3983 31.461 26.3702L32.6628 25.9972C32.8977 25.9242 33.15 26.0371 33.2525 26.2609L34.2167 28.3647C34.3221 28.5943 34.5848 28.7061 34.8233 28.6229L35.0637 28.5387C35.35 28.4386 35.6575 28.62 35.7077 28.9191L36.2532 32.1424C36.2679 32.2287 36.3055 32.3094 36.3616 32.376L38.4468 34.8493C38.5921 35.0217 38.873 34.9188 38.873 34.6936V34.3457C38.873 34.295 38.8568 34.2451 38.8271 34.2042L36.9405 31.5963C36.8627 31.4888 36.833 31.3544 36.8577 31.2244L36.8936 31.0341C36.9661 30.6553 37.4282 30.505 37.709 30.769L38.7427 31.7402C38.9206 31.9076 39.195 31.9175 39.3852 31.7644L40.4727 30.8864C40.5702 30.8075 40.6338 30.6947 40.65 30.5706L40.7097 30.1228C40.7318 29.9578 40.6683 29.7927 40.5411 29.6853L39.0033 28.3805C38.8511 28.2514 38.7924 28.0426 38.8555 27.8528L39.1831 26.8698C39.2497 26.6698 39.4369 26.5353 39.6473 26.5353H40.7131C40.7737 26.5353 40.8339 26.5239 40.8905 26.5017L42.7755 25.7686C42.9051 25.7184 43.0076 25.615 43.0564 25.4843L43.9811 23.0172C44.0349 22.8733 44.0185 22.7127 43.9362 22.5832L42.5108 20.3355C42.4999 20.3202 42.4892 20.3055 42.4783 20.2901L41.477 19.0434C41.2508 18.763 41.3952 18.3424 41.7459 18.2601L42.7544 18.0225C42.9318 17.9807 43.1176 18.0413 43.2367 18.1792L45.0518 20.2807C45.2145 20.469 45.4934 20.5023 45.6958 20.3575C45.9467 20.1786 45.9669 19.813 45.7372 19.6075L44.6911 18.6694C44.5364 18.5305 44.4861 18.3087 44.566 18.117L44.8749 17.376C44.9676 17.1539 45.2105 17.034 45.443 17.0961L45.4927 17.1094C45.7436 17.1765 46.0021 17.0321 46.0775 16.7837L46.6767 14.8019C46.7103 14.6916 46.7034 14.5734 46.658 14.4673L45.8996 12.6979C45.8499 12.5816 45.7567 12.4889 45.6405 12.4397L43.4026 11.4947C43.2213 11.4183 43.1034 11.2405 43.1034 11.0438V10.4077C43.1034 10.1378 43.3227 9.91857 43.5926 9.91857H46.3858C46.6454 9.91857 46.8597 9.71552 46.8744 9.45632L46.8868 9.23659C46.8996 9.00258 47.0794 8.81187 47.3125 8.78526L48.4644 8.65375C48.7595 8.61974 49.0168 8.85519 49.0089 9.15241L48.9685 10.729C48.965 10.8669 49.0197 11.0001 49.1197 11.0957L50.6944 12.599C51.0191 12.9088 51.5553 12.6541 51.5203 12.2068L51.4542 11.3736C51.4449 11.2539 51.3916 11.142 51.3054 11.0592L50.4667 10.2541C50.2129 10.0102 50.2917 9.5864 50.616 9.44992L52.5243 8.64831C52.7633 8.54775 52.8825 8.27878 52.7963 8.03435L52.71 7.7904C52.652 7.62632 52.7814 7.45631 52.955 7.46914L54.8657 7.60563C55.0063 7.6159 55.125 7.50507 55.125 7.36457V7.15173C55.125 7.03946 55.0472 6.94178 54.9378 6.91628L54.9384 6.91619Z" fill="#FFCC00"/>
<path d="M41.7767 37.5597L43.4116 37.4305C43.5944 37.4163 43.7535 37.301 43.8244 37.1319L44.4703 35.5922C44.4817 35.5518 44.4924 35.5123 44.5033 35.4719L44.7014 34.0844C44.7231 33.9322 44.6719 33.7779 44.563 33.669L44.1014 33.2074C43.9157 33.0216 43.617 33.0157 43.4239 33.1936L40.9333 35.489C40.7854 35.6251 40.7361 35.8379 40.8086 36.0255L41.2816 37.248C41.3604 37.4504 41.5615 37.5765 41.7767 37.5597Z" fill="#FFCC00"/>
<path d="M43.833 39.2057L40.1027 38.6859C39.8287 38.6479 39.6404 38.3903 39.6882 38.1173L39.7966 37.4945C39.8257 37.3281 39.7666 37.158 39.6404 37.0456L37.608 35.2329L36.627 34.4249C36.4176 34.2524 36.1269 34.5022 36.2658 34.7352L37.4079 36.6509C37.4222 36.6711 37.436 36.6908 37.4503 36.711L39.5557 39.2716C39.6247 39.3553 39.7198 39.414 39.8256 39.4381L43.3131 40.2254C43.3766 40.2274 43.4387 40.229 43.5029 40.2304L43.8472 40.1724C44.3985 40.0793 44.3866 39.283 43.8329 39.2057L43.833 39.2057Z" fill="#FFCC00"/>
<path d="M49.3789 16.9885L49.676 16.721C49.8809 16.5362 49.8933 16.2185 49.7021 16.0188L47.6233 13.8458C47.4233 13.6364 47.0911 13.8922 47.2424 14.139L48.3125 15.8851C48.3336 15.9394 48.3543 15.9926 48.3755 16.0468L48.8732 18.5898C48.8623 18.6883 48.8525 18.7805 48.8416 18.879L48.3563 19.995C48.2947 20.0679 48.2376 20.136 48.176 20.2088L46.8058 21.1079C46.5678 21.2641 46.5126 21.5897 46.6866 21.8153C46.8453 22.0213 47.137 22.0676 47.3513 21.9202L49.7513 20.2731C49.9287 20.1513 50.006 19.9277 49.9411 19.7223L49.2389 17.4987C49.1818 17.3166 49.236 17.1171 49.3789 16.9885Z" fill="#FFCC00"/>
<path d="M45.5752 29.3355C45.5516 29.2739 45.5288 29.2147 45.5052 29.1531L45.3383 28.1515C45.3102 27.9834 45.1214 27.8963 44.9756 27.984L44.7105 28.1431C44.5139 28.2608 44.4257 28.4998 44.4982 28.7176L45.7654 32.5199C45.8027 32.6327 45.8802 32.7278 45.9832 32.7879L46.7729 33.2486C47.035 33.4013 47.371 33.2816 47.4775 32.9977L47.5505 32.8025C47.6047 32.6587 47.5874 32.4975 47.5051 32.3679L45.5752 29.3355Z" fill="#FFCC00"/>
<path d="M46.0186 36.743C45.927 36.4015 45.5145 36.267 45.2391 36.4888L44.9188 36.7465C44.8035 36.8397 44.7365 36.9796 44.7365 37.1274V38.0049C44.7365 38.2749 44.9557 38.4941 45.2257 38.4941H45.8504C46.1721 38.4941 46.4061 38.1886 46.3229 37.8782L46.0186 36.743Z" fill="#FFCC00"/>
</svg>
