<svg width="64" height="43" viewBox="0 0 64 43" fill="none" xmlns="http://www.w3.org/2000/svg">
<rect x="3.43323e-05" y="0.497849" width="64" height="41.8618" fill="#6CACE4"/>
<rect x="3.62396e-05" y="0.352646" width="64" height="26.2882" fill="#00247D"/>
<path d="M22.5708 30.7706L20.0703 31.1805L18.8201 30.7706L17.9866 29.5408V27.9011L17.4135 25.8516L15.4861 22.9821L16.0591 22.1623L15.4861 20.5226L15.9028 19.2929L16.7363 18.4731L19.0312 16.6719L21.3438 15.875L22.1875 14.1406L23.2969 12.9531L24.2378 11.5045L24.5 11.0156C25.0173 10.8429 25.4791 11.0946 25.8125 11.0946C26.1459 11.0946 26.8298 11.0077 26.9688 10.7344L27.4844 9.76562L28.4062 8.85938L30.489 8.22514H31.583H32.8438L33.823 9.04497L34.2398 11.0946L35 11.5045V9.86481L35.6562 7.54688L36.0469 6.78125L37.8906 7.28125L39.2407 9.04497L40.491 9.86481L41.3245 12.3243L42.9531 13.7656L44.6585 15.1937L47.2969 18.0938L48.375 20.625V22.9821C47.9583 23.9386 47.4924 26.0155 47.159 26.6714C46.8256 27.3273 46.7422 28.5843 46.7422 29.1309L45.0752 30.7706L42.158 32.0003H38.4072L35.9068 29.5408L33.823 29.1309L32.156 27.4912C31.7393 27.3546 31.1558 27.4912 30.489 27.4912C29.8222 27.4912 27.155 28.5843 25.9048 29.1309L22.5708 30.7706Z" fill="white"/>
<path d="M46.5234 21.1616C45.9991 20.1819 45.9933 19.3261 45.3926 18.4677C44.8105 17.6358 44.0826 17.6506 43.8282 16.587C43.7047 16.5731 43.8153 16.7129 43.7951 16.7218C43.6356 16.6421 43.49 16.5068 43.3312 16.4941C43.3046 16.5891 43.3909 16.6801 43.3624 16.7703C42.9164 16.4417 42.7414 15.8507 42.351 15.417C42.155 15.1994 41.7078 14.8009 41.2012 14.5122C40.6696 14.2092 40.4487 14.248 40.1202 13.6556C39.8698 13.2041 39.4569 12.2065 39.3416 11.6197C39.1736 10.763 38.4262 11.2223 38.1913 11.0005C37.8996 10.7251 37.6634 9.86778 37.5047 9.50594C37.2536 8.93375 36.3603 7.66985 36.6612 9.41934C36.6277 9.57035 36.5287 9.65966 36.7001 9.98297C36.1672 10.4736 36.8025 12.2627 36.4807 13.1039C35.9667 14.447 34.9264 13.3381 34.0236 12.9855C33.6664 12.846 33.2655 12.7507 32.9975 12.5819C32.0028 11.9556 32.6746 12.0292 32.497 11.1076C32.4122 10.6674 32.8748 10.8719 32.888 10.4178C32.8994 10.0245 32.8674 9.5747 32.6204 10.1867C32.4592 10.0748 32.3184 10.0937 32.2026 10.0523C32.2901 9.91251 32.2895 9.90338 32.3272 9.77255C31.5424 10.5456 30.1936 9.6477 29.3677 9.66492C29.6955 9.75491 29.9117 9.91657 30.0613 10.2734C29.609 10.5022 28.968 10.1742 28.7827 10.7584C28.3781 10.7568 27.6618 12.2894 28.2624 12.5547C28.1157 12.6749 28.1359 12.588 28.1382 12.8085C27.714 12.7066 28.0998 12.7086 27.8408 12.8604C27.4809 12.5345 27.1514 12.5577 27.1669 13.0484C27.1386 12.9672 27.0431 13.0361 27.0374 13.0878C27.2899 11.7951 25.7847 12.2808 25.4962 12.2314C25.491 12.3787 25.4149 12.591 25.4158 12.7388C25.3635 12.6543 25.3208 12.596 25.2442 12.6919C25.2781 12.7214 25.2159 12.4835 25.2114 12.4752C25.06 12.8731 25.0227 12.7233 25.0905 13.097C24.7515 13.4114 24.8641 13.0673 24.8693 13.4567C24.5211 13.4639 24.4478 13.4159 24.5501 13.8851C24.5357 13.8702 24.6218 13.7367 24.6376 13.7458C24.6574 13.9214 24.5518 13.9938 24.5019 14.1228C24.5771 14.1616 24.726 14.1242 24.7811 14.1892C24.0369 14.0692 23.7525 14.2119 24.1589 14.8246C24.2115 14.7173 24.0137 15.1594 24.0214 15.1483C23.8998 14.8734 23.6268 14.639 23.4782 14.3722C22.9751 14.9455 23.2768 15.298 23.1098 15.8036C22.8401 16.6198 22.2544 17.0571 21.5238 17.4048C20.2101 18.0299 18.4845 18.3648 17.7602 19.8255C17.7406 19.6502 17.6936 19.4949 17.6849 19.3108C17.4499 19.6236 17.4037 20.5157 17.4523 20.9069C17.5336 21.5624 18.3362 22.4263 18.0841 22.9575C18.0286 22.8869 17.9609 22.7369 17.8985 22.681C17.9841 22.7654 17.6561 22.5191 17.57 22.3788C17.6709 22.5278 17.8206 23.004 17.8927 23.1422C17.7751 23.0415 17.6796 22.9256 17.5493 22.7779C17.5284 22.8417 17.5648 22.9653 17.437 22.8755C18.1041 23.4916 20.711 28.7299 19.4448 28.6104C19.2023 30.1393 22.2275 29.8007 22.7894 28.7838C23.1317 28.1644 24.2045 28.4556 24.7471 28.3496C25.6484 28.1736 25.5539 27.5487 26.2324 27.2867C28.1516 26.5458 29.584 25.6969 31.6291 25.8724C32.7348 25.9672 33.8226 26.4663 34.1177 27.7402C34.1673 27.6728 33.9212 27.7598 33.9313 27.7531C34.1387 27.9091 34.3516 27.962 34.5762 28.0092C34.4439 27.1609 35.5321 26.753 35.6306 25.8684C36.013 26.4831 35.6515 27.7322 35.255 28.1447C35.8125 28.1329 36.0138 27.672 36.0081 27.1502C36.3916 27.4608 36.4635 27.9242 36.2219 28.3428C36.422 28.224 36.783 28.1898 36.9823 28.0496C37.0057 28.0262 37.0117 28.2466 37.0112 28.2458C36.9362 28.2586 36.8728 28.1885 36.7791 28.2481C37.7912 28.8706 37.365 29.8481 38.6159 30.2278C39.4065 30.4677 40.4171 30.6961 41.1166 29.9645C41.1193 29.9426 40.9008 29.9139 40.9165 29.9259C41.4135 29.6677 41.3757 29.7254 41.1676 30.0708C41.3411 30.006 41.4595 30.103 41.693 29.9113C41.8009 30.2938 42.072 30.426 42.4318 30.6187C42.3402 30.4563 42.48 30.501 42.293 30.3038C42.7629 30.2021 42.7665 29.8655 43.1439 29.6558C43.4336 29.4948 44.2295 29.379 44.4172 29.2059C44.9838 28.6834 44.6839 28.262 44.8241 27.485C44.9215 26.9455 45.2322 26.3132 45.3032 25.8825C45.8188 24.2905 46.7074 23.1697 46.5234 21.1616Z" fill="#6CACE4"/>
<path d="M37.2277 3.49797L36.9594 4.32389H36.0909L36.7935 4.83434L36.5252 5.66026L37.2277 5.14981L37.9303 5.66026L37.6619 4.83434L38.3645 4.32389H37.4961L37.2277 3.49797Z" fill="white"/>
<path d="M42.6575 3.49797L42.3892 4.32389H41.5208L42.2233 4.83434L41.955 5.66026L42.6575 5.14981L43.3601 5.66026L43.0917 4.83434L43.7943 4.32389H42.9259L42.6575 3.49797Z" fill="white"/>
<path d="M48.0873 3.49797L47.819 4.32389H46.9506L47.6531 4.83434L47.3848 5.66026L48.0873 5.14981L48.7899 5.66026L48.5216 4.83434L49.2241 4.32389H48.3557L48.0873 3.49797Z" fill="white"/>
<path d="M31.7979 3.49785L31.5296 4.32377H30.6611L31.3637 4.83421L31.0954 5.66013L31.7979 5.14969L32.5005 5.66013L32.2321 4.83421L32.9347 4.32377H32.0663L31.7979 3.49785Z" fill="white"/>
<path d="M26.3681 3.49797L26.0998 4.32389H25.2313L25.9339 4.83434L25.6655 5.66026L26.3681 5.14981L27.0707 5.66026L26.8023 4.83434L27.5049 4.32389H26.6365L26.3681 3.49797Z" fill="white"/>
<path d="M20.9383 3.49797L20.6699 4.32389H19.8015L20.5041 4.83434L20.2357 5.66026L20.9383 5.14981L21.6409 5.66026L21.3725 4.83434L22.0751 4.32389H21.2067L20.9383 3.49797Z" fill="white"/>
<path d="M15.5085 3.49797L15.2401 4.32389H14.3717L15.0743 4.83434L14.8059 5.66026L15.5085 5.14981L16.2111 5.66026L15.9427 4.83434L16.6453 4.32389H15.7768L15.5085 3.49797Z" fill="white"/>
<path d="M48.4454 35.8017L48.1771 36.6276H47.3087L48.0112 37.138L47.7429 37.964L48.4454 37.4535L49.148 37.964L48.8797 37.138L49.5822 36.6276H48.7138L48.4454 35.8017Z" fill="white"/>
<path d="M43.0156 35.8017L42.7473 36.6276H41.8789L42.5814 37.138L42.3131 37.964L43.0156 37.4535L43.7182 37.964L43.4498 37.138L44.1524 36.6276H43.284L43.0156 35.8017Z" fill="white"/>
<path d="M37.5858 35.8017L37.3175 36.6276H36.449L37.1516 37.138L36.8833 37.964L37.5858 37.4535L38.2884 37.964L38.02 37.138L38.7226 36.6276H37.8542L37.5858 35.8017Z" fill="white"/>
<path d="M32.156 35.8017L31.8877 36.6276H31.0192L31.7218 37.138L31.4535 37.964L32.156 37.4535L32.8586 37.964L32.5902 37.138L33.2928 36.6276H32.4244L32.156 35.8017Z" fill="white"/>
<path d="M26.7262 35.8017L26.4579 36.6276H25.5894L26.292 37.138L26.0236 37.964L26.7262 37.4535L27.4288 37.964L27.1604 37.138L27.863 36.6276H26.9946L26.7262 35.8017Z" fill="white"/>
<path d="M21.2964 35.8017L21.0281 36.6276H20.1596L20.8622 37.138L20.5938 37.964L21.2964 37.4535L21.999 37.964L21.7306 37.138L22.4332 36.6276H21.5648L21.2964 35.8017Z" fill="white"/>
<path d="M15.8666 35.8017L15.5982 36.6276H14.7298L15.4324 37.138L15.164 37.964L15.8666 37.4535L16.5692 37.964L16.3008 37.138L17.0034 36.6276H16.135L15.8666 35.8017Z" fill="white"/>
</svg>
