<svg width="64" height="42" viewBox="0 0 64 42" fill="none" xmlns="http://www.w3.org/2000/svg">
<rect x="6.10352e-05" y="-4.57764e-05" width="64" height="42" fill="#674086"/>
<rect x="6.10352e-05" y="14.7685" width="64" height="27.2315" fill="#135ADC"/>
<path d="M44.8725 27.9807L42.9492 27.3528C42.9492 27.3528 42.9099 27.3528 42.9099 27.3135L42.0465 26.5285C42.0073 26.4893 42.0073 26.4893 42.0073 26.4501L41.9287 25.822C41.8895 25.5865 41.6932 25.4295 41.4578 25.4295H40.6335C40.5551 25.4295 40.5157 25.3903 40.5157 25.3117L40.3979 24.8407C40.3979 24.7623 40.4371 24.6837 40.4764 24.6837L40.6334 24.6445C40.7904 24.6053 40.9081 24.4482 40.9475 24.2912C40.9867 24.1342 40.9475 23.9379 40.7904 23.8203L40.1232 23.2315C40.084 23.1923 40.084 23.1923 40.084 23.153L40.0448 22.4859C40.0448 22.2896 39.8878 22.0934 39.6523 22.0541L38.4356 21.8187C38.3571 21.8187 38.3177 21.7402 38.3177 21.7009L38.2393 19.8562C38.2393 19.8169 38.2393 19.7777 38.2001 19.6991L37.886 18.8357C37.8468 18.7572 37.886 18.6787 37.9645 18.6787L38.2785 18.5609C38.357 18.5216 38.3963 18.443 38.357 18.3646C38.357 18.2862 38.2785 18.2468 38.1999 18.2468H36.5515C36.3552 18.2468 36.1982 18.3646 36.1198 18.5609L35.9627 18.9926C35.9235 19.1104 35.9235 19.2673 36.002 19.3851L36.3553 20.0916C36.3945 20.1309 36.3945 20.1701 36.3553 20.2095L36.0412 20.759C36.002 20.8374 35.9234 20.8768 35.8449 20.7982L35.5309 20.5235C35.4524 20.4451 35.3346 20.4057 35.2168 20.4057C34.9814 20.4057 34.8243 20.5627 34.7459 20.759L34.3534 22.3682L33.9609 23.5065C33.9609 23.5458 33.8824 23.585 33.8431 23.585H33.0189C32.9404 23.585 32.9011 23.5458 32.9011 23.5065L32.8226 23.3103C32.7834 23.2318 32.7048 23.1925 32.6264 23.1925L31.2526 23.585C31.0956 23.6242 31.0171 23.7028 30.9385 23.8597L30.5853 24.6447C30.546 24.7231 30.4674 24.7231 30.4674 24.7231C30.4282 24.7231 30.389 24.7231 30.3496 24.6447L29.9966 23.8595C29.9182 23.7025 29.7611 23.5848 29.5649 23.5848H29.5257L28.4266 23.7025C28.3874 23.7025 28.3481 23.6633 28.3088 23.6241L27.8771 22.9569C27.8378 22.9177 27.8378 22.8784 27.8771 22.8391L28.3088 21.7794C28.348 21.7009 28.348 21.6616 28.348 21.5831L28.3088 20.7197C28.3088 20.4056 27.9555 20.1701 27.6416 20.3272L27.2491 20.4449C27.1313 20.4841 27.0136 20.6411 26.9744 20.7589L26.7389 21.7794C26.6997 21.8578 26.7389 21.9364 26.7389 22.0541L27.2099 23.4279L27.4846 24.0558V24.1736C27.4846 24.2129 27.4453 24.2521 27.4061 24.2521L26.6603 24.5661H26.5819L26.2678 24.4877C26.0716 24.4485 25.8753 24.5269 25.7575 24.6839L24.58 26.568C24.58 26.6072 24.5408 26.6072 24.5015 26.6072L23.6381 26.9213C23.5596 26.9605 23.4811 26.9998 23.4418 27.0783L22.4606 28.3343C22.4214 28.3735 22.3821 28.3735 22.3428 28.3735L22.0681 28.3343C21.8326 28.2951 21.5578 28.4521 21.5185 28.7268C21.5185 28.766 21.4401 28.8446 21.4007 28.8446L21.0082 28.8838C20.812 28.923 20.6157 29.0408 20.5765 29.2763C20.5373 29.4726 20.6157 29.6688 20.812 29.7866L21.1653 29.9829C21.2045 29.9829 21.2045 30.0221 21.2045 30.0221L22.1073 31.8276V31.9454L21.597 33.2013C21.5578 33.2406 21.5186 33.2798 21.4792 33.2798L17.8289 33.2797C17.5542 33.2797 17.358 33.4759 17.358 33.7506V37.6756C17.358 37.9503 17.5542 38.1466 17.8289 38.1466L18.6139 38.1467C18.6531 38.1467 18.6924 38.1859 18.7317 38.2252L18.8102 38.3822C18.8886 38.5392 19.0456 38.6177 19.2027 38.6177C19.2811 38.6177 19.3597 38.6177 19.4382 38.5784L19.8307 38.3822H19.9091L21.0474 38.343C21.1652 38.343 21.3221 38.2645 21.4007 38.1859L22.2641 37.1262C22.3034 37.087 22.3426 37.0084 22.3426 36.9692L22.7743 35.4776C22.7743 35.4384 22.8135 35.3992 22.8527 35.3992L23.9518 34.8104C24.1088 34.732 24.1873 34.6142 24.1873 34.4571L24.2657 33.79C24.2657 33.7115 24.305 33.6721 24.3836 33.6721L25.8357 33.3974C25.9536 33.3582 26.0712 33.319 26.1498 33.2012L26.4245 32.8479C26.4637 32.8087 26.503 32.8087 26.5815 32.8087L26.7778 32.8479C26.8956 32.8871 27.0525 32.8479 27.1703 32.7695L27.445 32.5732C27.4842 32.534 27.5234 32.534 27.5628 32.5732L28.2694 32.8479C28.3086 32.8479 28.3478 32.8871 28.3478 32.9657L28.5048 33.8292C28.5048 33.947 28.5833 34.0254 28.6619 34.1039L29.5253 34.8496L29.5645 34.8889L31.1738 35.9094C31.213 35.9094 31.213 35.9486 31.2522 35.9878L31.4092 36.655L31.4095 37.2047C31.4095 37.2831 31.4487 37.3617 31.5273 37.3617C31.6058 37.4009 31.6843 37.3617 31.7236 37.2832L32.1553 36.616C32.2337 36.4982 32.2337 36.3413 32.1945 36.2235L32.0375 35.7132H32.0767L32.5084 35.9487C32.5476 35.9487 32.5476 35.9879 32.5869 35.9879C32.6653 35.9879 32.7439 35.9095 32.7439 35.8309C32.7439 35.7917 32.7047 35.7524 32.7047 35.7131L32.273 35.0065C32.2337 34.9281 32.1551 34.8495 32.0767 34.8103L31.2525 34.3785L30.5853 33.8682L30.5461 33.829L29.5256 32.0627C29.4864 32.0235 29.4864 31.9449 29.5256 31.9057L29.9965 31.2385C30.0357 31.1601 30.1535 31.1601 30.232 31.2385L31.2133 32.6123L31.488 33.044C31.5664 33.1618 31.6842 33.2403 31.802 33.2403L32.4692 33.3187C32.5084 33.3187 32.5084 33.3187 32.5477 33.3579L33.4505 34.1037C33.4897 34.1429 33.4897 34.1822 33.4897 34.2215V35.4382C33.4897 35.5167 33.5289 35.6345 33.5681 35.7129L34.3532 36.9297C34.3924 37.0081 34.471 37.0867 34.5886 37.1259L34.9027 37.2437C34.8635 37.283 34.8242 37.3222 34.7849 37.4008C34.7064 37.5578 34.7457 37.7148 34.8241 37.8325L34.9026 37.9895C34.981 38.1465 35.138 38.225 35.3343 38.225H35.4521C35.6091 38.225 35.7268 38.1465 35.8054 38.0287C35.8838 37.9109 35.9232 37.754 35.8446 37.597L35.4916 36.5767V36.5374L35.5308 35.517C35.5308 35.4777 35.57 35.3992 35.6092 35.3992L36.6297 34.9674H36.7475L36.8653 35.0459C37.1008 35.1637 37.4149 35.0459 37.5325 34.8104L37.6503 34.4964C37.6503 34.4571 37.7288 34.4179 37.7681 34.4179L38.1214 34.3787C38.2784 34.3787 38.3961 34.2609 38.4747 34.1432C38.5531 34.0254 38.5531 33.8685 38.5139 33.7115V33.6723V33.5545L39.6914 31.0032C39.6914 30.964 39.7307 30.9247 39.7699 30.9247L40.9082 30.6893H40.9474L41.4183 30.8855C41.4576 30.8855 41.4968 30.9247 41.4968 30.964C41.4968 31.0032 41.4968 31.0424 41.4576 31.0818C41.3398 31.2388 41.3398 31.3958 41.4183 31.5527L41.5754 31.8668C41.6932 32.1022 42.0071 32.22 42.2426 32.063L42.7135 31.7883C42.8313 31.7099 42.9098 31.5921 42.949 31.4743C42.9882 31.3564 42.949 31.1996 42.8312 31.0817L42.7527 30.9639C42.7135 30.9247 42.6743 30.8855 42.5957 30.8461L44.9899 29.1977C45.1077 29.1192 45.1862 28.9622 45.1862 28.8052V28.3342C45.1863 28.2163 45.0686 28.0201 44.8724 27.9808L44.8725 27.9807Z" fill="white"/>
<path d="M31.0956 36.8906L30.0751 37.2831C30.0359 37.3223 29.9967 37.3615 29.9573 37.4009C29.9573 37.4401 29.9573 37.5187 29.9966 37.5579L30.3891 37.9896C30.4283 38.0289 30.4675 38.0289 30.5069 38.0289H31.0956C31.1741 38.0289 31.2527 37.9504 31.2527 37.8718L31.3311 37.0476C31.3311 37.0084 31.2919 36.9298 31.2527 36.8906H31.0956Z" fill="white"/>
<path d="M27.7985 34.9673L27.9163 34.8889C27.9556 34.8496 27.9556 34.8104 27.9556 34.7711V34.2607C27.9556 34.1823 27.9163 34.1429 27.8378 34.1037C27.7593 34.0645 27.6807 34.1037 27.6415 34.1429L27.406 34.457C27.3668 34.4962 27.3668 34.5748 27.3668 34.6532L27.4453 34.8495L27.0135 35.2028C26.9743 35.242 26.9351 35.3206 26.9743 35.399L27.2098 36.1448C27.2098 36.184 27.249 36.2233 27.3276 36.2626H27.3668C27.406 36.2626 27.4453 36.2626 27.4846 36.2234L28.0342 35.7917C28.1126 35.7525 28.1126 35.6739 28.0734 35.5954L27.7985 34.9673Z" fill="white"/>
<path d="M19.7522 22.1324L19.713 22.9567C19.713 23.0351 19.7522 23.1137 19.7914 23.1529C19.8306 23.1921 19.9092 23.2314 19.9877 23.2314H20.0661L20.5371 23.0743L20.6941 24.6443L19.7914 25.7042C19.7129 25.7826 19.7129 25.9004 19.7522 25.9789C19.7914 26.0573 19.87 26.1359 19.9484 26.1751L20.7334 26.2929L20.3409 26.6462L19.3989 27.0779C19.3204 27.1172 19.2811 27.1564 19.3204 27.235C19.3597 27.3134 19.3597 27.3528 19.4382 27.392L20.1448 27.5882H20.2233C20.3017 27.5882 20.3803 27.549 20.4195 27.5098L20.8512 27.0389L22.382 26.9211C22.4605 26.9211 22.5391 26.8818 22.5783 26.8032L23.2455 25.7828C23.2847 25.7043 23.2847 25.6257 23.2847 25.5865L23.2063 25.1548C23.167 24.9978 22.9708 24.8801 22.8137 24.9585L22.5783 25.0764L22.4605 24.8016L22.3427 23.5457C22.3427 23.5065 22.3034 23.4673 22.3034 23.4279L21.3614 22.1325C21.3222 22.0932 21.3222 22.054 21.283 22.054C20.9689 21.897 20.7726 21.7793 20.655 21.74C20.7334 21.6222 20.8905 21.4259 21.1259 21.0728C21.1651 21.0336 21.1651 20.9943 21.1651 20.955L21.2436 20.484C21.2436 20.3662 21.1651 20.2093 21.0473 20.17L20.3015 19.9737H20.2231H20.1839L20.6156 19.3458C20.6548 19.3065 20.6548 19.2279 20.6156 19.1887C20.5764 19.1495 20.5371 19.1103 20.4586 19.1103H19.8698C19.7914 19.1103 19.6736 19.1495 19.6343 19.2281L18.9278 20.4056C18.8885 20.484 18.8885 20.6018 18.9278 20.6803L19.7522 22.1324Z" fill="white"/>
<path d="M18.9672 25.1547L18.8888 24.4089L19.2028 23.7417C19.2421 23.6633 19.2421 23.5847 19.2028 23.5455L18.9674 22.8389C18.9281 22.7211 18.8103 22.6427 18.6927 22.6427H18.6142L17.5545 22.9174C17.4761 22.9174 17.4367 22.9566 17.3975 23.0352L16.9658 23.6631C16.9265 23.7024 16.9265 23.7809 16.9265 23.8202V24.6052C16.9265 24.6836 17.005 24.7622 17.0836 24.7622H17.162C17.044 24.8799 17.044 24.9191 17.044 24.9584C17.044 25.0369 17.0832 25.1155 17.201 25.1939L16.73 25.7042C16.6516 25.822 16.6516 25.9789 16.73 26.0967L16.9263 26.293C16.9655 26.3322 17.0441 26.3714 17.1225 26.3714C17.1618 26.3714 17.2403 26.3714 17.2796 26.3322L18.8104 25.4294C18.928 25.3902 18.9673 25.2724 18.9673 25.1547L18.9672 25.1547Z" fill="white"/>
<path d="M25.4043 16.2056C25.4435 16.3234 25.5613 16.4019 25.679 16.4019H25.7574L26.5032 16.1664L25.7182 19.1102C25.679 19.1886 25.7182 19.2672 25.7574 19.3457C25.7967 19.4241 25.8752 19.4635 25.9929 19.4635H27.5237C27.6415 19.4635 27.7592 19.385 27.7984 19.3064L28.2693 18.1289L29.9964 22.3287C30.0356 22.4465 30.1534 22.4857 30.2319 22.4857C30.2711 22.4857 30.3103 22.4857 30.3497 22.4465L31.488 21.8578C31.5664 21.8185 31.645 21.74 31.645 21.6223L31.9197 18.5215L32.7831 18.286C32.9009 18.2468 32.9794 18.1682 32.9794 18.0505L33.0186 17.6188C33.0186 17.5404 33.0186 17.4618 32.9402 17.4225C32.9009 17.3833 32.8224 17.3441 32.7047 17.3441L31.8412 17.4619L32.4692 14.4789L34.3139 13.0659C34.3531 13.0267 34.3924 12.9481 34.4317 12.8697L34.5888 11.6137L35.1775 10.3578L36.198 10.1615L36.826 11.5353L35.7663 12.8306L34.5495 14.2436C34.5103 14.2828 34.4711 14.3614 34.4711 14.4399L34.6281 16.5594C34.6281 16.6379 34.6673 16.7164 34.7459 16.7557L35.6094 17.4622C35.6486 17.5015 35.7272 17.5407 35.7664 17.5407H35.8448L36.7869 17.1874L38.0428 17.1482C38.1213 17.1482 38.1999 17.1089 38.2391 17.0304L40.2408 14.4007C40.3193 14.2828 40.3193 14.1652 40.2408 14.0474L39.8091 13.3798L39.495 11.692L39.8091 10.8285C39.8483 10.7501 39.8483 10.7107 39.8091 10.6323L39.2596 9.14068L39.5343 7.45284C39.5343 7.37439 39.5343 7.29582 39.4558 7.21737L38.7886 6.58939L38.9849 4.3914L39.6914 3.68483C39.7699 3.56716 39.8091 3.44935 39.7699 3.3709L39.6521 3.05685C39.6129 2.93904 39.4951 2.8606 39.3774 2.8606L36.7083 2.93904C36.6691 2.93904 36.6298 2.93904 36.5905 2.97827L34.4317 4.11656L32.587 5.25486C32.5478 5.29408 32.5086 5.29408 32.5086 5.33331L30.7031 7.9238L30.6639 7.96302L28.8584 11.7311L28.3481 12.0845C28.2302 12.1629 28.191 12.2807 28.2302 12.4378L28.3481 12.791C28.3873 12.8695 28.4265 12.9089 28.5051 12.9481L28.6621 13.0265L26.9743 13.6545C26.9351 13.6545 26.8958 13.6937 26.8565 13.7329L25.3257 15.4208C25.2864 15.4992 25.2472 15.617 25.2864 15.6955L25.4043 16.2056Z" fill="white"/>
</svg>
