<svg width="64" height="43" viewBox="0 0 64 43" fill="none" xmlns="http://www.w3.org/2000/svg">
<path d="M7.62939e-06 42.8009L5.79352e-06 0.800903L64 0.800901L64 42.8009L7.62939e-06 42.8009Z" fill="#D50F17"/>
<rect x="-7.62939e-06" y="12.9375" width="64" height="29.9063" fill="#103793"/>
<path d="M22.375 3.3125L23.625 2.4375H26.125L27.25 3.59375V5.1875L28.8125 6.125L30.1562 4.75L32.0625 4.59375L33 4.75L33.9375 5.6875V4.25L37 2.96875L37.8125 3.59375L38.375 2.96875L39.5938 1.34375L42.9688 2.4375L48 6.5L48.75 7.5625L47.6875 9.4375L47.375 11.9375V13.875L46.5 14.25H44.9375L44.0625 13.5L42.2188 12.1562L41.1562 10.4375L41.75 12.1562V12.9375L42.0625 14.25L45.4375 15.9375V17.1875L46.5 18L47.375 20.5625L46.5 21L44.0625 21.1875V22.375L42.625 23.4062L41.4375 23L40.6562 23.5625V24.625L39.3125 25.4375V27.25L37.5625 29V31.9375L36.0625 32.5L34.6875 31.9375L34.4375 30.75L33 30.125L32.0625 30.75H30.3125L29.8438 31.75L30.3125 33.1875L31 32.1875H33.4375L34.25 33.1875L33.9375 34.9375L35.875 35.5938L35.25 38.0938L35.875 38.625H37.8125L38.8125 40V42H37L34.6875 41.625L33 40.6875L30.3125 38.625L29.2188 37.5625H28.1562L26.125 36.625L24.125 35.25L23.125 32.5L22.6875 33.1875L21.75 31.9375L21.125 31.0625L19.9375 29L19.75 26.6875L18.5625 24.3125L18.375 21.1875L20.0625 18L19.9375 16.125L20.9688 12.1562L20.25 9.78125L17.875 9.4375L16.5 8.875L16.25 7.0625L17.875 6.125L18.5625 4.75L20.25 4.25L21.125 2.8125L22.375 3.3125Z" fill="white"/>
<path d="M33.3936 7.65436H34.3747L34.9444 7.97915L34.1539 8.62763C34.1539 8.62763 33.5205 8.62763 33.3936 8.69236C33.2672 8.75694 33.3936 7.65436 33.3936 7.65436ZM31.2732 7.29784L30.102 7.94632L30.3235 9.21103C30.3235 9.21103 32.0962 9.69733 32.1906 9.7297C32.2856 9.76207 32.8553 9.53518 32.8553 9.53518C32.8553 9.53518 32.5702 7.84874 32.5702 7.65436L32.001 7.84936L31.2732 7.29784ZM32.0329 6.89173C32.1279 6.84374 32.8558 6.89316 32.8558 6.89316L33.3373 6.64921L33.0454 6.12911L32.6026 6.50875L32.4439 5.96807V5.50568L31.2733 5.67613C31.2731 5.67597 31.9379 6.93973 32.0329 6.89173ZM35.1971 7.65438C35.3877 7.71911 36.9384 7.97869 36.9384 7.97869L36.7803 7.29784H35.6091L35.2295 6.55181C35.2295 6.55181 34.5653 6.45487 34.6281 6.55181C34.6912 6.64923 35.008 7.58964 35.1971 7.65438ZM40.4827 11.0278L39.0906 10.1198L38.6785 9.24392L37.2654 8.23877L35.7038 7.97919C35.7038 7.97919 35.039 8.69285 35.039 8.79029C35.039 8.88723 35.2291 9.56853 35.3712 9.56853H37.0014L38.2039 10.8661L37.84 11.9687L39.0268 13.1364L40.2934 13.4608L40.2936 12.4878L39.2806 11.2555L40.4832 11.9039L40.4827 11.0278ZM35.5147 6.64923L36.939 6.89175L37.2667 6.50876L38.0783 4.86534L38.3948 4.28143C38.3948 4.28143 37.3187 4.11927 37.2667 4.11927C37.2147 4.11927 35.2613 4.89751 35.2613 4.89751V5.61118L36.0524 5.96818L35.5147 6.64923ZM45.4523 6.12561L45.1991 5.50555L42.0334 3.40566L39.9134 3.04913L39.0905 4.11934L38.3936 4.89758V5.50541L37.7607 6.12899C37.8558 6.06537 38.4886 6.87743 38.5836 6.89306C38.6787 6.90869 39.7871 6.89306 39.7871 6.89306L41.8126 8.85425C41.8126 8.85425 42.3818 10.7679 42.4773 10.719C42.5718 10.6705 44.7554 12.9409 44.8509 12.9409H46.2112L45.642 10.2166L46.2112 9.53338V8.69534L46.6858 7.97927V7.03886L45.4523 6.12561ZM35.0392 32.6603L37.3809 34.282H38.774L36.2734 32.8229L35.0392 32.6603ZM44.3135 18.6817L44.3449 17.7089L44.0602 17.9034L44.1867 17.2872L43.2688 16.5411L41.6549 15.6007L40.6419 14.1088L40.1041 14.9846L39.4713 14.7901L39.2812 13.882L38.142 13.2336L36.9709 13.2012L37.2666 14.4012L36.9702 14.9517L37.6981 16.0219L36.6851 16.768L36.9071 18.0003L36.5274 18.714L35.5776 17.6114L35.8313 16.6386L34.7552 16.4441L33.489 15.3739L32.8238 15.4708L32.5706 14.2061L33.8055 12.7464L34.9443 12.2277L35.4507 11.2873L36.2417 11.3525L36.4949 10.1202L35.7043 9.76364L35.1024 10.8339L35.071 10.0878L34.3746 9.66609L34.5954 9.14741L34.1526 8.62874L33.5824 9.3424L33.8361 10.153L33.3297 10.4773V9.34192C33.3297 9.34192 32.6655 10.1525 32.57 10.1849C32.4745 10.2173 31.5889 9.86059 31.5889 9.86059L29.8162 9.37428C29.8162 9.37428 28.3286 7.39586 28.2654 7.33129C28.2024 7.2664 26.7148 7.2664 26.7148 7.2664L25.86 4.73649L25.9232 4.21781L23.9611 3.63391L23.4864 3.86064L22.7266 4.86628L22.5052 4.54196L22.7584 4.41218L22.0305 4.05565L21.5241 4.67193L21.7456 5.48253L21.3342 5.70927L20.7328 5.22296L19.6884 5.70927L18.9287 6.4553L18.7386 7.07157L18.8968 7.78524L17.3141 8.20648L18.0106 8.49842H19.6883L19.8783 8.1419L21.1126 8.01211L20.2578 8.49842L21.0176 8.85494L21.4289 8.59584L21.8086 9.66605L22.2518 10.4443V13.655L21.8086 15.7309L21.4604 16.0874L21.7145 17.4167L20.6384 19.7192C20.6384 19.7192 19.8474 21.2763 19.8474 21.3733C19.8474 21.4707 20.1639 24.4542 20.1639 24.4542L20.9237 25.914L21.1451 27.5681L21.9049 30.0651L22.8228 31.4273L22.5696 30.4545L21.7148 27.4059L21.7467 26.4978L22.2214 27.3089L22.6961 28.8656L24.5 32.2062V33.3416L25.3548 34.4113L28.1717 36.0003L29.0897 35.8387L30.1977 36.6169L30.609 37.1684L32.2544 37.6876L33.2359 38.6604L33.426 39.2443L34.8498 40.2823L35.7364 40.6061H36.1796L35.9891 40.152L36.6855 39.8277L37.4772 41.2548L37.5086 40.2168L36.9067 39.4707L35.5455 39.8601L34.1534 38.952L34.6281 36.5529L33.9316 36.0983L31.779 36.1957L32.5387 35.5144L33.0134 33.3093L31.494 33.374L31.0508 34.2821L29.5 34.8655L28.2024 33.5033L28.1393 31.6871L28.5825 30.7791L28.5506 29.7088C28.5506 29.7088 29.975 28.9952 30.1333 28.9952C30.2915 28.9952 31.9372 29.3836 31.9372 29.3836L32.4436 28.7673L34.1844 29.189L34.6277 29.0269L35.1024 29.7406L35.9253 31.8159C35.9253 31.8159 36.2735 30.8755 36.2735 30.7779C36.2735 30.681 35.6721 28.4101 35.6721 28.4101L37.84 26.562L38.2358 24.7139L39.0592 23.6109L40.0717 23.1896C40.0717 23.1896 39.8816 22.3138 39.9771 22.2492C40.0717 22.184 41.2114 21.5032 41.2114 21.5032L41.686 22.1194L43.3009 21.1138L41.9711 20.7895L41.3697 19.9789L41.908 19.395L41.117 19.2652L40.009 19.9137L41.3388 18.6813L42.6995 18.8435L43.8079 17.9677L43.9656 18.3242L43.6491 19.9132C43.6491 19.9132 45.8332 19.9784 45.8332 19.8809C45.8332 19.7839 45.3273 18.5511 45.3273 18.5511L44.3135 18.6817ZM31.2729 7.07096V6.64923C31.2729 6.64923 30.8296 6.16292 30.7032 6.13006C30.5767 6.0977 29.5952 6.77854 29.5952 6.77854L29.3737 7.65438H29.8484L31.2729 7.07096ZM40.0084 34.2828C40.0084 34.2828 39.0909 34.8981 38.9954 34.8657L40.262 35.3198L41.8442 34.8672L41.0532 34.2828L40.0084 34.2828Z" fill="#103793"/>
</svg>
