<svg width="65" height="43" viewBox="0 0 65 43" fill="none" xmlns="http://www.w3.org/2000/svg">
<rect x="0.200012" y="0.734024" width="64" height="42" fill="#CC0127"/>
<rect x="0.200012" y="30.2302" width="64" height="5.14295" fill="white"/>
<rect x="0.200012" y="30.2302" width="64" height="5.14295" fill="white"/>
<rect x="0.200012" y="30.2302" width="64" height="5.14295" fill="white"/>
<rect x="0.0704651" y="8.36601" width="64" height="5.14295" fill="white"/>
<rect x="0.0704651" y="8.36601" width="64" height="5.14295" fill="white"/>
<rect x="0.0704651" y="8.36601" width="64" height="5.14295" fill="white"/>
<path d="M32.2 2.97786L33.1708 3.00383L34.139 3.08168L35.1019 3.21119L36.0568 3.392L37.0011 3.62363L37.9323 3.90543L38.8477 4.23664L39.745 4.61634L40.6215 5.04349L41.475 5.51693L42.3031 6.03536L43.1034 6.59735L43.8739 7.20136L44.6124 7.84575L45.3168 8.52874L45.9853 9.24846L46.6161 10.0029L47.2073 10.7901L47.7573 11.6078L48.2648 12.4538L48.7282 13.3258L49.1463 14.2213L49.5179 15.138L49.8421 16.0733L50.1179 17.0246L50.3446 17.9894L50.5216 18.965L50.6484 19.9487L50.7246 20.9379L50.75 21.9297L50.7246 22.9216L50.6484 23.9108L50.5216 24.8945L50.3446 25.8701L50.1179 26.8349L49.8421 27.7862L49.5179 28.7215L49.1463 29.6382L48.7282 30.5337L48.2648 31.4057L47.7573 32.2517L47.2073 33.0694L46.6161 33.8565L45.9853 34.611L45.3168 35.3307L44.6124 36.0137L43.8739 36.6581L43.1034 37.2621L42.3031 37.8241L41.475 38.3426L40.6215 38.816L39.745 39.2431L38.8477 39.6228L37.9323 39.9541L37.0011 40.2359L36.0568 40.4675L35.1019 40.6483L34.139 40.7778L33.1708 40.8557L32.2 40.8816L31.2292 40.8557L30.261 40.7778L29.2981 40.6483L28.3432 40.4675L27.3989 40.2359L26.4677 39.9541L25.5523 39.6228L24.655 39.2431L23.7785 38.816L22.925 38.3426L22.0969 37.8241L21.2966 37.2621L20.5261 36.6581L19.7876 36.0137L19.0832 35.3307L18.4147 34.611L17.7839 33.8565L17.1927 33.0694L16.6427 32.2517L16.1352 31.4057L15.6718 30.5337L15.2537 29.6382L14.8821 28.7215L14.5579 27.7862L14.2821 26.8349L14.0554 25.8701L13.8784 24.8945L13.7516 23.9108L13.6754 22.9216L13.65 21.9297L13.6754 20.9379L13.7516 19.9487L13.8784 18.965L14.0554 17.9894L14.2821 17.0246L14.5579 16.0733L14.8821 15.138L15.2537 14.2213L15.6718 13.3258L16.1352 12.4538L16.6427 11.6078L17.1927 10.7901L17.7839 10.0029L18.4147 9.24846L19.0832 8.52874L19.7876 7.84575L20.5261 7.20136L21.2966 6.59735L22.0969 6.03536L22.925 5.51693L23.7785 5.04349L24.655 4.61634L25.5523 4.23664L26.4677 3.90543L27.3989 3.62363L28.3432 3.392L29.2981 3.21119L30.261 3.08168L31.2292 3.00383L32.2 2.97786Z" fill="white"/>
<path d="M32.2 2.97786L33.1708 3.00383L34.139 3.08168L35.1019 3.21119L36.0568 3.392L37.0011 3.62363L37.9323 3.90543L38.8477 4.23664L39.745 4.61634L40.6215 5.04349L41.475 5.51693L42.3031 6.03536L43.1034 6.59735L43.8739 7.20136L44.6124 7.84575L45.3168 8.52874L45.9853 9.24846L46.6161 10.0029L47.2073 10.7901L47.7573 11.6078L48.2648 12.4538L48.7282 13.3258L49.1463 14.2213L49.5179 15.138L49.8421 16.0733L50.1179 17.0246L50.3446 17.9894L50.5216 18.965L50.6484 19.9487L50.7246 20.9379L50.75 21.9297L50.7246 22.9216L50.6484 23.9108L50.5216 24.8945L50.3446 25.8701L50.1179 26.8349L49.8421 27.7862L49.5179 28.7215L49.1463 29.6382L48.7282 30.5337L48.2648 31.4057L47.7573 32.2517L47.2073 33.0694L46.6161 33.8565L45.9853 34.611L45.3168 35.3307L44.6124 36.0137L43.8739 36.6581L43.1034 37.2621L42.3031 37.8241L41.475 38.3426L40.6215 38.816L39.745 39.2431L38.8477 39.6228L37.9323 39.9541L37.0011 40.2359L36.0568 40.4675L35.1019 40.6483L34.139 40.7778L33.1708 40.8557L32.2 40.8816L31.2292 40.8557L30.261 40.7778L29.2981 40.6483L28.3432 40.4675L27.3989 40.2359L26.4677 39.9541L25.5523 39.6228L24.655 39.2431L23.7785 38.816L22.925 38.3426L22.0969 37.8241L21.2966 37.2621L20.5261 36.6581L19.7876 36.0137L19.0832 35.3307L18.4147 34.611L17.7839 33.8565L17.1927 33.0694L16.6427 32.2517L16.1352 31.4057L15.6718 30.5337L15.2537 29.6382L14.8821 28.7215L14.5579 27.7862L14.2821 26.8349L14.0554 25.8701L13.8784 24.8945L13.7516 23.9108L13.6754 22.9216L13.65 21.9297L13.6754 20.9379L13.7516 19.9487L13.8784 18.965L14.0554 17.9894L14.2821 17.0246L14.5579 16.0733L14.8821 15.138L15.2537 14.2213L15.6718 13.3258L16.1352 12.4538L16.6427 11.6078L17.1927 10.7901L17.7839 10.0029L18.4147 9.24846L19.0832 8.52874L19.7876 7.84575L20.5261 7.20136L21.2966 6.59735L22.0969 6.03536L22.925 5.51693L23.7785 5.04349L24.655 4.61634L25.5523 4.23664L26.4677 3.90543L27.3989 3.62363L28.3432 3.392L29.2981 3.21119L30.261 3.08168L31.2292 3.00383L32.2 2.97786Z" fill="white"/>
<path d="M41.8098 12.0223C41.784 11.8773 41.686 11.7556 41.55 11.6993L40.0337 11.0705C39.9958 11.0607 39.9583 11.0508 39.9207 11.0407L36.172 10.63C36.1581 10.6283 36.1444 10.6257 36.1309 10.6222L35.9885 10.5854C35.7816 10.5318 35.7188 10.4219 35.6172 10.2812L35.5 10.0625C35.3203 9.88281 35.1022 9.79547 34.9903 9.6925L33.7098 8.51608C33.6196 8.43341 33.499 8.39254 33.3772 8.40415L32.2773 8.50739C32.2094 8.51381 32.1413 8.49607 32.0853 8.45728L30.8361 7.5933C30.7704 7.54782 30.7239 7.47911 30.7063 7.40079C30.6709 7.24422 30.5254 7.13788 30.3659 7.1523L28.4255 7.33C28.3649 7.33547 28.3041 7.32189 28.2516 7.29084L27.5219 6.85984C27.4297 6.80529 27.315 6.80623 27.2236 6.86192L24.4131 7.96531C24.3812 7.98475 24.3461 7.99777 24.3093 8.00391L23.4996 8.13754C23.2714 8.17519 23.1769 8.4518 23.3346 8.6211L23.8692 9.19479C23.9081 9.2365 23.9336 9.28869 23.9431 9.34465L24.0814 10.1741C24.0952 10.2579 24.0718 10.3434 24.0173 10.4083L23.216 11.3621C23.1965 11.385 23.1809 11.4111 23.1696 11.4389L22.8391 12.2469C22.8101 12.3173 22.8104 12.3965 22.8393 12.467L23.0095 12.8802C23.0655 13.0164 23.0484 13.1718 22.964 13.2924L22.9416 13.3243C22.8506 13.4541 22.8381 13.6234 22.9092 13.7653L23.0677 14.0825C23.0886 14.1242 23.1193 14.1604 23.1573 14.1877L22.9416 15.2612C22.9695 15.2813 23.216 15.7188 23.4996 16.25L25.4635 19.0598C25.4873 19.0952 25.5184 19.1247 25.5549 19.1465L27.5578 20.3481C27.6358 20.3949 27.6871 20.4754 27.697 20.5656L28.2014 24.2314C28.2066 24.2538 28.2116 24.2761 28.2168 24.2984L28.5731 25.2879C28.5893 25.3331 28.5942 25.3815 28.587 25.4288L28.3113 27.2805C28.2991 27.3614 28.3221 27.4434 28.3736 27.5069L28.62 27.8081C28.662 27.8594 28.6852 27.9238 28.6855 27.9902L28.6939 29.5501C28.6947 29.7203 28.8293 29.8597 28.9992 29.867L29.0531 29.8694C29.1963 29.8755 29.3181 29.9767 29.3502 30.1163L29.4422 30.5147C29.4601 30.5923 29.4451 30.6742 29.401 30.7408L28.9096 31.4777C28.8418 31.5798 29.1801 31.8004 29.1801 31.8004C29.2488 31.8201 29.2047 32.0729 29.1644 32.2512C29.1389 32.3648 29.1587 32.4843 29.2215 32.5822L31.5334 35.6273C31.5798 35.6997 31.6467 35.7566 31.7259 35.7908L34.6146 36.6054C34.7491 36.6634 34.9037 36.6495 35.0254 36.5683L35.0376 36.5602C35.3038 36.3825 35.2913 35.9871 35.0141 35.8268L34.8773 35.7476C34.8175 35.7131 34.7669 35.6646 34.7297 35.6064L33.9092 33.3224C33.8303 33.1989 33.8194 33.0435 33.8805 32.9102L34.3679 31.8442C34.4369 31.6931 34.4131 31.5157 34.307 31.3882L33.7327 30.6983C33.6576 30.6082 33.6443 30.4812 33.6991 30.3774L34.3932 29.0626C34.4224 29.0069 34.4392 28.9458 34.4424 28.8831L34.5082 27.5991C34.518 27.4077 34.6526 27.2459 34.8387 27.201L35.4243 27.0604C35.5457 27.0311 35.6487 26.9508 35.7063 26.84L36.045 26.191C36.1044 26.0768 36.1099 25.9422 36.0601 25.8237L36.0424 25.7813C35.9227 25.4966 36.1317 25.1818 36.4405 25.1818H36.5283C36.6909 25.1818 36.8399 25.0901 36.9137 24.9452L38.3035 22.4609C38.3566 22.356 38.3423 22.0208 38.3035 21.9098V21.5469C38.2502 21.3944 38.3815 21.2815 38.4922 21.1641L39.2017 20.5104C39.2831 20.4241 39.3967 20.375 39.5156 20.375H39.8577C40.0163 20.375 40.3753 19.553 40.4506 19.4139L40.8431 18.6892C40.8772 18.6259 40.8953 18.5552 40.8953 18.4833L41.1094 16.0859C41.1094 16.0097 41.7715 14.7457 41.8098 14.6797L42.2109 14.0234C42.2623 13.935 41.9764 12.9557 41.9585 12.8548L41.8098 12.0223Z" fill="white"/>
<path d="M42.0391 11.7507C42.0096 11.5846 41.8972 11.4451 41.7413 11.3806L40.0037 10.66C39.9602 10.6488 39.9172 10.6374 39.8741 10.6258L35.8645 10.1367C35.8486 10.1347 35.8329 10.1317 35.8173 10.1277L35.6542 10.0855C35.4171 10.0241 35.3061 9.75088 35.4336 9.54159L35.4346 9.53997C35.5253 9.39115 35.4981 9.19876 35.3698 9.08076L33.9023 7.73254C33.799 7.6378 33.6608 7.59097 33.5211 7.60428L32.2606 7.72259C32.1829 7.72995 32.1048 7.70962 32.0407 7.66517L30.6091 6.67503C30.5337 6.6229 30.4805 6.54416 30.4602 6.4544V6.45375C30.4197 6.27432 30.2529 6.1531 30.0701 6.16963L27.8464 6.37328C27.777 6.37955 27.7072 6.36397 27.6471 6.32839L26.8109 5.83446C26.7052 5.77195 26.5737 5.77303 26.469 5.83684L24.3941 7.10135C24.3576 7.12363 24.3173 7.13856 24.2752 7.14559L23.3472 7.29873C23.0857 7.34188 22.9774 7.65888 23.1582 7.85291L23.7708 8.51036C23.8154 8.55817 23.8446 8.61797 23.8555 8.68211L24.014 9.63265C24.0299 9.72869 24.003 9.82668 23.9405 9.90109L23.0222 10.9942C22.9999 11.0204 22.982 11.0503 22.969 11.0822L22.5902 12.0082C22.557 12.0889 22.5574 12.1796 22.5906 12.2604L22.7856 12.7339C22.8497 12.8901 22.8301 13.0681 22.7334 13.2063L22.7078 13.2428C22.6034 13.3917 22.5892 13.5857 22.6706 13.7482L22.8523 14.1117C22.8762 14.1595 22.9115 14.2011 22.9549 14.2323L23.741 14.7998C23.7729 14.8227 23.8001 14.8513 23.8221 14.8838L25.598 17.5238C25.6252 17.5644 25.6608 17.5982 25.7027 17.6232L27.9981 19.0003C28.0874 19.0539 28.1462 19.1462 28.1576 19.2495L28.7357 24.5967C28.7416 24.6223 28.7473 24.6478 28.7533 24.6734L29.1616 25.8074C29.1802 25.8592 29.1858 25.9147 29.1775 25.9689L28.8616 28.091C28.8476 28.1836 28.8739 28.2776 28.9329 28.3504L29.2153 28.6956C29.2634 28.7545 29.29 28.8282 29.2904 28.9043L29.3 30.692C29.301 30.887 29.4552 31.0468 29.6499 31.0552L29.7116 31.0579C29.8758 31.0649 30.0153 31.1808 30.0522 31.3409L30.1575 31.7974C30.1781 31.8864 30.1609 31.9802 30.1104 32.0565L29.5472 32.9011C29.4695 33.018 29.8572 33.2709 29.8572 33.2709C29.9359 33.2935 29.8854 33.5832 29.8392 33.7875C29.81 33.9177 29.8326 34.0546 29.9047 34.1669L31.4081 36.5105C31.4613 36.5936 31.538 36.6587 31.6287 36.698L33.7933 37.6315C33.9474 37.6979 34.1246 37.682 34.2641 37.589L34.278 37.5797C34.583 37.3761 34.5687 36.9229 34.2511 36.7392L34.0943 36.6484C34.0258 36.6089 33.9677 36.5534 33.9251 36.4867L32.9849 35.0151C32.8944 34.8736 32.8819 34.6956 32.952 34.5428L33.5105 33.3211C33.5895 33.1479 33.5623 32.9446 33.4407 32.7985L32.7826 32.0079C32.6965 31.9046 32.6813 31.759 32.7441 31.6401L33.5395 30.1333C33.573 30.0695 33.5922 29.9994 33.5959 29.9276L33.6713 28.4561C33.6825 28.2367 33.8368 28.0514 34.0501 27.9999L34.7211 27.8387C34.8603 27.8052 34.9783 27.7132 35.0444 27.5862L35.4325 26.8423C35.5006 26.7115 35.5069 26.5573 35.4498 26.4214L35.4295 26.3729C35.2923 26.0466 35.5319 25.6858 35.8857 25.6858H35.9864C36.1728 25.6858 36.3435 25.5808 36.428 25.4146L37.9952 22.3234C38.056 22.2031 38.0653 22.0633 38.0208 21.936L37.8401 21.4194C37.779 21.2446 37.8206 21.0506 37.9474 20.916L39.2943 19.49C39.3877 19.3911 39.5179 19.3348 39.6541 19.3348H40.0462C40.2279 19.3348 40.3951 19.2351 40.4814 19.0757L40.9312 18.2451C40.9704 18.1726 40.991 18.0916 40.991 18.0092V15.1674C40.991 15.0801 41.0143 14.9943 41.0582 14.9186L42.15 13.0408C42.2088 12.9394 42.23 12.8204 42.2095 12.7048L42.0391 11.7507Z" fill="#CC0127"/>
</svg>
