<svg width="65" height="43" viewBox="0 0 65 43" fill="none" xmlns="http://www.w3.org/2000/svg">
<rect x="0.1409" y="0.322968" width="64" height="42" fill="#0061C8"/>
<circle cx="31.8" cy="21.323" r="18.45" stroke="#75AEEB"/>
<path d="M17.0973 10.1544C18.7857 12.5273 24.1064 15.0006 31.8821 14.672C39.6579 14.3435 44.7961 12.2535 46.3932 10.1544" stroke="#75AEEB"/>
<path d="M46.667 32.0741C44.9786 29.7012 39.6579 27.2279 31.8821 27.5565C24.1064 27.885 18.9682 29.975 17.3711 32.0741" stroke="#75AEEB"/>
<path d="M13.9487 21.5168H50.0894" stroke="#75AEEB"/>
<path d="M38.3843 21.323C38.3843 26.5099 37.5646 31.1831 36.2567 34.5412C35.6022 36.2218 34.8351 37.5478 34.0089 38.4451C33.183 39.3419 32.336 39.773 31.5039 39.773C30.6717 39.773 29.8247 39.3419 28.9989 38.4451C28.1726 37.5478 27.4055 36.2218 26.751 34.5412C25.4431 31.1831 24.6234 26.5099 24.6234 21.323C24.6234 16.136 25.4431 11.4628 26.751 8.10474C27.4055 6.42412 28.1726 5.09814 28.9989 4.20083C29.8247 3.30399 30.6717 2.87296 31.5039 2.87296C32.336 2.87296 33.183 3.30399 34.0089 4.20083C34.8351 5.09814 35.6022 6.42412 36.2567 8.10474C37.5646 11.4628 38.3843 16.136 38.3843 21.323Z" stroke="#75AEEB"/>
<path d="M17.508 21.2133C17.1794 11.1433 25.5849 3.00156 31.0608 3.00156C36.5366 3.00156 46.7491 10.2863 46.5301 21.2133C46.3111 32.1404 36.3997 39.7241 31.0608 39.7241C25.7218 39.7241 17.8365 31.2833 17.508 21.2133Z" stroke="#75AEEB"/>
</svg>
