<svg width="32" height="32" viewBox="0 0 32 32" fill="none" xmlns="http://www.w3.org/2000/svg">
<path d="M29.0534 5.48608C30.1438 6.49107 30.6586 7.6352 30.5999 8.68186C30.5396 9.71948 29.907 10.6321 28.9239 11.0519C27.94 11.4716 27.0691 11.3345 26.4325 10.8105C25.7898 10.2799 25.375 9.38146 25.3794 8.24519C25.3794 8.01409 25.5571 7.985 25.6889 8.03217C26.5643 8.35407 27.2885 8.63194 27.8938 9.18298C27.6318 7.87653 28.2724 6.54767 28.6868 5.56351C28.7583 5.38939 28.9404 5.38389 29.0534 5.48608Z" fill="white"/>
<path d="M31.4001 16.5705C31.7373 17.9996 31.5111 19.2298 30.868 20.067C30.2297 20.8982 29.1852 21.3117 28.1281 21.1278C27.0707 20.9411 26.424 20.3539 26.1937 19.5717C25.9614 18.7817 26.1266 17.809 26.7781 16.868C26.9099 16.6751 27.0747 16.747 27.1571 16.8598C27.6989 17.603 28.1446 18.2248 28.3355 19.0132C28.8584 17.7854 30.1461 17.0296 31.0505 16.4357C31.2116 16.3312 31.3644 16.4235 31.4001 16.5705Z" fill="white"/>
<path d="M29.0723 22.2554C28.7519 23.6861 28.0088 24.7056 27.0607 25.1906C26.121 25.6736 24.9928 25.61 24.1198 25.0004C23.2469 24.388 22.9197 23.5878 23.056 22.7856C23.1898 21.9748 23.7678 21.1643 24.7689 20.5846C24.9719 20.4683 25.0889 20.6015 25.1142 20.7383C25.2798 21.6368 25.4072 22.3863 25.2335 23.1786C26.2448 22.2876 27.7395 22.1446 28.817 21.987C29.0072 21.9587 29.1052 22.1084 29.0723 22.2554Z" fill="white"/>
<path fill-rule="evenodd" clip-rule="evenodd" d="M17.3748 26.986C17.3748 27.7292 16.7591 28.3333 15.9991 28.3333C15.239 28.3333 14.6241 27.7288 14.6241 26.986C14.6241 26.2431 15.2394 25.6414 15.9991 25.6414C16.7587 25.6414 17.3748 26.2427 17.3748 26.986Z" fill="white"/>
<path d="M26.4907 7.3428C24.5422 6.74067 24.3702 5.46762 24.3702 3.42068C24.3702 3.00131 24.4417 2.95808 24.7721 3.02608C26.9682 3.47807 27.852 5.4574 27.0438 7.15296C26.9099 7.42848 26.7463 7.42023 26.4907 7.3428Z" fill="white"/>
<path d="M31.0898 10.6525C31.9294 11.8647 32.1746 13.0925 31.8812 14.0999C31.5922 15.0994 30.7695 15.8564 29.7145 16.0552C28.6594 16.2537 27.8411 15.9322 27.3383 15.2833C26.8319 14.6305 26.6265 13.662 26.8866 12.5548C26.9404 12.3292 27.1185 12.3399 27.2383 12.4157C28.0172 12.9172 28.6618 13.3409 29.1305 14.0099C29.1663 12.6794 30.0891 11.5208 30.7152 10.6486C30.8262 10.4949 31.0038 10.526 31.0898 10.6525Z" fill="white"/>
<path d="M24.7665 26.6609C23.7971 27.7764 22.6536 28.3372 21.5821 28.3333C20.5211 28.327 19.5561 27.7559 19.077 26.8162C18.5975 25.8764 18.6939 25.0188 19.1959 24.3699C19.7044 23.7167 20.6026 23.2643 21.7622 23.2113C21.9989 23.2014 22.0387 23.3732 21.9945 23.5041C21.7115 24.3739 21.4652 25.0967 20.933 25.7145C22.2517 25.391 23.6419 25.9523 24.67 26.3041C24.8521 26.3685 24.8666 26.5438 24.7665 26.6609Z" fill="white"/>
<path d="M2.9452 5.48608C1.8548 6.49107 1.34195 7.6352 1.40023 8.68186C1.45891 9.71948 2.09112 10.6321 3.07703 11.0519C4.06092 11.4716 4.93187 11.3345 5.56771 10.8105C6.20876 10.2799 6.62515 9.38146 6.61872 8.24519C6.61872 8.01409 6.44067 7.985 6.30884 8.03217C5.43588 8.35407 4.71202 8.63194 4.10513 9.18298C4.36879 7.87653 3.72612 6.54767 3.31335 5.56351C3.24061 5.38939 3.05814 5.38389 2.9452 5.48608Z" fill="white"/>
<path d="M0.598836 16.5705C0.264039 17.9996 0.487907 19.2298 1.13057 20.067C1.76922 20.8982 2.81581 21.3117 3.87245 21.1278C4.9299 20.9411 5.57457 20.3539 5.80487 19.5717C6.03718 18.7817 5.87199 17.809 5.22088 16.868C5.08906 16.6751 4.92547 16.747 4.84188 16.8598C4.29929 17.603 3.85356 18.2248 3.66587 19.0132C3.14217 17.7854 1.85282 17.0296 0.948102 16.4357C0.789345 16.3312 0.633803 16.4235 0.598836 16.5705Z" fill="white"/>
<path d="M2.9263 22.2554C3.24863 23.6861 3.99178 24.7056 4.93829 25.1906C5.88039 25.6736 7.00656 25.61 7.87912 25.0004C8.75409 24.388 9.07844 23.5878 8.9442 22.7856C8.80835 21.9748 8.23281 21.1643 7.23203 20.5846C7.02907 20.4683 6.91171 20.6015 6.88638 20.7383C6.7212 21.6368 6.59178 22.3863 6.76501 23.1786C5.75378 22.2876 4.25946 22.1446 3.18312 21.987C2.99342 21.9587 2.89254 22.1084 2.9263 22.2554Z" fill="white"/>
<path d="M5.50746 7.3428C7.45636 6.74067 7.63039 5.46762 7.63039 3.42068C7.63039 3.00131 7.55684 2.95808 7.22847 3.02608C5.03079 3.47807 4.14697 5.4574 4.95724 7.15296C5.08866 7.42848 5.25224 7.42023 5.50746 7.3428Z" fill="white"/>
<path d="M0.908713 10.6525C0.0695102 11.8647 -0.173248 13.0925 0.11774 14.0999C0.408728 15.0994 1.23145 15.8564 2.28608 16.0552C3.33911 16.2537 4.15821 15.9322 4.66222 15.2833C5.16863 14.6305 5.3716 13.662 5.11236 12.5548C5.05971 12.3292 4.87965 12.3399 4.7631 12.4157C3.98258 12.9172 3.3371 13.3409 2.87047 14.0099C2.83309 12.6794 1.90949 11.5208 1.28571 10.6486C1.17398 10.4949 0.996331 10.526 0.908713 10.6525Z" fill="white"/>
<path d="M7.23245 26.6609C8.20187 27.7764 9.34653 28.3372 10.416 28.3333C11.4775 28.327 12.4449 27.7559 12.924 26.8162C13.4035 25.8764 13.305 25.0188 12.8022 24.3699C12.2934 23.7167 11.3975 23.2643 10.2356 23.2113C9.99925 23.2014 9.96187 23.3732 10.0037 23.5041C10.2882 24.3739 10.533 25.0967 11.0671 25.7145C9.74604 25.391 8.35862 25.9523 7.33092 26.3041C7.14885 26.3685 7.13157 26.5438 7.23245 26.6609Z" fill="white"/>
<path fill-rule="evenodd" clip-rule="evenodd" d="M18.507 6.26981C18.9234 6.6994 19.3 7.22803 19.6228 7.83135C20.1083 8.73847 20.4813 9.82954 20.7216 11.033H23.8574C22.9137 8.74476 20.9644 6.96352 18.5444 6.21832L18.507 6.26981Z" fill="white"/>
<path fill-rule="evenodd" clip-rule="evenodd" d="M18.5026 22.0384C18.921 21.6104 19.2964 21.0802 19.6184 20.4761C20.1039 19.5694 20.4789 18.4807 20.7192 17.2748H23.855C22.9113 19.5635 20.9624 21.3447 18.5404 22.0895L18.5026 22.0384Z" fill="white"/>
<path fill-rule="evenodd" clip-rule="evenodd" d="M15.6245 5.86496V11.0334H12.049C12.2793 9.94822 12.6206 8.97192 13.0458 8.17366C13.7576 6.84559 14.6679 6.03436 15.6245 5.86496Z" fill="white"/>
<path fill-rule="evenodd" clip-rule="evenodd" d="M16.3757 5.87048C17.3327 6.04027 18.241 6.85307 18.9528 8.1835C19.38 8.97783 19.7212 9.9502 19.9507 11.033H16.3753L16.3757 5.87048Z" fill="white"/>
<path fill-rule="evenodd" clip-rule="evenodd" d="M13.4939 6.26981C13.0771 6.6994 12.7001 7.22803 12.3782 7.83135C11.8923 8.73847 11.5177 9.82954 11.2769 11.033H8.14318C9.08527 8.74476 11.0366 6.96352 13.4561 6.21832L13.4939 6.26981Z" fill="white"/>
<path fill-rule="evenodd" clip-rule="evenodd" d="M7.87911 11.7747H11.1491C11.0362 12.534 10.9711 13.324 10.9711 14.147C10.9711 14.974 11.0382 15.7726 11.1491 16.5363H7.87911C7.65083 15.7809 7.52543 14.9807 7.52543 14.1533C7.52543 13.3264 7.65083 12.5277 7.87911 11.7747Z" fill="white"/>
<path fill-rule="evenodd" clip-rule="evenodd" d="M11.9128 11.7747H15.6245V16.5359H11.9152C11.7962 15.7781 11.7291 14.9783 11.7291 14.1466C11.7291 13.3221 11.7962 12.5277 11.9128 11.7747Z" fill="white"/>
<path fill-rule="evenodd" clip-rule="evenodd" d="M16.3756 11.7747H20.0874C20.2067 12.5297 20.2734 13.3264 20.2734 14.1533C20.2734 14.9803 20.2063 15.7805 20.0874 16.5363H16.3756V11.7747Z" fill="white"/>
<path fill-rule="evenodd" clip-rule="evenodd" d="M20.8514 11.7747H24.1214C24.3489 12.5277 24.4731 13.3264 24.4731 14.1533C24.4731 14.9803 24.3493 15.7805 24.1214 16.5363H20.8494C20.9623 15.7746 21.027 14.9787 21.027 14.1533C21.0274 13.3283 20.9643 12.534 20.8514 11.7747Z" fill="white"/>
<path fill-rule="evenodd" clip-rule="evenodd" d="M12.0515 17.2748H15.6249V22.4295C14.6683 22.2593 13.7576 21.4489 13.0462 20.1185C12.621 19.3261 12.2814 18.3557 12.0515 17.2748Z" fill="white"/>
<path fill-rule="evenodd" clip-rule="evenodd" d="M16.3756 17.2748H19.9511C19.7216 18.3573 19.38 19.33 18.9531 20.1259C18.2413 21.4552 17.333 22.2692 16.3761 22.4378L16.3756 17.2748Z" fill="white"/>
<path fill-rule="evenodd" clip-rule="evenodd" d="M13.4975 22.0384C13.0791 21.6104 12.7021 21.0802 12.3798 20.4761C11.8943 19.5694 11.5217 18.4807 11.2813 17.2748H8.14518C9.08928 19.5635 11.0382 21.3447 13.4581 22.0895L13.4975 22.0384Z" fill="white"/>
</svg>
