<svg width="32" height="29" viewBox="0 0 32 29" fill="none" xmlns="http://www.w3.org/2000/svg">
<path fill-rule="evenodd" clip-rule="evenodd" d="M2.81818 1.81818V8.71373H13.8627V1.81818H2.81818ZM1.95745 0C1.42866 0 1 0.428662 1 0.957445V9.57447C1 10.1032 1.42866 10.5319 1.95745 10.5319H14.7234C15.2522 10.5319 15.6808 10.1033 15.6808 9.57447V0.957447C15.6808 0.428663 15.2522 0 14.7234 0H1.95745Z" fill="white"/>
<path fill-rule="evenodd" clip-rule="evenodd" d="M0.729248 12.4468C0.729248 11.9447 1.13626 11.5377 1.63834 11.5377L15.0426 11.5377C15.5447 11.5377 15.9517 11.9447 15.9517 12.4468C15.9517 12.9489 15.5447 13.3559 15.0426 13.3559L1.63834 13.3559C1.13626 13.3559 0.729248 12.9489 0.729248 12.4468Z" fill="white"/>
<path fill-rule="evenodd" clip-rule="evenodd" d="M12.649 20.7447C12.649 20.4803 12.8633 20.266 13.1277 20.266L14.7235 20.266C14.9878 20.266 15.2022 20.4803 15.2022 20.7447C15.2022 21.0091 14.9878 21.2234 14.7235 21.2234L13.1277 21.2234C12.8633 21.2234 12.649 21.0091 12.649 20.7447Z" fill="white"/>
<path fill-rule="evenodd" clip-rule="evenodd" d="M8.34043 14.2021C8.60482 14.2021 8.81915 14.4164 8.81915 14.6808L8.81915 16.2766C8.81915 16.541 8.60482 16.7553 8.34043 16.7553C8.07604 16.7553 7.86171 16.541 7.86171 16.2766L7.86171 14.6808C7.86171 14.4164 8.07604 14.2021 8.34043 14.2021Z" fill="white"/>
<path fill-rule="evenodd" clip-rule="evenodd" d="M5.14435 17.8677C5.49937 17.5127 6.07497 17.5127 6.42999 17.8677L11.5365 22.9742C11.8915 23.3292 11.8915 23.9048 11.5365 24.2599C11.1814 24.6149 10.6058 24.6149 10.2508 24.2599L5.14435 19.1534C4.78932 18.7984 4.78932 18.2228 5.14435 17.8677Z" fill="white"/>
<path fill-rule="evenodd" clip-rule="evenodd" d="M11.5365 17.8677C11.8915 18.2228 11.8915 18.7984 11.5365 19.1534L6.43002 24.2599C6.075 24.6149 5.49939 24.6149 5.14437 24.2599C4.78935 23.9048 4.78935 23.3292 5.14437 22.9742L10.2508 17.8677C10.6059 17.5127 11.1815 17.5127 11.5365 17.8677Z" fill="white"/>
<path fill-rule="evenodd" clip-rule="evenodd" d="M18.1373 17.4565V24.352H29.1818V17.4565H18.1373ZM17.2766 15.6383C16.7478 15.6383 16.3192 16.067 16.3192 16.5958V25.2128C16.3192 25.7416 16.7478 26.1702 17.2766 26.1702H30.0426C30.5713 26.1702 31 25.7416 31 25.2128V16.5958C31 16.067 30.5713 15.6383 30.0426 15.6383H17.2766Z" fill="white"/>
<path fill-rule="evenodd" clip-rule="evenodd" d="M16.0483 28.0851C16.0483 27.583 16.4554 27.176 16.9574 27.176L30.3617 27.176C30.8638 27.176 31.2708 27.583 31.2708 28.0851C31.2708 28.5872 30.8638 28.9942 30.3617 28.9942L16.9574 28.9942C16.4554 28.9942 16.0483 28.5872 16.0483 28.0851Z" fill="white"/>
</svg>
