<svg width="32" height="32" viewBox="0 0 32 32" fill="none" xmlns="http://www.w3.org/2000/svg">
<path d="M28.7899 8.20282C30.2331 9.86503 31.2863 11.8766 31.8263 14.0214L31.8342 14.0571C31.9956 14.7794 31.5539 15.5053 30.8322 15.6899C30.1016 15.8766 29.3514 15.4309 29.1682 14.6949C28.7298 12.9626 27.8862 11.3444 26.7208 10.0038C26.57 9.83151 26.4687 9.62956 26.4189 9.40664C26.3094 8.91627 26.4752 8.4017 26.8559 8.0733C27.4236 7.57669 28.2943 7.63969 28.791 8.20742L28.7899 8.20282Z" fill="white"/>
<path d="M31.4228 21.0578C31.4724 21.1544 31.5053 21.2594 31.5282 21.3618C31.583 21.6071 31.5699 21.8627 31.484 22.1066C30.7689 24.1854 29.5491 26.1009 27.9653 27.6436C27.4232 28.172 26.5536 28.1555 26.0264 27.6179C25.8503 27.4373 25.7252 27.2124 25.6695 26.9628C25.5649 26.4946 25.7056 26.0138 26.0521 25.6791C27.3325 24.4334 28.3124 22.89 28.8888 21.2165C29.0083 20.8716 29.2548 20.5917 29.5836 20.4295C29.9124 20.267 30.2821 20.2454 30.6314 20.3639C30.9764 20.4834 31.2562 20.7299 31.4185 21.0587L31.4228 21.0578Z" fill="white"/>
<path d="M21.881 29.7845C21.9518 30.1432 21.8784 30.5059 21.67 30.8098C21.4662 31.1129 21.1563 31.3177 20.7976 31.3885C18.6358 31.8107 16.3718 31.7126 14.2435 31.1114C13.7592 30.9762 13.3902 30.5811 13.2806 30.0907C13.2308 29.8678 13.2365 29.6418 13.2997 29.4218C13.3984 29.0675 13.6285 28.7773 13.9489 28.5982C14.2692 28.4189 14.6384 28.3739 14.9892 28.4781C16.7081 28.9647 18.5326 29.044 20.2733 28.7066C20.9996 28.5631 21.7136 29.0355 21.8749 29.7578L21.8829 29.7935L21.881 29.7845Z" fill="white"/>
<path d="M9.78143 25.5738C9.888 26.0509 9.73645 26.5668 9.34541 26.9117C8.77771 27.4083 7.90702 27.3453 7.41038 26.7776C5.96717 25.1154 4.91397 23.1038 4.37403 20.959C4.20272 20.1921 4.64289 19.4807 5.36906 19.295C6.09972 19.1083 6.84987 19.554 7.03305 20.29C7.47051 22.0178 8.3151 23.6405 9.48047 24.981C9.63223 25.1577 9.7346 25.3643 9.78238 25.5782L9.78143 25.5738Z" fill="white"/>
<path d="M15.4017 3.58733C17.5636 3.16521 19.8276 3.2633 21.9559 3.86452C22.3057 3.96418 22.6004 4.19333 22.7795 4.51367C22.8431 4.6305 22.8942 4.75484 22.9231 4.88414C22.9719 5.10256 22.9671 5.33309 22.904 5.55304C22.6972 6.28263 21.9395 6.70463 21.21 6.49783C19.491 6.01119 17.6665 5.93192 15.9258 6.26928C15.1907 6.41476 14.4886 5.95375 14.3253 5.22259L13.8685 5.27313L14.3173 5.18689C14.2465 4.82819 14.3189 4.46093 14.5273 4.15707C14.7311 3.85403 15.041 3.64921 15.4042 3.57736L15.4017 3.58733Z" fill="white"/>
<path fill-rule="evenodd" clip-rule="evenodd" d="M10.8371 22.0578C4.85191 22.0578 -1.90735e-05 17.2058 -1.90735e-05 11.2207C-1.90735e-05 5.23553 4.85191 0.383606 10.8371 0.383606C16.8222 0.383606 21.6741 5.23553 21.6741 11.2207C21.6741 17.2058 16.8222 22.0578 10.8371 22.0578ZM11.7259 15.8497L14.5637 7.88812C14.701 7.50285 14.3429 7.12467 13.9507 7.24083L5.45637 9.75699C5.01965 9.88636 4.96923 10.4847 5.37814 10.6853L6.79334 11.3796C7.11671 11.5383 7.17131 11.9765 6.89677 12.2096L4.60201 14.1584C4.39425 14.3349 4.36609 14.6452 4.53868 14.8562L5.86483 16.477C6.04352 16.6954 6.36742 16.7228 6.58021 16.5374L9.18494 14.2686C9.42305 14.0613 9.7914 14.1238 9.94775 14.3981L10.8205 15.9294C11.0322 16.3009 11.5823 16.2525 11.7259 15.8497Z" fill="white"/>
</svg>
