<?xml version="1.0" encoding="utf-8"?>
<!-- Generator: Adobe Illustrator 16.0.0, SVG Export Plug-In . SVG Version: 6.00 Build 0)  -->
<!DOCTYPE svg PUBLIC "-//W3C//DTD SVG 1.1//EN" "http://www.w3.org/Graphics/SVG/1.1/DTD/svg11.dtd">
<svg version="1.1" xmlns="http://www.w3.org/2000/svg" xmlns:xlink="http://www.w3.org/1999/xlink" x="0px" y="0px" width="32px"
	 height="32px" viewBox="0 0 32 32" enable-background="new 0 0 32 32" xml:space="preserve">
<symbol  id="dude-transit" viewBox="0 -25.1 21.25 25.118">
	<path fill-rule="evenodd" clip-rule="evenodd" fill="#FFFFFF" d="M15.5-4.2l0.75-1.05l1-3.1l3.9-2.65v-0.05
		c0.067-0.1,0.1-0.233,0.1-0.4c0-0.2-0.05-0.383-0.15-0.55c-0.167-0.233-0.383-0.35-0.65-0.35l-4.3,1.8l-1.2,1.65l-1.5-3.95
		l2.25-5.05l-3.25-6.9c-0.267-0.2-0.633-0.3-1.1-0.3c-0.3,0-0.55,0.15-0.75,0.45c-0.1,0.133-0.15,0.25-0.15,0.35
		c0,0.067,0.017,0.15,0.05,0.25c0.033,0.1,0.067,0.184,0.1,0.25l2.55,5.6L10.7-14l-3.05-4.9L0.8-18.7
		c-0.367,0.033-0.6,0.184-0.7,0.45c-0.067,0.3-0.1,0.467-0.1,0.5c0,0.5,0.2,0.767,0.6,0.8l5.7,0.15l2.15,5.4l3.1,5.65L9.4-5.6
		c-1.367-2-2.1-3.033-2.2-3.1C7.1-8.8,6.95-8.85,6.75-8.85C6.35-8.85,6.1-8.667,6-8.3C5.9-8,5.9-7.8,6-7.7H5.95l2.5,4.4l3.7,0.3
		L14-3.5L15.5-4.2z M14.55-2.9c-0.333,0.4-0.45,0.85-0.35,1.35c0.033,0.5,0.25,0.9,0.65,1.2S15.7,0.066,16.2,0
		c0.5-0.067,0.9-0.3,1.2-0.7c0.333-0.4,0.467-0.85,0.4-1.35c-0.066-0.5-0.3-0.9-0.7-1.2c-0.4-0.333-0.85-0.45-1.35-0.35
		C15.25-3.533,14.85-3.3,14.55-2.9z"/>
</symbol>
<g id="Layer_1">
</g>
<g id="Layer_2">
	<path fill="#FFFFFF" d="M16,1.035c-8.296,0-15.021,6.725-15.021,15.021c0,8.295,6.725,15.02,15.021,15.02
		c8.295,0,15.02-6.725,15.02-15.02C31.02,7.76,24.295,1.035,16,1.035z M3.334,16.917h5.771c0.051,1.764,0.25,3.442,0.578,4.979
		H4.725C3.939,20.388,3.455,18.702,3.334,16.917z M16.833,8.746V3.41c1.31,0.597,2.608,2.534,3.471,5.336H16.833z M20.704,10.286
		c0.339,1.499,0.556,3.176,0.604,4.979h-4.476v-4.979H20.704z M15.167,3.41v5.336h-3.472C12.558,5.944,13.857,4.007,15.167,3.41z
		 M15.167,10.286v4.979H10.69c0.049-1.804,0.265-3.48,0.604-4.979H15.167z M9.103,15.266H3.331c0.11-1.784,0.585-3.469,1.358-4.979
		h4.97C9.337,11.824,9.147,13.504,9.103,15.266z M10.692,16.917h4.475v4.979h-3.849C10.973,20.4,10.749,18.723,10.692,16.917z
		 M15.167,23.437v5.229c-1.293-0.588-2.572-2.485-3.435-5.229H15.167z M16.833,28.665v-5.229h3.434
		C19.405,26.18,18.126,28.077,16.833,28.665z M16.833,21.896v-4.979h4.474c-0.057,1.806-0.28,3.483-0.626,4.979H16.833z
		 M22.894,16.917h5.771c-0.121,1.785-0.605,3.471-1.391,4.979h-4.959C22.644,20.359,22.843,18.681,22.894,16.917z M22.896,15.266
		c-0.045-1.762-0.234-3.441-0.557-4.979h4.97c0.773,1.511,1.248,3.195,1.358,4.979H22.896z M26.379,8.746h-4.42
		c-0.552-1.956-1.316-3.615-2.23-4.84C22.447,4.742,24.773,6.473,26.379,8.746z M12.27,3.906c-0.913,1.225-1.678,2.884-2.229,4.84
		H5.619C7.226,6.473,9.552,4.743,12.27,3.906z M5.674,23.437h4.396c0.557,1.934,1.321,3.57,2.234,4.775
		C9.601,27.39,7.285,25.683,5.674,23.437z M19.695,28.212c0.912-1.205,1.677-2.842,2.232-4.775h4.398
		C24.714,25.683,22.398,27.39,19.695,28.212z"/>
	<circle fill="none" stroke="#FFFFFF" stroke-width="2.0241" stroke-miterlimit="10" cx="16" cy="16.056" r="14.62"/>
</g>
</svg>
