<svg width="33" height="33" viewBox="0 0 33 33" fill="none" xmlns="http://www.w3.org/2000/svg">
<g clip-path="url(#clip0_4719_1387)">
<path d="M32.693 7.48045C32.683 6.87045 32.593 6.25045 32.423 5.64045L32.393 5.53045C31.953 4.17045 31.053 2.94045 29.863 2.06045C28.623 1.16045 27.153 0.70045 25.703 0.75045C23.913 0.83045 22.253 1.60045 21.033 2.94045C19.823 4.26045 19.183 5.98045 19.213 7.79045V7.86045C19.253 9.20045 19.703 10.4104 20.513 11.4104L19.643 13.1104C19.433 13.5104 19.403 13.9704 19.543 14.4104C19.643 14.7304 19.833 15.0004 20.193 15.2404L20.003 15.8405C19.673 15.8005 19.433 15.8304 19.213 15.9104L18.033 16.3405L18.793 17.2805L19.623 17.0405L19.563 17.2204C19.503 17.4204 19.553 17.6305 19.693 17.7805C19.763 17.8505 19.843 17.9105 19.943 17.9405C19.993 17.9505 20.033 17.9604 20.083 17.9704V17.9804C20.083 17.9804 20.013 18.0205 19.983 18.0305L19.523 18.2005L20.283 19.1404L20.373 19.1105C20.803 18.9505 21.143 18.6404 21.333 18.2304C21.523 17.8204 21.543 17.3605 21.383 16.9305C21.293 16.6805 21.143 16.4605 21.053 16.3105L21.263 15.6405C21.333 15.6105 21.503 15.5804 21.673 15.5304C22.103 15.3904 22.453 15.0904 22.663 14.6904L23.303 13.4305C24.323 13.7905 25.413 13.8805 26.443 13.6705C26.513 13.6605 26.573 13.7504 26.553 13.8204L26.393 14.2705C26.353 14.3905 26.373 14.5204 26.463 14.6104C26.533 14.6804 26.623 14.7205 26.713 14.7205C26.723 14.7205 26.743 14.7205 26.753 14.7205C26.763 14.7205 26.773 14.7205 26.793 14.7205C28.853 14.2405 30.623 12.9804 31.663 11.2804C32.353 10.1504 32.703 8.85045 32.673 7.52045L32.693 7.48045ZM21.883 13.6305C21.903 13.5005 21.883 13.3805 21.823 13.2605C21.753 13.1205 21.633 13.0204 21.483 12.9804C21.343 12.9404 21.103 12.9204 20.983 12.9804L21.343 12.2705C21.433 12.3505 21.523 12.4204 21.623 12.4904C21.823 12.6404 22.043 12.7804 22.253 12.9104L21.883 13.6405C21.883 13.6405 21.863 13.6605 21.863 13.6405L21.883 13.6305ZM30.733 10.6604C30.563 10.9404 30.383 11.2104 30.183 11.4504C30.133 11.5104 30.063 11.4405 30.063 11.3405V10.8604C30.043 10.7204 29.963 10.6005 29.823 10.5505C29.693 10.5005 29.543 10.5504 29.453 10.6504C28.663 11.5704 27.613 12.2205 26.423 12.5205C25.543 12.7405 24.593 12.6805 23.703 12.3705C23.783 11.6905 23.433 11.0004 22.793 10.6604C22.303 10.4104 21.763 10.4205 21.303 10.6405C20.673 9.84045 20.343 8.89045 20.313 7.82045V7.76045C20.253 4.58045 22.633 1.99045 25.743 1.86045C28.163 1.76045 30.563 3.48045 31.333 5.87045L31.363 5.95045C31.813 7.58045 31.593 9.25045 30.743 10.6604H30.733Z" fill="white"/>
<path d="M13.043 22.8505C13.443 22.7005 13.773 22.3905 13.983 21.9905L14.513 21.0305L13.503 20.4905L13.023 21.5005C13.023 21.5005 13.013 21.5205 13.003 21.5405L13.023 21.3605C13.023 21.2105 12.973 21.0505 12.863 20.9405C12.753 20.8305 12.583 20.7605 12.433 20.7605C12.313 20.7605 12.143 20.8005 12.053 20.8605L12.923 19.4505L12.053 18.5305L10.943 20.4705C10.783 20.7805 10.723 21.1205 10.753 21.4405C10.823 22.0205 11.153 22.5105 11.673 22.7705C11.703 22.7905 11.733 22.8005 11.843 22.8205V23.8505C11.613 23.9005 11.473 23.9805 11.353 24.0805L9.85302 25.2705C9.50302 25.5505 9.27302 25.9505 9.22302 26.4105C9.22302 26.4905 9.21302 26.5605 9.22302 26.6405L8.37302 27.0105C8.14302 26.8105 7.86302 26.6605 7.56302 26.5705C7.00302 26.4105 6.41302 26.4705 5.89302 26.7505C5.38302 27.0305 5.01302 27.5005 4.84302 28.0605C4.68302 28.6205 4.74302 29.2105 5.03302 29.7305C5.42302 30.4305 6.15302 30.8705 6.96302 30.8705C7.33302 30.8705 7.69302 30.7805 8.01302 30.6005C8.52302 30.3205 8.89302 29.8505 9.05302 29.2905C9.18302 28.8505 9.16302 28.4005 9.02302 27.9805L9.62302 27.7205C9.95302 28.1105 10.433 28.3205 10.913 28.3205C11.283 28.3205 11.653 28.2005 11.963 27.9505L13.463 26.7605C13.823 26.4805 14.043 26.0805 14.093 25.6205C14.143 25.1705 14.023 24.7305 13.733 24.3705C13.513 24.1005 13.223 23.9005 12.973 23.8105V22.8805C12.973 22.8805 13.013 22.8605 13.033 22.8605L13.043 22.8505ZM7.61302 29.8805C7.29302 30.0605 6.91302 30.1005 6.56302 29.9905C6.20302 29.8905 5.91302 29.6505 5.73302 29.3305C5.55302 29.0105 5.51302 28.6305 5.61302 28.2805C5.71302 27.9305 5.95302 27.6305 6.27302 27.4505C6.47302 27.3405 6.70302 27.2805 6.93302 27.2805C7.11302 27.2805 7.29302 27.3205 7.46302 27.3805L7.34302 27.4305C7.15302 27.5105 7.02302 27.6905 7.00302 27.8905C6.99302 27.9905 7.00302 28.0905 7.04302 28.1805C7.10302 28.3205 7.21302 28.4305 7.35302 28.4905C7.42302 28.5205 7.49302 28.5305 7.56302 28.5305C7.64302 28.5305 7.71302 28.5105 7.79302 28.4805L8.27302 28.2805C8.45302 28.8905 8.19302 29.5605 7.61302 29.8805ZM12.653 25.9305L11.793 26.6105C11.793 26.6105 11.793 26.5905 11.803 26.5905C11.863 26.4505 11.853 26.2905 11.803 26.1505C11.683 25.8605 11.343 25.7305 11.053 25.8505L10.883 25.9205L11.823 25.2405V25.3605C11.823 25.5605 11.923 25.7605 12.103 25.8605C12.193 25.9105 12.283 25.9405 12.383 25.9405C12.463 25.9405 12.543 25.9205 12.613 25.8905C12.653 25.8705 12.643 25.9205 12.643 25.9205L12.653 25.9305Z" fill="white"/>
<path d="M7.79302 8.81046L6.03302 10.4105L10.773 13.8205L7.79302 8.81046Z" fill="white"/>
<path d="M3.34302 15.2205L2.78302 17.5305L8.61302 17.7205L3.34302 15.2205Z" fill="white"/>
<path d="M14.473 12.0305L14.963 6.22046L12.603 6.51046L14.473 12.0305Z" fill="white"/>
<path d="M27.203 27.1804L28.443 25.1504L22.943 23.2004L27.203 27.1804Z" fill="white"/>
<path d="M24.363 18.4605L30.123 19.4005L30.013 17.0305L24.363 18.4605Z" fill="white"/>
<path d="M19.833 32.5205L22.013 31.5905L18.683 26.8105L19.833 32.5205Z" fill="white"/>
</g>
<defs>
<clipPath id="clip0_4719_1387">
<rect width="32" height="32" fill="white" transform="translate(0.692993 0.520447)"/>
</clipPath>
</defs>
</svg>
