<svg width="40" height="40" viewBox="0 0 40 40" fill="none" xmlns="http://www.w3.org/2000/svg">
<rect width="40" height="40" fill="#383838" fill-opacity="0.01"/>
<path fill-rule="evenodd" clip-rule="evenodd" d="M20.4049 35.2896C8.16511 32.4331 5.64209 16.8982 5.64209 7.84053C11.3774 3.82105 27.8716 3.51591 35 7.84053C35 16.7676 32.9868 32.5277 20.4049 35.2896ZM20.3582 9.45725C20.4234 9.33869 20.5005 9.22605 20.5953 9.13121L20.5657 9.14306C20.6724 9.03636 20.8384 8.91187 21.0458 8.82887H22.0892C23.0792 9.11935 23.3044 9.90186 23.3341 10.0263C23.3341 10.0382 23.3519 10.0501 23.3519 10.0501L23.5297 10.1153C23.5534 10.1212 23.5534 10.1568 23.5534 10.1568L23.3637 10.9511C23.3578 10.9748 23.3163 10.9867 23.3163 10.9867L23.0555 10.963C23.0318 10.9571 23.014 10.9986 23.014 10.9986L23.0258 11.1408C23.0258 11.1586 23.0614 11.1764 23.0614 11.1764H28.1418C28.1477 11.1764 28.1595 11.1705 28.1595 11.1705C28.2248 11.0756 28.3315 10.9156 28.3374 10.9037C28.3552 10.88 28.3789 10.8622 28.4085 10.8622C28.456 10.8622 28.4975 10.9096 28.4975 10.9689V11.3068C28.4975 11.3187 28.5152 11.3246 28.5152 11.3246H29.6297C29.6475 11.3246 29.6653 11.3602 29.6653 11.3602V11.5914C29.6653 11.6091 29.6297 11.6269 29.6297 11.6269H28.5152C28.5034 11.6269 28.4975 11.6447 28.4975 11.6447V12.1545C28.4975 12.196 28.4678 12.2257 28.4263 12.2257H25.5334C25.5216 12.2257 25.5038 12.2494 25.5038 12.2494L25.3793 12.8303C25.3734 12.854 25.3496 12.8955 25.3496 12.8955L25.2489 13.0615C25.2429 13.0734 25.2429 13.103 25.2429 13.103L25.4919 14.1819C25.4978 14.2116 25.4504 14.2471 25.4504 14.2471L24.4011 14.4902C24.3715 14.4961 24.3478 14.4783 24.3419 14.4487L24.2589 14.0574C24.2529 14.0219 24.2055 14.0159 24.1877 14.0515L23.8676 14.8281C23.8439 14.8755 23.8083 14.917 23.7609 14.9467C23.589 15.0534 23.257 15.1779 23.0555 15.1779C23.008 15.1779 22.9547 15.1601 22.9132 15.1364L22.19 14.7155C22.1663 14.7036 22.1307 14.7332 22.1307 14.7332L21.858 15.0356C21.8461 15.0593 21.858 15.1067 21.858 15.1067L22.0418 15.3379C22.0536 15.3616 22.0418 15.415 22.0418 15.415L21.1526 17.14C21.1407 17.1638 21.0933 17.1815 21.0933 17.1815L20.8384 17.2053C20.8147 17.2053 20.8087 17.2468 20.8087 17.2468L20.8621 18.1419C20.868 18.1715 20.8799 18.1952 20.8976 18.219C20.9154 18.2427 20.9391 18.2605 20.9629 18.2782C20.9984 18.302 21.0221 18.3316 21.0399 18.3672C21.1133 18.5008 21.2943 18.8277 21.4832 19.1689C21.7218 19.5998 21.973 20.0535 22.0358 20.1693C22.0622 20.2184 22.1035 20.2925 22.1529 20.3814C22.3484 20.7325 22.6714 21.3126 22.6998 21.4735C22.7472 21.7462 22.7709 22.0011 22.6998 22.2323L21.2237 25.8306C21.2178 25.8543 21.1881 25.8899 21.1881 25.8899L20.7079 26.376C20.6902 26.3938 20.6961 26.4531 20.6961 26.4531L20.9451 26.8265C20.9806 26.8799 21.034 26.9155 21.0933 26.9332L22.0121 27.2178C22.0181 27.2178 22.0299 27.2237 22.0299 27.2237C22.0299 27.2237 22.0418 27.2297 22.0536 27.2474V27.2534C22.0596 27.2593 22.0595 27.2652 22.0595 27.2652C22.0655 27.2771 22.0714 27.2949 22.0714 27.3186V27.3364V27.3541V27.3601V27.3719C22.0595 27.449 22.024 27.5201 21.9766 27.5794H18.888L18.971 26.951C18.9769 26.8653 19.0064 26.8018 19.0345 26.7412C19.0627 26.6802 19.0896 26.6223 19.0896 26.5479L19.4393 25.3267C19.4453 25.2852 19.4571 25.2437 19.469 25.2022L19.7891 23.5246L20.5894 22.0722C20.6072 22.0426 20.5953 22.0011 20.5657 21.9833C20.538 21.9667 20.4988 21.9472 20.456 21.9259C20.3613 21.8788 20.249 21.8229 20.2041 21.7699C19.9846 21.5237 19.5187 20.8329 19.3474 20.5789C19.329 20.5515 19.3139 20.5293 19.303 20.5131C19.2532 20.4384 19.1827 20.3214 19.1079 20.1973C18.9868 19.9964 18.8546 19.7771 18.7813 19.6891C18.7457 19.6476 18.6924 19.6298 18.639 19.6476L18.5561 19.6773C18.5205 19.6891 18.4968 19.7128 18.479 19.7484L17.1452 22.7836C17.0977 22.8903 16.997 23.0503 16.9258 23.1452L14.3293 26.5124L14.276 26.6961L14.2048 27.5853H12.379L12.9125 26.625C12.9297 26.5907 12.9071 26.5425 12.8851 26.4954C12.869 26.461 12.8532 26.4272 12.8532 26.3997L12.9066 26.0737C12.9007 25.9966 12.9303 25.878 12.9659 25.8128L14.2582 22.8073C14.3904 22.4201 14.564 22.2661 14.7281 22.1206C14.7699 22.0834 14.8112 22.0468 14.851 22.007L15.2837 21.6632C15.2956 21.6513 15.3075 21.6217 15.3075 21.6217L15.4319 20.8925C15.4379 20.8629 15.4438 20.8273 15.4438 20.7977L15.5979 18.9659C15.6039 18.9007 15.6572 18.8473 15.7224 18.8473H15.9833C16.007 18.8473 16.0307 18.8118 16.0307 18.8118L16.4931 17.5847C16.499 17.5787 16.499 17.5728 16.499 17.5669C16.5049 17.555 16.5227 17.5372 16.5227 17.5372L16.8606 17.229C16.8665 17.2171 16.8784 17.1815 16.8784 17.1815L17.1333 16.405C17.1333 16.3872 17.1155 16.3575 17.1155 16.3575L16.6294 16.0434C16.6176 16.0196 16.6176 15.9544 16.6176 15.9544L17.3171 13.9152C17.3289 13.8855 17.3882 13.8618 17.3882 13.8618H17.8388C17.8625 13.8677 17.8802 13.85 17.8921 13.8322C17.8921 13.8322 17.9751 13.6543 18.4553 12.5873C18.9473 11.5024 19.6172 11.123 19.9136 11.1112C20.0736 11.0993 20.3997 11.0934 20.3997 11.0934C20.4175 11.0934 20.4412 11.0638 20.4412 11.0638L20.5953 10.8029L20.3226 10.6784C20.2989 10.6607 20.2871 10.6073 20.2871 10.6073L20.2456 9.81886C20.2456 9.80108 20.2811 9.62916 20.2811 9.62916L20.3582 9.45725Z" fill="white"/>
</svg>
