<?xml version="1.0" encoding="utf-8"?>
<!-- Generator: Adobe Illustrator 16.0.0, SVG Export Plug-In . SVG Version: 6.00 Build 0)  -->
<!DOCTYPE svg PUBLIC "-//W3C//DTD SVG 1.1//EN" "http://www.w3.org/Graphics/SVG/1.1/DTD/svg11.dtd">
<svg version="1.1" xmlns="http://www.w3.org/2000/svg" xmlns:xlink="http://www.w3.org/1999/xlink" x="0px" y="0px" width="32px"
	 height="32px" viewBox="0 0 32 32" enable-background="new 0 0 32 32" xml:space="preserve">
<symbol  id="dude-transit" viewBox="0 -25.1 21.25 25.118">
	<path fill-rule="evenodd" clip-rule="evenodd" fill="#FFFFFF" d="M15.5-4.2l0.75-1.05l1-3.1l3.9-2.65v-0.05
		c0.067-0.1,0.1-0.233,0.1-0.4c0-0.2-0.05-0.383-0.15-0.55c-0.167-0.233-0.383-0.35-0.65-0.35l-4.3,1.8l-1.2,1.65l-1.5-3.95
		l2.25-5.05l-3.25-6.9c-0.267-0.2-0.633-0.3-1.1-0.3c-0.3,0-0.55,0.15-0.75,0.45c-0.1,0.133-0.15,0.25-0.15,0.35
		c0,0.067,0.017,0.15,0.05,0.25c0.033,0.1,0.067,0.184,0.1,0.25l2.55,5.6L10.7-14l-3.05-4.9L0.8-18.7
		c-0.367,0.033-0.6,0.184-0.7,0.45c-0.067,0.3-0.1,0.467-0.1,0.5c0,0.5,0.2,0.767,0.6,0.8l5.7,0.15l2.15,5.4l3.1,5.65L9.4-5.6
		c-1.367-2-2.1-3.033-2.2-3.1C7.1-8.8,6.95-8.85,6.75-8.85C6.35-8.85,6.1-8.667,6-8.3C5.9-8,5.9-7.8,6-7.7H5.95l2.5,4.4l3.7,0.3
		L14-3.5L15.5-4.2z M14.55-2.9c-0.333,0.4-0.45,0.85-0.35,1.35c0.033,0.5,0.25,0.9,0.65,1.2S15.7,0.066,16.2,0
		c0.5-0.067,0.9-0.3,1.2-0.7c0.333-0.4,0.467-0.85,0.4-1.35c-0.066-0.5-0.3-0.9-0.7-1.2c-0.4-0.333-0.85-0.45-1.35-0.35
		C15.25-3.533,14.85-3.3,14.55-2.9z"/>
</symbol>
<g id="Layer_1">
</g>
<g id="Layer_2">
	<g>
		<g>
			<circle fill="#FFFFFF" cx="9.466" cy="16.048" r="0.998"/>
		</g>
		<g>
			<circle fill="#FFFFFF" cx="21.332" cy="9.013" r="0.998"/>
		</g>
		<g>
			<circle fill="#FFFFFF" cx="21.332" cy="22.866" r="0.998"/>
		</g>
		<path fill="none" d="M21.359,12.347c0.004,0,0.007,0,0.011,0c0.53,0,1.029-0.126,1.475-0.345c0.852-0.418,1.499-1.185,1.756-2.116
			c0.078-0.285,0.124-0.583,0.124-0.893c0-0.207-0.021-0.408-0.058-0.605c-0.284-1.563-1.651-2.749-3.297-2.749
			c-0.094,0-0.187,0.006-0.279,0.014c-0.532,0.044-1.027,0.213-1.46,0.477c-0.802,0.488-1.382,1.301-1.557,2.257
			c-0.035,0.197-0.057,0.398-0.057,0.605c0,0.31,0.045,0.608,0.124,0.893C18.531,11.302,19.821,12.342,21.359,12.347z"/>
		<path fill="none" d="M5.275,23.733c1.701,2.36,4.162,4.135,7.024,4.965c-0.972-1.234-1.79-2.939-2.383-4.965H5.275z"/>
		<path fill="none" d="M6.158,16.81H2.814c0.111,1.953,0.65,3.792,1.524,5.426h5.196c-0.201-0.905-0.355-1.861-0.466-2.854
			C7.638,19.234,6.477,18.184,6.158,16.81z"/>
		<path fill="none" d="M10.584,19.19c0.115,1.059,0.283,2.082,0.512,3.046h4.159V16.81h-2.57
			C12.428,17.912,11.629,18.804,10.584,19.19z"/>
		<path fill="none" d="M12.24,3.416c-2.846,0.84-5.293,2.617-6.984,4.973h4.636C10.475,6.368,11.281,4.661,12.24,3.416z"/>
		<path fill="none" d="M9.063,12.714c0.107-0.982,0.258-1.93,0.454-2.828H4.325c-0.869,1.636-1.405,3.474-1.514,5.426H6.15
			C6.461,13.928,7.625,12.867,9.063,12.714z"/>
		<path fill="none" d="M10.576,12.903c1.058,0.389,1.864,1.293,2.115,2.41h2.563V9.887h-4.18
			C10.852,10.842,10.688,11.856,10.576,12.903z"/>
		<path fill="none" d="M12.339,25.851c0.855,1.781,1.887,2.949,2.916,3.337v-5.454h-3.747
			C11.749,24.488,12.026,25.197,12.339,25.851z"/>
		<path fill="none" d="M18.084,23.733h-1.342v5.454c1.029-0.388,2.062-1.556,2.916-3.337c0.004-0.01,0.008-0.021,0.013-0.03
			C18.892,25.374,18.311,24.626,18.084,23.733z"/>
		<path fill="none" d="M21.359,12.347c-1.538-0.005-2.828-1.045-3.218-2.46h-1.399v5.426h4.843
			C21.562,14.297,21.482,13.306,21.359,12.347z"/>
		<path fill="none" d="M21.332,19.556c0.016,0,0.03,0.003,0.045,0.003c0.11-0.891,0.18-1.809,0.205-2.749h-4.84v5.426h1.304
			C18.357,20.707,19.711,19.556,21.332,19.556z"/>
		<path fill="none" d="M21.332,26.264c-0.063,0-0.123-0.007-0.184-0.01c-0.425,0.927-0.904,1.743-1.431,2.417
			c2.821-0.842,5.247-2.604,6.93-4.938h-2.068C24.212,25.187,22.899,26.264,21.332,26.264z"/>
		<path fill="none" d="M12.34,6.185c-0.326,0.678-0.611,1.417-0.858,2.205h3.773V2.897c-0.048,0.002-0.096,0.007-0.144,0.011
			C14.13,3.346,13.154,4.486,12.34,6.185z"/>
		<path fill="none" d="M22.86,19.928c0.892,0.457,1.553,1.299,1.758,2.309h2.966c0.874-1.635,1.413-3.474,1.525-5.426h-6.002
			C23.08,17.885,22.993,18.925,22.86,19.928z"/>
		<path fill="none" d="M24.667,8.389h2c-1.672-2.33-4.084-4.096-6.891-4.946c0.479,0.628,0.922,1.371,1.314,2.212
			c0.093-0.008,0.186-0.014,0.279-0.014C23.016,5.641,24.383,6.827,24.667,8.389z"/>
		<path fill="none" d="M22.845,12.003c0.144,1.062,0.239,2.166,0.265,3.31h6.002c-0.108-1.952-0.645-3.791-1.514-5.426h-2.997
			C24.344,10.818,23.696,11.585,22.845,12.003z"/>
		<path fill="none" d="M19.631,6.132c-0.806-1.659-1.764-2.778-2.729-3.217c-0.053-0.004-0.105-0.009-0.16-0.012v5.487h1.332
			C18.249,7.433,18.829,6.62,19.631,6.132z"/>
		<path fill="#FFFFFF" d="M15.961,0.41c-8.636,0-15.638,7.001-15.638,15.638c0,8.636,7.002,15.638,15.638,15.638
			c8.637,0,15.639-7.002,15.639-15.638C31.6,7.412,24.598,0.41,15.961,0.41z M12.24,3.416c-0.959,1.245-1.766,2.952-2.349,4.973
			H5.256C6.947,6.033,9.395,4.256,12.24,3.416z M10.466,14.206c0.431,0.245,0.766,0.637,0.94,1.107
			c0.086,0.229,0.135,0.477,0.135,0.735c0,0.269-0.052,0.525-0.144,0.762c-0.177,0.457-0.507,0.837-0.928,1.078
			c-0.31,0.178-0.667,0.28-1.049,0.28c-0.161,0-0.317-0.02-0.468-0.054c-0.692-0.157-1.256-0.653-1.508-1.305
			c-0.092-0.236-0.145-0.493-0.145-0.762c0-0.259,0.049-0.506,0.134-0.735c0.247-0.664,0.815-1.17,1.514-1.33
			c0.152-0.035,0.31-0.055,0.473-0.055C9.801,13.928,10.157,14.03,10.466,14.206z M4.325,9.887h5.191
			c-0.196,0.898-0.347,1.846-0.454,2.828c-1.438,0.153-2.602,1.214-2.912,2.599H2.812C2.92,13.361,3.456,11.522,4.325,9.887z
			 M4.339,22.236c-0.874-1.635-1.413-3.474-1.524-5.426h3.344c0.318,1.374,1.479,2.424,2.911,2.573
			c0.11,0.992,0.265,1.948,0.466,2.854H4.339z M5.275,23.733h4.642c0.593,2.025,1.411,3.73,2.383,4.965
			C9.438,27.868,6.977,26.094,5.275,23.733z M15.255,29.188c-1.029-0.388-2.061-1.556-2.916-3.337
			c-0.313-0.653-0.59-1.362-0.831-2.117h3.747V29.188z M15.255,22.236h-4.159c-0.229-0.964-0.396-1.987-0.512-3.046
			c1.045-0.387,1.844-1.278,2.101-2.38h2.57V22.236z M15.255,15.313h-2.563c-0.251-1.117-1.058-2.021-2.115-2.41
			c0.112-1.047,0.275-2.061,0.499-3.016h4.18V15.313z M15.255,8.389h-3.773c0.247-0.787,0.532-1.527,0.858-2.205
			c0.814-1.699,1.79-2.838,2.771-3.277c0.048-0.003,0.096-0.008,0.144-0.011V8.389z M27.598,9.887
			c0.869,1.636,1.405,3.474,1.514,5.426h-6.002c-0.025-1.144-0.121-2.248-0.265-3.31c0.839-0.425,1.473-1.191,1.723-2.117H27.598z
			 M21.332,24.986c-1.169,0-2.12-0.952-2.12-2.121c0-1.168,0.951-2.12,2.12-2.12s2.12,0.952,2.12,2.12
			C23.452,24.034,22.501,24.986,21.332,24.986z M21.332,11.133c-1.169,0-2.12-0.951-2.12-2.12c0-1.169,0.951-2.12,2.12-2.12
			s2.12,0.951,2.12,2.12C23.452,10.183,22.501,11.133,21.332,11.133z M21.091,5.655c-0.393-0.841-0.835-1.584-1.314-2.212
			c2.807,0.851,5.219,2.616,6.891,4.946h-2.042c-0.292-1.553-1.654-2.729-3.293-2.729 M16.742,2.902
			c0.055,0.003,0.107,0.008,0.16,0.012c0.965,0.439,1.922,1.557,2.727,3.214c-0.815,0.483-1.408,1.298-1.59,2.261h-1.297V2.902z
			 M16.742,9.887h1.355c0.385,1.428,1.686,2.48,3.234,2.48c0.01,0,0.02-0.001,0.029-0.001c0.122,0.953,0.2,1.938,0.224,2.947h-4.843
			V9.887z M16.742,16.81h4.84c-0.024,0.924-0.094,1.828-0.2,2.705c-0.018,0-0.032-0.003-0.05-0.003
			c-1.637,0-2.998,1.174-3.292,2.725h-1.298V16.81z M19.658,25.851c-0.854,1.781-1.887,2.949-2.916,3.337v-5.454h1.342
			c-0.014-0.058-0.021-0.117-0.033-0.177c0.2,0.957,0.81,1.764,1.636,2.231c-0.005,0.01-0.011,0.022-0.016,0.032
			S19.662,25.841,19.658,25.851z M19.718,28.671c0.526-0.674,1.006-1.49,1.431-2.417c0.006-0.013,0.011-0.028,0.018-0.041
			c0.056,0.002,0.11,0.007,0.166,0.007c1.615,0,2.963-1.142,3.282-2.663c-0.013,0.06-0.021,0.119-0.035,0.177h2.068
			C24.965,26.067,22.539,27.829,19.718,28.671z M27.584,22.236h-2.96c-0.195-1.026-0.857-1.886-1.758-2.351
			c0.129-0.99,0.214-2.015,0.241-3.076h6.002C28.997,18.763,28.458,20.602,27.584,22.236z"/>
	</g>
</g>
</svg>
