<svg width="32" height="33" viewBox="0 0 32 33" fill="none" xmlns="http://www.w3.org/2000/svg">
<g clip-path="url(#clip0)">
<path d="M15.9725 0.991882C11.9449 0.992741 8.06527 2.50731 5.10559 5.23421C2.14592 7.96112 0.32315 11.7004 0 15.7081L8.59102 19.2544C9.34278 18.7403 10.2329 18.4657 11.1442 18.4669C11.2281 18.4669 11.3132 18.4669 11.3946 18.4669L15.2149 12.9394C15.2149 12.9131 15.2149 12.8881 15.2149 12.8618C15.2159 11.6684 15.5713 10.5021 16.2362 9.51025C16.9011 8.51843 17.8458 7.74569 18.9506 7.28971C20.0554 6.83375 21.2709 6.71501 22.4432 6.94855C23.6157 7.18208 24.6923 7.75737 25.5373 8.6017C26.3822 9.44603 26.9574 10.5215 27.1901 11.6921C27.4227 12.8627 27.3025 14.076 26.8447 15.1784C26.3867 16.2808 25.6118 17.223 24.6175 17.8857C23.6233 18.5486 22.4545 18.9022 21.2591 18.9018H21.1213L15.6731 22.7769C15.6731 22.8481 15.6731 22.9207 15.6731 22.9919C15.6717 24.1146 15.2526 25.1968 14.4971 26.0286C13.7417 26.8603 12.7039 27.3825 11.5847 27.4936C10.4655 27.6048 9.34489 27.2971 8.44009 26.6303C7.5353 25.9633 6.91081 24.9848 6.68775 23.8843L0.552199 21.3519C1.36475 24.216 2.96155 26.7969 5.16305 28.8047C7.36456 30.8125 10.0835 32.1672 13.0141 32.7168C15.9447 33.2664 18.9707 32.989 21.752 31.9157C24.5333 30.8424 26.9595 29.0159 28.7578 26.6415C30.5562 24.267 31.6553 21.4389 31.9318 18.475C32.2081 15.5111 31.6509 12.5289 30.3224 9.86389C28.9939 7.19889 26.9472 4.95666 24.4121 3.38933C21.877 1.82201 18.9543 0.991744 15.9725 0.991882Z" fill="white"/>
<path d="M10.0447 25.2694L8.0751 24.4569C8.36075 25.0521 8.81382 25.5515 9.37901 25.8939C9.94419 26.2365 10.597 26.4072 11.2578 26.3855C11.9186 26.3637 12.5588 26.1503 13.1001 25.7714C13.6415 25.3925 14.0606 24.8645 14.3063 24.2517C14.552 23.639 14.6137 22.968 14.4839 22.3209C14.3539 21.6737 14.0382 21.0783 13.575 20.6073C13.1118 20.1363 12.5211 19.8103 11.8754 19.6688C11.2296 19.5273 10.5565 19.5766 9.93832 19.8106L11.973 20.6494C12.5874 20.9047 13.0751 21.3931 13.3287 22.0073C13.5823 22.6215 13.5811 23.3111 13.3254 23.9243C13.0697 24.5377 12.5803 25.0245 11.9651 25.2777C11.3499 25.5309 10.6591 25.5297 10.0447 25.2744V25.2694Z" fill="white"/>
<path d="M25.2884 12.8668C25.2884 12.0716 25.0522 11.2942 24.6096 10.6329C24.1671 9.97164 23.538 9.45622 22.802 9.15184C22.066 8.84744 21.2562 8.76773 20.4748 8.92278C19.6935 9.07785 18.9757 9.46072 18.4123 10.023C17.8489 10.5852 17.4651 11.3016 17.3096 12.0816C17.154 12.8616 17.2336 13.67 17.5383 14.4049C17.8431 15.1396 18.3591 15.7678 19.0213 16.2098C19.6836 16.6519 20.4624 16.8879 21.2589 16.8881C22.3272 16.8874 23.3515 16.4636 24.1071 15.7097C24.8625 14.9558 25.2874 13.9332 25.2884 12.8668ZM18.2425 12.8668C18.2425 12.2696 18.42 11.6857 18.7524 11.189C19.0848 10.6924 19.5572 10.3053 20.11 10.0767C20.6628 9.84817 21.2711 9.78836 21.8579 9.90489C22.4448 10.0214 22.9837 10.309 23.4068 10.7314C23.8299 11.1538 24.118 11.6919 24.2348 12.2777C24.3515 12.8635 24.2916 13.4707 24.0626 14.0226C23.8337 14.5744 23.4459 15.046 22.9484 15.3779C22.4509 15.7097 21.866 15.8868 21.2677 15.8868C20.4655 15.8868 19.696 15.5687 19.1285 15.0023C18.5612 14.436 18.2425 13.6679 18.2425 12.8668Z" fill="white"/>
</g>
<defs>
<clipPath id="clip0">
<rect width="32" height="32" fill="white" transform="translate(0 0.991882)"/>
</clipPath>
</defs>
</svg>
