<svg width="32" height="32" viewBox="0 0 32 32" fill="none" xmlns="http://www.w3.org/2000/svg">
<path fill-rule="evenodd" clip-rule="evenodd" d="M15.9723 0C7.55291 0 0.655337 6.48075 0 14.7165L8.59037 18.2623C9.31812 17.7653 10.1974 17.4751 11.1435 17.4751C11.2283 17.4751 11.3126 17.4773 11.3963 17.4818L15.2169 11.9546C15.2169 11.9465 15.2169 11.9386 15.2168 11.9307C15.2167 11.9255 15.2167 11.9204 15.2166 11.9153C15.2165 11.9023 15.2163 11.8895 15.2163 11.8765C15.2163 8.54931 17.9276 5.84209 21.2607 5.84209C24.594 5.84209 27.3053 8.54931 27.3053 11.8765C27.3053 15.2035 24.594 17.9111 21.2607 17.9111C21.2188 17.9111 21.1775 17.9099 21.1359 17.9087L21.1239 17.9084L15.6751 21.7896C15.678 21.8608 15.6805 21.9325 15.6805 22.0041C15.6805 24.502 13.6452 26.5334 11.1435 26.5334C8.94777 26.5334 7.11145 24.9687 6.69534 22.8965L0.552062 20.3608C2.45415 27.0769 8.63507 32 15.9723 32C24.8242 32 32 24.8365 32 16.0002C32.0001 7.16301 24.8241 0 15.9723 0ZM10.0441 24.2771L8.07516 23.4654C8.42421 24.191 9.02752 24.7976 9.82927 25.1315C11.5614 25.852 13.5591 25.0309 14.2811 23.301C14.6306 22.4637 14.6332 21.5393 14.2863 20.7001C13.9404 19.8609 13.2875 19.2058 12.4479 18.8563C11.615 18.5109 10.7228 18.5233 9.93816 18.8183L11.9724 19.6584C13.2504 20.1899 13.8544 21.6549 13.322 22.9301C12.79 24.2059 11.3219 24.8092 10.0441 24.2771ZM21.261 7.85544C23.4819 7.85544 25.2886 9.65921 25.2886 11.876C25.2886 14.0929 23.4819 15.8962 21.261 15.8962C19.0401 15.8962 17.2329 14.0929 17.2329 11.876C17.2329 9.65908 19.0403 7.85544 21.261 7.85544ZM21.2677 8.84907C19.5967 8.84907 18.242 10.2009 18.242 11.8691C18.242 13.5373 19.5969 14.889 21.2677 14.8891C22.939 14.8891 24.2934 13.5373 24.2934 11.8691C24.2934 10.2009 22.9388 8.84907 21.2677 8.84907Z" fill="#1F2025" fill-opacity="0.501961"/>
</svg>
