<svg width="32" height="32" viewBox="0 0 32 32" fill="none" xmlns="http://www.w3.org/2000/svg">
<circle cx="16" cy="16" r="14.5" stroke="white" stroke-width="3"/>
<path fill-rule="evenodd" clip-rule="evenodd" d="M16.402 24.8867C21.6197 24.8867 25.8495 20.6569 25.8495 15.4392C25.8495 10.3548 21.8329 6.20841 16.7997 6V15.9918H7V16.3718C7.46833 21.1517 11.499 24.8867 16.402 24.8867Z" fill="white"/>
<rect x="16" y="2" width="1" height="3" fill="white"/>
<rect x="16" y="27" width="1" height="3" fill="white"/>
<rect x="30" y="16" width="1" height="3" transform="rotate(90 30 16)" fill="white"/>
<rect x="5" y="16" width="1" height="3" transform="rotate(90 5 16)" fill="white"/>
<rect x="27.616" y="22" width="1" height="2" transform="rotate(120 27.616 22)" fill="white"/>
<rect x="6.23206" y="10" width="1" height="2" transform="rotate(120 6.23206 10)" fill="white"/>
<rect x="9.40369" y="27.9707" width="1" height="2" transform="rotate(-150 9.40369 27.9707)" fill="white"/>
<rect x="22.866" y="7.23206" width="1" height="2" transform="rotate(-150 22.866 7.23206)" fill="white"/>
<rect x="4.37738" y="23.2207" width="1" height="2" transform="rotate(-120 4.37738 23.2207)" fill="white"/>
<rect x="26.5" y="11.866" width="1" height="2" transform="rotate(-120 26.5 11.866)" fill="white"/>
<rect x="8.75" y="4.83975" width="1" height="2" transform="rotate(-30 8.75 4.83975)" fill="white"/>
<rect x="22" y="25.5" width="1" height="2" transform="rotate(-30 22 25.5)" fill="white"/>
</svg>
